<?xml version="1.0" encoding="utf-8"?>
<!-- Generator: Adobe Illustrator 25.1.0, SVG Export Plug-In . SVG Version: 6.00 Build 0)  -->
<svg version="1.1" xmlns="http://www.w3.org/2000/svg" xmlns:xlink="http://www.w3.org/1999/xlink" x="0px" y="0px"
	 viewBox="0 0 238 210" style="enable-background:new 0 0 238 210;" xml:space="preserve">
<style type="text/css">
	.st0{fill:#FFFFFF;}
	.st1{opacity:5.000000e-02;fill:#3C3C41;enable-background:new    ;}
	.st2{fill:none;stroke:#3C3C41;stroke-dasharray:1.002;}
	.st3{fill:#326DE6;}
	.st4{opacity:0.15;fill:#83B9F9;enable-background:new    ;}
	.st5{fill:#0078D4;}
	.st6{opacity:0.25;fill:#3C3C41;enable-background:new    ;}
	.st7{fill:#1E1E1E;}
</style>
<g id="source">
	<g id="Page-1">
		<g id="_x33_-cluster-arch-node">
			<g id="Shapes">
				<rect id="Rectangle-path" x="1.4" class="st0" width="236.2" height="209.4"/>
				<g id="Group" transform="translate(19.600000, 29.400000)">
					<path id="Rectangle-path_1_" class="st0" d="M6,0h205.3c2.8,0,5,2.2,5,5v170c0,2.8-2.2,5-5,5H6c-2.8,0-5-2.2-5-5V5
						C1,2.2,3.2,0,6,0z"/>
					<path id="Rectangle-path_2_" class="st1" d="M6,0h205.3c2.8,0,5,2.2,5,5v170c0,2.8-2.2,5-5,5H6c-2.8,0-5-2.2-5-5V5
						C1,2.2,3.2,0,6,0z"/>
					<path id="Rectangle-path_3_" class="st2" d="M6,0h205.3c2.8,0,5,2.2,5,5v170c0,2.8-2.2,5-5,5H6c-2.8,0-5-2.2-5-5V5
						C1,2.2,3.2,0,6,0z"/>
				</g>
				<g id="Group_1_">
					<path id="Shape" class="st3" d="M14.5,41.3c-1,0-2-0.5-2.6-1.3L2.1,27.9c-0.6-0.8-0.9-1.8-0.6-2.8L5,10c0.2-1,0.9-1.8,1.8-2.3
						l14.1-6.8c0.9-0.4,2-0.4,2.9,0l14.1,6.7c0.9,0.4,1.6,1.3,1.8,2.3l3.5,15.1c0.2,1,0,2-0.6,2.8L32.8,40c-0.6,0.8-1.6,1.2-2.6,1.3
						L14.5,41.3L14.5,41.3z"/>
					<path id="Shape_1_" class="st0" d="M22.3,1.3c0.4,0,0.8,0.1,1.1,0.3l14.1,6.7c0.7,0.4,1.3,1,1.5,1.8l3.5,15.1
						c0.2,0.8,0,1.7-0.5,2.3l-9.8,12.1c-0.5,0.6-1.3,1-2.1,1H14.5c-0.8,0-1.6-0.4-2.1-1L2.6,27.5c-0.5-0.6-0.7-1.5-0.5-2.3l3.5-15.1
						C5.8,9.3,6.3,8.6,7,8.3l14.1-6.7C21.5,1.4,21.9,1.3,22.3,1.3L22.3,1.3z M22.3,0c-0.6,0-1.2,0.1-1.7,0.4L6.5,7.1
						C5.4,7.7,4.6,8.7,4.3,9.8L0.8,25c-0.3,1.2,0,2.5,0.8,3.4l9.8,12.1c0.8,0.9,1.9,1.5,3.1,1.5h15.6c1.2,0,2.3-0.5,3.1-1.5L43,28.4
						c0.8-1,1.1-2.2,0.8-3.4L40.3,9.8c-0.3-1.2-1.1-2.2-2.2-2.7L24,0.4C23.5,0.1,22.9,0,22.3,0z"/>
					<path id="Shape_2_" class="st0" d="M36.5,24L36.5,24C36.4,24,36.4,24,36.5,24c-0.1,0-0.2-0.1-0.3-0.1c-0.2,0-0.4,0-0.5-0.1
						c-0.1,0-0.2,0-0.3,0h0c-0.5,0-1-0.1-1.5-0.3c-0.1-0.1-0.3-0.2-0.3-0.3c0,0,0,0,0-0.1l-0.4-0.1c0.2-1.3,0.1-2.6-0.2-3.9
						c-0.3-1.3-0.8-2.5-1.6-3.7l0.3-0.3v-0.1c0-0.2,0-0.3,0.1-0.4c0.4-0.3,0.8-0.6,1.3-0.9c0.1-0.1,0.2-0.1,0.3-0.1
						c0.2-0.1,0.3-0.2,0.5-0.3c0,0,0.1-0.1,0.1-0.1c0,0,0.1,0,0.1-0.1c0.4-0.3,0.5-0.9,0.2-1.3c-0.2-0.2-0.4-0.3-0.6-0.3
						c-0.2,0-0.4,0.1-0.6,0.2l-0.1,0.1c-0.1,0-0.1,0.1-0.1,0.1c-0.1,0.1-0.2,0.3-0.4,0.4c-0.1,0.1-0.1,0.1-0.2,0.2
						c-0.3,0.4-0.7,0.7-1.1,1c-0.1,0.1-0.2,0.1-0.3,0.1c-0.1,0-0.1,0-0.2,0h-0.1l-0.3,0.2c-0.4-0.4-0.7-0.7-1.1-1.1
						c-1.7-1.3-3.7-2.1-5.8-2.3l0-0.4l-0.1-0.1C23.1,10.2,23,10.1,23,10c0-0.5,0-1,0.1-1.5v0c0-0.1,0-0.2,0.1-0.3
						c0-0.2,0.1-0.3,0.1-0.5V7.4c0-0.4-0.2-0.7-0.5-0.8c-0.3-0.1-0.7-0.1-1,0.2c-0.2,0.2-0.3,0.4-0.3,0.6v0.2c0,0.2,0,0.4,0.1,0.5
						c0,0.1,0,0.2,0.1,0.3v0c0.1,0.5,0.1,1,0.1,1.5c0,0.1-0.1,0.3-0.2,0.4l-0.1,0.1l0,0.4c-0.5,0-1,0.1-1.5,0.2
						c-2.1,0.5-4,1.5-5.5,3.1l-0.3-0.2H14c-0.1,0-0.1,0-0.2,0c-0.1,0-0.2,0-0.3-0.1c-0.4-0.3-0.8-0.7-1.1-1
						c-0.1-0.1-0.1-0.1-0.2-0.2c-0.1-0.1-0.2-0.3-0.4-0.4c0,0-0.1-0.1-0.1-0.1c0,0-0.1,0-0.1-0.1c-0.2-0.1-0.4-0.2-0.6-0.2
						c-0.3,0-0.5,0.1-0.6,0.3c-0.3,0.4-0.2,1,0.2,1.3c0,0,0,0,0.1,0c0.1,0,0.1,0.1,0.1,0.1c0.2,0.1,0.3,0.2,0.5,0.3
						c0.1,0,0.2,0.1,0.3,0.1c0.4,0.2,0.9,0.5,1.3,0.9c0.1,0.1,0.2,0.3,0.1,0.4v0.1l0.3,0.3c-0.1,0.1-0.1,0.1-0.1,0.2
						c-1.4,2.2-1.9,4.8-1.6,7.4l-0.4,0.1c0,0,0,0,0,0.1c-0.1,0.1-0.2,0.2-0.3,0.3c-0.5,0.1-1,0.2-1.5,0.3h0c-0.1,0-0.2,0-0.3,0
						c-0.2,0-0.4,0-0.5,0.1c-0.1,0-0.1,0-0.2,0c0,0-0.1,0-0.1,0c-0.5,0.1-0.8,0.5-0.7,1c0.1,0.4,0.5,0.7,0.9,0.6c0.1,0,0.2,0,0.2,0
						c0,0,0.1,0,0.1,0c0.1,0,0.1,0,0.2,0c0.2,0,0.3-0.1,0.5-0.2c0.1,0,0.2-0.1,0.3-0.1h0c0.5-0.2,1-0.3,1.5-0.4h0.1
						c0.1,0,0.3,0.1,0.4,0.1c0,0,0,0,0.1,0l0.4-0.1c0.7,2.1,1.9,3.9,3.7,5.2c0.4,0.3,0.8,0.6,1.2,0.8l-0.2,0.4c0,0,0,0,0,0.1
						c0.1,0.1,0.1,0.3,0.1,0.4c-0.2,0.5-0.4,0.9-0.7,1.3v0c-0.1,0.1-0.1,0.1-0.2,0.2c-0.1,0.1-0.2,0.3-0.3,0.4c0,0-0.1,0.1-0.1,0.1
						c0,0,0,0,0,0.1c-0.1,0.2-0.1,0.4-0.1,0.7s0.2,0.4,0.4,0.5c0.1,0.1,0.2,0.1,0.3,0.1c0.4,0,0.7-0.2,0.8-0.5c0,0,0,0,0-0.1
						c0-0.1,0-0.1,0.1-0.1c0.1-0.2,0.1-0.3,0.2-0.5l0.1-0.3c0.1-0.5,0.3-1,0.6-1.4c0.1-0.1,0.2-0.2,0.4-0.3c0,0,0,0,0.1,0l0.2-0.4
						c1.2,0.5,2.6,0.7,3.9,0.7c0.8,0,1.6-0.1,2.4-0.3c0.5-0.1,1-0.3,1.5-0.4l0.2,0.3c0,0,0,0,0.1,0c0.2,0,0.3,0.1,0.4,0.3
						c0.2,0.5,0.4,0.9,0.6,1.4v0l0.1,0.3c0,0.2,0.1,0.3,0.2,0.5c0,0.1,0.1,0.1,0.1,0.1c0,0,0,0,0,0.1c0.2,0.3,0.5,0.5,0.8,0.5
						c0.1,0,0.2,0,0.3-0.1c0.2-0.1,0.4-0.3,0.4-0.5c0.1-0.2,0-0.5-0.1-0.7c0,0,0,0,0-0.1c0-0.1,0-0.1-0.1-0.1
						c-0.1-0.2-0.2-0.3-0.3-0.4c-0.1-0.1-0.1-0.1-0.2-0.2v0c-0.3-0.4-0.5-0.8-0.7-1.3c0-0.1,0-0.3,0-0.4c0,0,0,0,0-0.1L28,31
						c2.3-1.4,4-3.5,4.9-6.1l0.3,0.1c0,0,0,0,0.1,0c0.1-0.1,0.2-0.1,0.4-0.1h0.1c0.5,0.1,1,0.2,1.4,0.4h0c0.1,0,0.2,0.1,0.3,0.1
						c0.2,0.1,0.3,0.1,0.5,0.2c0.1,0,0.1,0,0.2,0c0,0,0.1,0,0.1,0c0.1,0,0.1,0,0.2,0c0.4,0,0.8-0.3,0.9-0.6
						C37.2,24.5,36.9,24.1,36.5,24L36.5,24z M23.6,22.7l-1.2,0.6l-1.2-0.6l-0.3-1.3l0.8-1.1H23l0.8,1.1L23.6,22.7L23.6,22.7z
						 M30.8,19.8c0.2,0.9,0.3,1.9,0.2,2.8l-4.3-1.2c-0.4-0.1-0.6-0.5-0.5-0.9c0-0.1,0.1-0.2,0.2-0.3l3.4-3
						C30.3,18,30.6,18.8,30.8,19.8z M28.4,15.5L24.8,18c-0.3,0.2-0.7,0.1-1-0.2c-0.1-0.1-0.1-0.2-0.1-0.3L23.4,13
						C25.3,13.2,27.1,14.1,28.4,15.5L28.4,15.5z M20.3,13.2c0.3-0.1,0.6-0.1,0.9-0.2L21,17.5c0,0.4-0.3,0.7-0.8,0.7
						c-0.1,0-0.2,0-0.3-0.1l-3.7-2.6C17.3,14.3,18.8,13.5,20.3,13.2z M14.9,17.1l3.3,3c0.3,0.3,0.3,0.7,0.1,1
						c-0.1,0.1-0.2,0.2-0.3,0.2l-4.3,1.3C13.4,20.7,13.9,18.8,14.9,17.1L14.9,17.1z M14.1,24.7l4.4-0.8c0.4,0,0.7,0.2,0.8,0.6
						c0,0.1,0,0.3,0,0.4l-1.7,4.1C16,28,14.8,26.5,14.1,24.7z M24.3,30.2c-0.6,0.1-1.3,0.2-2,0.2c-1,0-1.9-0.2-2.8-0.4l2.2-4
						c0.2-0.3,0.6-0.3,0.9-0.2c0.1,0.1,0.2,0.2,0.3,0.3l2.1,3.9C24.8,30.1,24.6,30.2,24.3,30.2z M29.7,26.4c-0.7,1.1-1.6,2-2.7,2.7
						l-1.8-4.2c-0.1-0.3,0.1-0.7,0.4-0.9c0.1-0.1,0.3-0.1,0.4-0.1l4.5,0.8C30.4,25.3,30.1,25.8,29.7,26.4z"/>
				</g>
				<g id="Group_2_" transform="translate(39.200000, 47.600000)">
					<rect id="Rectangle-path_4_" x="1.7" y="1.9" class="st0" width="174.6" height="118.7"/>
					<rect id="Rectangle-path_5_" x="1.7" y="1.9" class="st4" width="174.6" height="118.7"/>
					<path id="Shape_3_" class="st0" d="M176.2,2v118.3H1.9V2H176.2z M176.6,1.7H1.6v119h175V1.7z"/>
					<path id="Shape_4_" class="st5" d="M176.6,1.7v119H1.6V1.7H176.6z M176.9,1.3H1.2V121h175.7V1.3z"/>
				</g>
				<g id="Group_3_" transform="translate(47.600000, 56.000000)">
					<rect id="Rectangle-path_6_" x="0.2" y="0.3" class="st0" width="161" height="28"/>
					<rect id="Rectangle-path_7_" x="0.2" y="0.3" class="st6" width="161" height="28"/>
				</g>
				<g id="Group_4_" transform="translate(47.600000, 126.000000)">
					<rect id="Rectangle-path_8_" x="0.2" y="0.3" class="st0" width="161" height="28"/>
					<rect id="Rectangle-path_9_" x="0.2" y="0.3" class="st6" width="161" height="28"/>
				</g>
				<g id="Group_5_" transform="translate(47.600000, 91.000000)">
					<rect id="Rectangle-path_10_" x="0.2" y="0.3" class="st0" width="161" height="28"/>
					<rect id="Rectangle-path_11_" x="0.2" y="0.3" class="st6" width="161" height="28"/>
				</g>
			</g>
			<g id="Text" transform="translate(47.600000, 8.400000)">
				<g id="Group_6_">
					<path id="Shape_5_" class="st7" d="M10.8,12.6H7.5L4,7.5C3.9,7.3,3.8,7.1,3.7,6.8h0v5.8H1V0.8h2.6v5.6h0C3.8,6.2,3.9,6,4.1,5.7
						l3.2-4.9h3.2L6.4,6.5L10.8,12.6z"/>
					<path id="Shape_6_" class="st7" d="M19.4,12.6h-2.6v-1.3h0c-0.5,0.9-1.5,1.5-2.6,1.5c-1.9,0-2.9-1.2-2.9-3.5l0-5.1h2.6V9
						c0,1.2,0.5,1.8,1.4,1.8c0.4,0,0.8-0.2,1.1-0.5c0.3-0.4,0.4-0.8,0.4-1.3V4.2h2.6L19.4,12.6z"/>
					<path id="Shape_7_" class="st7" d="M24.2,11.6L24.2,11.6l0,1h-2.6V0.2h2.6v5.3h0C24.8,4.5,25.8,4,26.9,4c1-0.1,1.9,0.4,2.5,1.1
						c0.6,0.9,0.9,2,0.9,3.1c0.1,1.2-0.3,2.4-1,3.4c-0.7,0.8-1.7,1.3-2.7,1.3C25.6,12.9,24.7,12.4,24.2,11.6z M24.1,8.1v0.9
						c0,0.5,0.1,1,0.5,1.3c0.3,0.3,0.7,0.5,1.2,0.5c0.5,0,1.1-0.2,1.4-0.7c0.4-0.6,0.5-1.3,0.5-1.9c0-0.6-0.1-1.1-0.4-1.6
						c-0.3-0.4-0.8-0.6-1.3-0.6c-0.5,0-1,0.2-1.3,0.6C24.3,7,24.1,7.5,24.1,8.1L24.1,8.1z"/>
					<path id="Shape_8_" class="st7" d="M39.6,9.1h-5.5c0.1,1.2,0.9,1.8,2.3,1.8c0.9,0,1.7-0.2,2.4-0.7v1.9c-0.9,0.5-2,0.7-3,0.6
						c-1.2,0.1-2.3-0.3-3.2-1.1c-0.8-0.9-1.2-2-1.1-3.1c-0.1-1.2,0.4-2.4,1.2-3.3c0.8-0.8,1.9-1.2,3-1.2c1.1-0.1,2.1,0.3,2.8,1.1
						c0.7,0.8,1.1,1.9,1,3L39.6,9.1z M37.2,7.5c0-1.2-0.5-1.8-1.5-1.8c-0.4,0-0.8,0.2-1.1,0.5c-0.3,0.4-0.5,0.8-0.6,1.3H37.2z"/>
					<path id="Shape_9_" class="st7" d="M46.7,6.5c-0.3-0.2-0.7-0.3-1.1-0.3c-0.5,0-1,0.2-1.3,0.6C44,7.4,43.8,8,43.8,8.6v4h-2.6
						V4.2h2.6v1.6h0c0.2-1,1.2-1.7,2.2-1.7c0.2,0,0.4,0,0.6,0.1V6.5z"/>
					<path id="Shape_10_" class="st7" d="M56,12.6h-2.6V7.9c0-1.3-0.5-2-1.4-2c-0.4,0-0.8,0.2-1.1,0.5c-0.3,0.4-0.5,0.8-0.4,1.3v4.8
						h-2.6V4.2h2.6v1.3h0c0.5-1,1.6-1.6,2.7-1.5C55.1,4,56,5.1,56,7.5V12.6z"/>
					<path id="Shape_11_" class="st7" d="M65.7,9.1h-5.5c0.1,1.2,0.9,1.8,2.3,1.8c0.9,0,1.7-0.2,2.4-0.7v1.9c-0.9,0.5-2,0.7-3,0.6
						c-1.2,0.1-2.3-0.3-3.2-1.1c-0.8-0.9-1.2-2-1.1-3.1c-0.1-1.2,0.4-2.4,1.2-3.3c0.8-0.8,1.9-1.2,3-1.2c1.1-0.1,2.1,0.3,2.8,1.1
						c0.7,0.8,1.1,1.9,1,3L65.7,9.1z M63.3,7.5c0-1.2-0.5-1.8-1.5-1.8c-0.4,0-0.8,0.2-1.1,0.5c-0.3,0.4-0.5,0.8-0.6,1.3H63.3z"/>
					<path id="Shape_12_" class="st7" d="M72.4,12.5c-0.5,0.2-1.1,0.3-1.7,0.3c-1.8,0-2.7-0.9-2.7-2.8V6.1h-1.4V4.2h1.4V2.4l2.6-0.7
						v2.6h1.9v1.9h-1.9v3.4c0,0.9,0.3,1.3,1,1.3c0.3,0,0.6-0.1,0.8-0.2L72.4,12.5z"/>
					<path id="Shape_13_" class="st7" d="M81.4,9.1h-5.5c0.1,1.2,0.9,1.8,2.3,1.8c0.9,0,1.7-0.2,2.4-0.7v1.9c-0.9,0.5-2,0.7-3,0.6
						c-1.2,0.1-2.3-0.3-3.2-1.1c-0.8-0.9-1.2-2-1.1-3.1c-0.1-1.2,0.4-2.4,1.2-3.3c0.8-0.8,1.9-1.2,3-1.2c1.1-0.1,2.1,0.3,2.8,1.1
						c0.7,0.8,1.1,1.9,1,3L81.4,9.1z M79,7.5c0-1.2-0.5-1.8-1.5-1.8c-0.4,0-0.8,0.2-1.1,0.5c-0.3,0.4-0.5,0.8-0.6,1.3H79z"/>
					<path id="Shape_14_" class="st7" d="M82.6,12.4v-2.1c0.4,0.2,0.8,0.4,1.3,0.6C84.2,11,84.6,11,85,11c0.4,0,0.7,0,1.1-0.2
						c0.2-0.1,0.4-0.3,0.4-0.6c0-0.2-0.1-0.3-0.2-0.4c-0.1-0.1-0.3-0.2-0.5-0.3c-0.2-0.1-0.4-0.2-0.6-0.2c-0.2-0.1-0.4-0.1-0.6-0.2
						C84.3,9,84,8.9,83.7,8.7c-0.2-0.1-0.5-0.3-0.6-0.5c-0.2-0.2-0.3-0.4-0.4-0.7c-0.1-0.3-0.1-0.6-0.1-0.9c0-0.4,0.1-0.8,0.3-1.2
						c0.2-0.3,0.5-0.6,0.8-0.8c0.4-0.2,0.8-0.4,1.2-0.5C85.3,4,85.8,4,86.2,4c0.4,0,0.8,0,1.1,0.1c0.4,0.1,0.8,0.1,1.1,0.3v2
						c-0.3-0.2-0.7-0.3-1.1-0.4c-0.4-0.1-0.7-0.1-1.1-0.1c-0.2,0-0.3,0-0.5,0c-0.1,0-0.3,0.1-0.4,0.1c-0.1,0.1-0.2,0.1-0.3,0.2
						c-0.1,0.1-0.1,0.2-0.1,0.3c0,0.1,0,0.3,0.1,0.4c0.1,0.1,0.2,0.2,0.4,0.3c0.2,0.1,0.3,0.2,0.5,0.2c0.2,0.1,0.4,0.1,0.6,0.2
						c0.3,0.1,0.6,0.2,0.9,0.4c0.3,0.1,0.5,0.3,0.7,0.5c0.2,0.2,0.4,0.4,0.5,0.7c0.3,0.7,0.2,1.5-0.2,2.2c-0.2,0.4-0.5,0.6-0.9,0.9
						c-0.4,0.2-0.8,0.4-1.2,0.5c-0.5,0.1-1,0.2-1.5,0.2C84.2,12.8,83.4,12.7,82.6,12.4z"/>
					<path id="Shape_15_" class="st7" d="M103.8,12.2c-1.1,0.5-2.2,0.7-3.4,0.6c-1.6,0.1-3.1-0.5-4.3-1.6c-1.1-1.1-1.6-2.7-1.6-4.2
						c-0.1-1.7,0.6-3.4,1.7-4.6c1.2-1.2,2.8-1.8,4.5-1.8c1,0,2,0.1,2.9,0.4v2.6c-0.8-0.5-1.7-0.7-2.7-0.7c-1,0-2,0.3-2.7,1
						c-0.7,0.8-1.1,1.8-1,2.8c-0.1,1,0.3,2,1,2.7c0.7,0.7,1.6,1.1,2.6,1c1,0,2-0.3,2.8-0.8L103.8,12.2z"/>
					<polygon id="Shape_16_" class="st7" points="108.2,12.6 105.6,12.6 105.6,0.2 108.2,0.2 					"/>
					<path id="Shape_17_" class="st7" d="M118.3,12.6h-2.6v-1.3h0c-0.5,0.9-1.5,1.5-2.6,1.5c-1.9,0-2.9-1.2-2.9-3.5V4.2h2.6V9
						c0,1.2,0.5,1.8,1.4,1.8c0.4,0,0.8-0.2,1.1-0.5c0.3-0.4,0.4-0.8,0.4-1.3V4.2h2.6L118.3,12.6z"/>
					<path id="Shape_18_" class="st7" d="M120.1,12.4v-2.1c0.4,0.2,0.8,0.4,1.3,0.6c0.4,0.1,0.8,0.2,1.2,0.2c0.4,0,0.7,0,1.1-0.2
						c0.2-0.1,0.4-0.3,0.4-0.6c0-0.2-0.1-0.3-0.2-0.4c-0.1-0.1-0.3-0.2-0.5-0.3c-0.2-0.1-0.4-0.2-0.6-0.2c-0.2-0.1-0.4-0.1-0.6-0.2
						c-0.3-0.1-0.6-0.2-0.9-0.4c-0.2-0.1-0.5-0.3-0.6-0.5c-0.2-0.2-0.3-0.4-0.4-0.7c-0.1-0.3-0.1-0.6-0.1-0.9c0-0.4,0.1-0.8,0.3-1.2
						c0.2-0.3,0.5-0.6,0.8-0.8c0.4-0.2,0.8-0.4,1.2-0.5c0.5-0.1,0.9-0.2,1.4-0.2c0.4,0,0.8,0,1.1,0.1c0.4,0.1,0.8,0.1,1.1,0.3v2
						c-0.3-0.2-0.7-0.3-1.1-0.4c-0.4-0.1-0.7-0.1-1.1-0.1c-0.2,0-0.3,0-0.5,0c-0.1,0-0.3,0.1-0.4,0.1c-0.1,0.1-0.2,0.1-0.3,0.2
						c-0.1,0.1-0.1,0.2-0.1,0.3c0,0.1,0.1,0.3,0.1,0.4c0.1,0.1,0.2,0.2,0.4,0.3c0.2,0.1,0.3,0.2,0.5,0.2c0.2,0.1,0.4,0.1,0.6,0.2
						c0.3,0.1,0.6,0.2,0.9,0.4c0.3,0.1,0.5,0.3,0.7,0.5c0.2,0.2,0.4,0.4,0.5,0.7c0.3,0.7,0.2,1.5-0.2,2.2c-0.2,0.4-0.5,0.6-0.9,0.9
						c-0.4,0.2-0.8,0.4-1.2,0.5c-0.5,0.1-1,0.2-1.5,0.2C121.8,12.8,120.9,12.7,120.1,12.4z"/>
					<path id="Shape_19_" class="st7" d="M133.1,12.5c-0.5,0.2-1.1,0.3-1.7,0.3c-1.8,0-2.7-0.9-2.7-2.8V6.1h-1.4V4.2h1.4V2.4
						l2.6-0.7v2.6h1.9v1.9h-1.9v3.4c0,0.9,0.3,1.3,1,1.3c0.3,0,0.6-0.1,0.8-0.2V12.5z"/>
					<path id="Shape_20_" class="st7" d="M142.1,9.1h-5.5c0.1,1.2,0.9,1.8,2.3,1.8c0.9,0,1.7-0.2,2.4-0.7v1.9c-0.9,0.5-2,0.7-3,0.6
						c-1.2,0.1-2.3-0.3-3.2-1.1c-0.8-0.9-1.2-2-1.1-3.1c-0.1-1.2,0.4-2.4,1.2-3.3c0.8-0.8,1.9-1.2,3-1.2c1.1-0.1,2.1,0.3,2.8,1.1
						c0.7,0.8,1.1,1.9,1,3L142.1,9.1z M139.7,7.5c0-1.2-0.5-1.8-1.5-1.8c-0.4,0-0.8,0.2-1.1,0.5c-0.3,0.4-0.5,0.8-0.6,1.3H139.7z"/>
					<path id="Shape_21_" class="st7" d="M149.2,6.5c-0.3-0.2-0.7-0.3-1.1-0.3c-0.5,0-1,0.2-1.3,0.6c-0.3,0.5-0.5,1.1-0.5,1.7v4
						h-2.6V4.2h2.6v1.6h0c0.2-1,1.2-1.7,2.2-1.7c0.2,0,0.4,0,0.6,0.1V6.5z"/>
				</g>
				<g id="Group_7_" transform="translate(11.200000, 54.600000)">
					<polygon id="Shape_22_" class="st7" points="50.3,12.9 48.4,12.9 44.7,8.8 44.6,8.8 44.6,12.9 43.3,12.9 43.3,0.4 44.6,0.4 
						44.6,8.3 44.7,8.3 48.2,4.5 50,4.5 46.1,8.5 					"/>
					<path id="Shape_23_" class="st7" d="M58.4,12.9h-1.3v-1.3h0c-0.5,1-1.5,1.6-2.6,1.5c-2,0-3-1.2-3-3.6v-5h1.3v4.8
						c0,1.8,0.7,2.7,2,2.7c0.6,0,1.2-0.3,1.6-0.7c0.4-0.5,0.7-1.2,0.6-1.9V4.5h1.3V12.9z"/>
					<path id="Shape_24_" class="st7" d="M62.5,11.7L62.5,11.7l0,1.2h-1.3V0.4h1.3V6h0c0.6-1.1,1.7-1.7,2.9-1.7c1,0,1.9,0.4,2.5,1.1
						c0.6,0.9,1,1.9,0.9,3c0.1,1.2-0.3,2.4-1,3.4c-0.7,0.8-1.7,1.3-2.8,1.3C64,13.1,63,12.6,62.5,11.7z M62.5,8.3v1.2
						c0,0.7,0.2,1.3,0.7,1.8c0.5,0.5,1.2,0.8,1.9,0.7c0.7,0,1.3-0.4,1.8-0.9c0.5-0.8,0.8-1.7,0.7-2.6c0-0.8-0.2-1.6-0.6-2.2
						c-0.4-0.5-1.1-0.8-1.8-0.8c-0.7,0-1.4,0.3-1.9,0.8C62.7,6.8,62.5,7.5,62.5,8.3z"/>
					<path id="Shape_25_" class="st7" d="M77.8,9h-5.9c0,0.8,0.2,1.6,0.8,2.2c0.5,0.5,1.2,0.8,2,0.8c1,0,1.9-0.3,2.6-0.9v1.3
						c-0.9,0.6-1.9,0.9-2.9,0.8c-1.1,0.1-2.1-0.4-2.8-1.1c-0.7-0.9-1.1-2.1-1-3.2c0-1.2,0.3-2.3,1.1-3.2c0.7-0.8,1.7-1.3,2.8-1.2
						c1-0.1,1.9,0.3,2.6,1.1c0.6,0.8,1,1.9,0.9,3L77.8,9z M76.4,7.9c0-0.7-0.2-1.3-0.6-1.8c-0.4-0.4-1-0.7-1.5-0.6
						c-0.6,0-1.2,0.2-1.6,0.7c-0.5,0.5-0.7,1.1-0.8,1.8H76.4z"/>
					<polygon id="Shape_26_" class="st7" points="81.2,12.9 79.8,12.9 79.8,0.4 81.2,0.4 					"/>
					<path id="Shape_27_" class="st7" d="M90.6,9h-5.9c0,0.8,0.2,1.6,0.8,2.2c0.5,0.5,1.2,0.8,2,0.8c1,0,1.9-0.3,2.6-0.9v1.3
						c-0.9,0.6-1.9,0.9-2.9,0.8c-1.1,0.1-2.1-0.4-2.8-1.1c-0.7-0.9-1.1-2.1-1-3.2c0-1.2,0.3-2.3,1.1-3.2c0.7-0.8,1.7-1.3,2.8-1.2
						c1-0.1,1.9,0.3,2.6,1.1c0.6,0.8,1,1.9,0.9,3L90.6,9z M89.3,7.9c0-0.7-0.2-1.3-0.6-1.8c-0.4-0.4-1-0.7-1.5-0.6
						c-0.6,0-1.2,0.2-1.6,0.7c-0.5,0.5-0.7,1.1-0.8,1.8H89.3z"/>
					<path id="Shape_28_" class="st7" d="M96.6,12.8c-0.4,0.2-0.8,0.3-1.3,0.3c-1.5,0-2.2-0.8-2.2-2.5v-5h-1.4V4.5h1.4V2.4L94.4,2
						v2.5h2.1v1.1h-2.1v4.7c0,0.4,0.1,0.8,0.3,1.2c0.2,0.3,0.6,0.4,1,0.4c0.3,0,0.6-0.1,0.9-0.3L96.6,12.8z"/>
					<polygon id="Shape_29_" class="st7" points="35.5,47.9 33.6,47.9 29.9,43.8 29.9,43.8 29.9,47.9 28.5,47.9 28.5,35.4 
						29.9,35.4 29.9,43.3 29.9,43.3 33.4,39.5 35.2,39.5 31.3,43.5 					"/>
					<path id="Shape_30_" class="st7" d="M43.7,47.9h-1.3v-1.3h0c-0.5,1-1.5,1.6-2.6,1.5c-2,0-3-1.2-3-3.6v-5H38v4.8
						c0,1.8,0.7,2.7,2,2.7c0.6,0,1.2-0.3,1.6-0.7c0.4-0.5,0.7-1.2,0.6-1.9v-4.8h1.3L43.7,47.9z"/>
					<path id="Shape_31_" class="st7" d="M47.7,46.7L47.7,46.7l0,1.2h-1.3V35.4h1.3V41h0c0.6-1.1,1.7-1.7,2.9-1.7
						c1,0,1.9,0.4,2.5,1.1c0.6,0.9,1,1.9,0.9,3c0.1,1.2-0.3,2.4-1,3.4c-0.7,0.8-1.7,1.3-2.8,1.3C49.2,48.1,48.3,47.6,47.7,46.7z
						 M47.7,43.3v1.2c0,0.7,0.2,1.3,0.7,1.8c0.5,0.5,1.2,0.8,1.9,0.7c0.7,0,1.3-0.4,1.8-0.9c0.5-0.8,0.8-1.7,0.7-2.6
						c0-0.8-0.2-1.6-0.6-2.2c-0.4-0.5-1.1-0.8-1.8-0.8c-0.7,0-1.4,0.3-1.9,0.8C48,41.8,47.7,42.5,47.7,43.3z"/>
					<path id="Shape_32_" class="st7" d="M63,44h-5.9c0,0.8,0.2,1.6,0.8,2.2c0.5,0.5,1.2,0.8,2,0.8c1,0,1.9-0.3,2.6-0.9v1.3
						c-0.9,0.6-1.9,0.9-2.9,0.8c-1.1,0.1-2.1-0.4-2.8-1.1c-0.7-0.9-1.1-2.1-1-3.2c0-1.2,0.3-2.3,1.1-3.2c0.7-0.8,1.7-1.3,2.8-1.2
						c1-0.1,1.9,0.3,2.6,1.1c0.6,0.8,1,1.9,0.9,3V44z M61.6,42.9c0-0.7-0.2-1.3-0.6-1.8c-0.4-0.4-1-0.7-1.5-0.6
						c-0.6,0-1.2,0.2-1.6,0.7c-0.5,0.5-0.7,1.1-0.8,1.8L61.6,42.9z"/>
					<polygon id="Shape_33_" class="st7" points="69.3,43.7 64.9,43.7 64.9,42.7 69.3,42.7 					"/>
					<path id="Shape_34_" class="st7" d="M73.1,46.7L73.1,46.7l0,5.1h-1.3V39.5h1.3V41h0c0.6-1.1,1.7-1.7,2.9-1.7
						c1,0,1.9,0.4,2.5,1.1c0.6,0.9,1,1.9,0.9,3c0.1,1.2-0.3,2.4-1,3.4c-0.7,0.8-1.7,1.3-2.8,1.3C74.6,48.1,73.6,47.6,73.1,46.7z
						 M73.1,43.3v1.2c0,0.7,0.2,1.3,0.7,1.8c0.5,0.5,1.2,0.8,1.9,0.7c0.7,0,1.3-0.4,1.8-0.9c0.5-0.8,0.8-1.7,0.7-2.6
						c0-0.8-0.2-1.6-0.6-2.2c-0.4-0.5-1.1-0.8-1.8-0.8c-0.7,0-1.4,0.3-1.9,0.8C73.3,41.8,73.1,42.5,73.1,43.3z"/>
					<path id="Shape_35_" class="st7" d="M86,40.8c-0.3-0.2-0.7-0.3-1-0.3c-0.6,0-1.1,0.3-1.4,0.8c-0.4,0.7-0.6,1.4-0.6,2.2v4.3
						h-1.3v-8.4H83v1.7h0c0.2-0.5,0.5-1,0.9-1.4c0.4-0.3,0.8-0.5,1.3-0.5c0.3,0,0.5,0,0.8,0.1V40.8z"/>
					<path id="Shape_36_" class="st7" d="M91,48.1c-1.1,0.1-2.2-0.4-3-1.2c-0.8-0.9-1.2-2-1.1-3.1c-0.1-1.2,0.3-2.4,1.2-3.3
						c0.8-0.8,2-1.2,3.1-1.2c1.1-0.1,2.2,0.4,2.9,1.2c0.7,0.9,1.1,2,1.1,3.2c0.1,1.2-0.3,2.3-1.1,3.2C93.2,47.7,92.1,48.1,91,48.1z
						 M91.1,40.4c-0.8,0-1.5,0.3-2,0.9c-0.5,0.7-0.8,1.6-0.8,2.4c0,0.9,0.2,1.7,0.8,2.4c0.5,0.6,1.3,0.9,2,0.9c0.8,0,1.5-0.3,2-0.8
						c0.5-0.7,0.8-1.5,0.7-2.4c0.1-0.9-0.2-1.7-0.7-2.4C92.6,40.7,91.8,40.4,91.1,40.4z"/>
					<path id="Shape_37_" class="st7" d="M103.4,39.5l-2.8,4.2l2.8,4.2h-1.6l-1.6-2.7c-0.1-0.2-0.2-0.4-0.4-0.6h0
						c0,0-0.2,0.3-0.4,0.6l-1.7,2.7h-1.6l2.9-4.1l-2.7-4.3h1.6l1.6,2.9c0.1,0.2,0.2,0.4,0.4,0.7h0l2.1-3.5H103.4z"/>
					<path id="Shape_38_" class="st7" d="M111.7,39.5l-3.9,9.7c-0.7,1.7-1.7,2.6-2.9,2.6c-0.3,0-0.6,0-0.9-0.1v-1.2
						c0.3,0.1,0.5,0.1,0.8,0.1c0.7,0,1.3-0.5,1.5-1.2l0.7-1.6l-3.3-8.4h1.5l2.3,6.5c0,0.1,0.1,0.3,0.2,0.6h0c0-0.1,0.1-0.3,0.2-0.6
						l2.4-6.5H111.7z"/>
					<path id="Shape_39_" class="st7" d="M9.6,82.4c-1,0.5-2.1,0.7-3.2,0.7c-1.5,0.1-3-0.5-4-1.6c-1-1.2-1.6-2.7-1.5-4.2
						c-0.1-1.7,0.5-3.3,1.7-4.6c1.1-1.2,2.7-1.8,4.3-1.7c0.9,0,1.9,0.1,2.8,0.5v1.5c-0.9-0.5-1.8-0.7-2.8-0.7
						c-1.2,0-2.4,0.4-3.3,1.4c-0.9,1-1.3,2.3-1.3,3.6c-0.1,1.3,0.4,2.5,1.2,3.4c0.8,0.9,1.9,1.3,3.1,1.3c1.1,0,2.1-0.2,3.1-0.8V82.4
						z"/>
					<path id="Shape_40_" class="st7" d="M15.3,83.1c-1.1,0.1-2.2-0.4-3-1.2c-0.8-0.9-1.2-2-1.1-3.1c-0.1-1.2,0.3-2.4,1.2-3.3
						c0.8-0.8,2-1.2,3.1-1.2c1.1-0.1,2.2,0.4,2.9,1.2c0.7,0.9,1.1,2,1.1,3.2c0.1,1.2-0.4,2.3-1.1,3.2C17.6,82.7,16.4,83.1,15.3,83.1
						z M15.4,75.4c-0.8,0-1.5,0.3-2.1,0.9c-0.5,0.7-0.8,1.6-0.7,2.4c0,0.9,0.2,1.7,0.8,2.4c0.5,0.6,1.3,0.9,2,0.9
						c0.8,0,1.5-0.3,2-0.8c0.5-0.7,0.8-1.5,0.7-2.4c0.1-0.9-0.2-1.7-0.7-2.4C16.9,75.7,16.2,75.4,15.4,75.4z"/>
					<path id="Shape_41_" class="st7" d="M28.6,82.9h-1.3v-4.8c0-1.8-0.7-2.7-2-2.7c-0.6,0-1.3,0.3-1.7,0.8
						c-0.5,0.5-0.7,1.2-0.7,1.9v4.8h-1.3v-8.4H23v1.4h0c0.5-1,1.6-1.6,2.8-1.6c0.8,0,1.6,0.3,2.1,0.9c0.5,0.7,0.8,1.7,0.7,2.6V82.9z
						"/>
					<path id="Shape_42_" class="st7" d="M35,82.8c-0.4,0.2-0.8,0.3-1.3,0.3c-1.5,0-2.2-0.8-2.2-2.5v-5h-1.4v-1.1h1.4v-2.1l1.3-0.4
						v2.5H35v1.1h-2.1v4.7c0,0.4,0.1,0.8,0.3,1.2c0.2,0.3,0.6,0.4,1,0.4c0.3,0,0.6-0.1,0.9-0.3L35,82.8z"/>
					<path id="Shape_43_" class="st7" d="M42.9,82.9h-1.3v-1.3h0c-0.5,1-1.5,1.5-2.6,1.5c-0.7,0-1.4-0.2-2-0.7
						c-0.5-0.5-0.7-1.1-0.7-1.8c0-1.6,0.9-2.5,2.8-2.7l2.5-0.4c0-1.4-0.6-2.1-1.7-2.1c-1,0-2,0.4-2.7,1v-1.4
						c0.9-0.5,1.8-0.8,2.9-0.8c2,0,3,1,3,3.1L42.9,82.9z M41.5,78.6l-2,0.3c-0.5,0-1,0.2-1.4,0.5c-0.3,0.3-0.5,0.7-0.5,1.2
						c0,0.4,0.2,0.8,0.4,1c0.3,0.3,0.7,0.4,1.2,0.4c0.6,0,1.2-0.2,1.7-0.7c0.4-0.5,0.7-1.1,0.7-1.8V78.6z"/>
					<path id="Shape_44_" class="st7" d="M46.1,72.3c-0.2,0-0.5-0.1-0.6-0.2c-0.2-0.2-0.3-0.4-0.3-0.6c0-0.2,0.1-0.5,0.2-0.6
						c0.2-0.2,0.4-0.3,0.6-0.3c0.2,0,0.5,0.1,0.6,0.2c0.2,0.2,0.3,0.4,0.3,0.6c0,0.2-0.1,0.5-0.3,0.6C46.5,72.3,46.3,72.4,46.1,72.3
						z M46.7,82.9h-1.3v-8.4h1.3V82.9z"/>
					<path id="Shape_45_" class="st7" d="M56.4,82.9h-1.3v-4.8c0-1.8-0.7-2.7-2-2.7c-0.6,0-1.3,0.3-1.7,0.8
						c-0.5,0.5-0.7,1.2-0.7,1.9v4.8h-1.3v-8.4h1.3v1.4h0c0.5-1,1.6-1.6,2.8-1.6c0.8,0,1.6,0.3,2.1,0.9c0.5,0.7,0.8,1.7,0.7,2.6
						L56.4,82.9z"/>
					<path id="Shape_46_" class="st7" d="M65.7,79h-5.9c0,0.8,0.2,1.6,0.8,2.2c0.5,0.5,1.2,0.8,2,0.8c1,0,1.9-0.3,2.6-0.9v1.3
						c-0.9,0.6-1.9,0.9-2.9,0.8c-1.1,0.1-2.1-0.4-2.8-1.1c-0.7-0.9-1.1-2.1-1-3.2c0-1.2,0.3-2.3,1.1-3.2c0.7-0.8,1.7-1.3,2.8-1.2
						c1-0.1,1.9,0.3,2.6,1.1c0.6,0.8,1,1.9,0.9,3L65.7,79z M64.3,77.9c0-0.7-0.2-1.3-0.6-1.8c-0.4-0.4-1-0.7-1.5-0.6
						c-0.6,0-1.2,0.2-1.6,0.7c-0.5,0.5-0.7,1.1-0.8,1.8L64.3,77.9z"/>
					<path id="Shape_47_" class="st7" d="M72.1,75.8c-0.3-0.2-0.7-0.3-1-0.3c-0.6,0-1.1,0.3-1.4,0.8c-0.4,0.7-0.6,1.4-0.6,2.2v4.3
						h-1.3v-8.4h1.3v1.7h0c0.2-0.5,0.5-1,0.9-1.4c0.4-0.3,0.8-0.5,1.3-0.5c0.3,0,0.5,0,0.8,0.1L72.1,75.8z"/>
					<path id="Shape_48_" class="st7" d="M86.8,82.9h-1.6l-2-3.3c-0.2-0.3-0.3-0.5-0.5-0.8c-0.2-0.2-0.3-0.4-0.5-0.5
						C82,78.1,81.8,78,81.6,78c-0.2-0.1-0.5-0.1-0.7-0.1h-1.1v5h-1.4V71.1h3.5c0.5,0,1,0.1,1.4,0.2c0.4,0.1,0.8,0.3,1.1,0.6
						c0.3,0.3,0.6,0.6,0.8,1c0.2,0.4,0.3,0.9,0.3,1.4c0,0.4-0.1,0.8-0.2,1.1c-0.1,0.3-0.3,0.6-0.5,0.9c-0.2,0.3-0.5,0.5-0.8,0.7
						c-0.3,0.2-0.7,0.3-1.1,0.4v0c0.2,0.1,0.4,0.2,0.5,0.3c0.2,0.1,0.3,0.3,0.4,0.4c0.1,0.2,0.3,0.3,0.4,0.5
						c0.1,0.2,0.3,0.4,0.4,0.7L86.8,82.9z M79.7,72.4v4.3h1.9c0.3,0,0.6,0,1-0.2c0.3-0.1,0.5-0.2,0.8-0.4c0.2-0.2,0.4-0.4,0.5-0.7
						C84,75,84,74.7,84,74.4c0-0.6-0.2-1.1-0.6-1.5c-0.5-0.4-1.1-0.6-1.8-0.5H79.7z"/>
					<path id="Shape_49_" class="st7" d="M95,82.9h-1.3v-1.3h0c-0.5,1-1.5,1.6-2.6,1.5c-2,0-3-1.2-3-3.6v-5h1.3v4.8
						c0,1.8,0.7,2.7,2,2.7c0.6,0,1.2-0.3,1.6-0.7c0.4-0.5,0.7-1.2,0.6-1.9v-4.8H95L95,82.9z"/>
					<path id="Shape_50_" class="st7" d="M104.7,82.9h-1.3v-4.8c0-1.8-0.7-2.7-2-2.7c-0.6,0-1.3,0.3-1.7,0.8
						c-0.5,0.5-0.7,1.2-0.7,1.9v4.8h-1.3v-8.4h1.3v1.4h0c0.5-1,1.6-1.6,2.8-1.6c0.8,0,1.6,0.3,2.1,0.9c0.5,0.7,0.8,1.7,0.7,2.6
						L104.7,82.9z"/>
					<path id="Shape_51_" class="st7" d="M111.2,82.8c-0.4,0.2-0.8,0.3-1.3,0.3c-1.5,0-2.2-0.8-2.2-2.5v-5h-1.4v-1.1h1.4v-2.1
						L109,72v2.5h2.1v1.1H109v4.7c0,0.4,0.1,0.8,0.3,1.2c0.2,0.3,0.6,0.4,1,0.4c0.3,0,0.6-0.1,0.9-0.3L111.2,82.8z"/>
					<path id="Shape_52_" class="st7" d="M113.6,72.3c-0.2,0-0.5-0.1-0.6-0.2c-0.2-0.2-0.3-0.4-0.3-0.6c0-0.2,0.1-0.5,0.2-0.6
						c0.2-0.2,0.4-0.3,0.6-0.3c0.2,0,0.5,0.1,0.6,0.2c0.2,0.2,0.3,0.4,0.3,0.6c0,0.2-0.1,0.5-0.3,0.6
						C114.1,72.3,113.9,72.4,113.6,72.3z M114.3,82.9h-1.3v-8.4h1.3V82.9z"/>
					<path id="Shape_53_" class="st7" d="M128.9,82.9h-1.3v-4.8c0.1-0.7-0.1-1.4-0.4-2c-0.3-0.4-0.9-0.7-1.4-0.6
						c-0.6,0-1.1,0.3-1.5,0.8c-0.4,0.5-0.6,1.2-0.6,1.9v4.8h-1.3v-5c0-1.7-0.6-2.5-1.9-2.5c-0.6,0-1.1,0.3-1.5,0.7
						c-0.4,0.6-0.6,1.2-0.6,1.9v4.8H117v-8.4h1.3v1.3h0c0.5-1,1.5-1.6,2.6-1.5c1.1,0,2.1,0.7,2.4,1.7c0.5-1.1,1.6-1.8,2.8-1.7
						c1.8,0,2.8,1.1,2.8,3.4V82.9z"/>
					<path id="Shape_54_" class="st7" d="M138.2,79h-5.9c0,0.8,0.2,1.6,0.8,2.2c0.5,0.5,1.2,0.8,2,0.8c1,0,1.9-0.3,2.6-0.9v1.3
						c-0.9,0.6-1.9,0.9-2.9,0.8c-1.1,0.1-2.1-0.4-2.8-1.1c-0.7-0.9-1.1-2.1-1-3.2c0-1.2,0.3-2.3,1.1-3.2c0.7-0.8,1.7-1.3,2.8-1.2
						c1-0.1,1.9,0.3,2.6,1.1c0.6,0.8,1,1.9,0.9,3L138.2,79z M136.9,77.9c0-0.7-0.2-1.3-0.6-1.8c-0.4-0.4-1-0.7-1.5-0.6
						c-0.6,0-1.2,0.2-1.6,0.7c-0.5,0.5-0.7,1.1-0.8,1.8L136.9,77.9z"/>
				</g>
				<g id="Group_8_" transform="translate(61.600000, 168.000000)">
					<path id="Shape_55_" class="st7" d="M9.6,12.9H7.9L1.8,3.5C1.7,3.3,1.5,3,1.4,2.8h0c0.1,0.5,0.1,1.1,0.1,1.6v8.5H0.1V1.1h1.8
						l5.9,9.2C8,10.7,8.2,11,8.2,11.1h0C8.2,10.6,8.2,10,8.2,9.4V1.1h1.4L9.6,12.9z"/>
					<path id="Shape_56_" class="st7" d="M16,13.1c-1.1,0.1-2.2-0.4-3-1.2c-0.8-0.9-1.2-2-1.1-3.1c-0.1-1.2,0.3-2.4,1.2-3.3
						c0.8-0.8,2-1.2,3.1-1.2c1.1-0.1,2.2,0.4,2.9,1.2c0.7,0.9,1.1,2,1.1,3.2c0.1,1.2-0.3,2.3-1.1,3.2C18.2,12.7,17.1,13.1,16,13.1z
						 M16.1,5.4c-0.8,0-1.5,0.3-2,0.9c-0.5,0.7-0.8,1.6-0.8,2.4c0,0.9,0.2,1.7,0.8,2.4c0.5,0.6,1.3,0.9,2,0.9c0.8,0,1.5-0.3,2-0.8
						c0.5-0.7,0.8-1.5,0.7-2.4c0.1-0.9-0.2-1.7-0.7-2.4C17.6,5.7,16.8,5.4,16.1,5.4z"/>
					<path id="Shape_57_" class="st7" d="M29.5,12.9h-1.3v-1.4h0c-0.6,1.1-1.7,1.7-2.9,1.6c-1,0-1.9-0.4-2.5-1.1
						c-0.7-0.9-1-2-0.9-3.1c-0.1-1.2,0.3-2.4,1-3.3c0.7-0.8,1.7-1.3,2.8-1.3c1-0.1,2,0.5,2.5,1.4h0V0.4h1.3V12.9z M28.1,9.1V7.8
						c0-0.6-0.2-1.3-0.7-1.7c-0.4-0.5-1.1-0.7-1.7-0.7c-0.8,0-1.5,0.3-1.9,0.9c-0.5,0.7-0.8,1.6-0.7,2.5c0,0.8,0.2,1.6,0.7,2.3
						c0.4,0.6,1.1,0.9,1.8,0.8c0.7,0,1.4-0.3,1.8-0.8C27.9,10.6,28.2,9.8,28.1,9.1z"/>
					<path id="Shape_58_" class="st7" d="M38.9,9H33c0,0.8,0.2,1.6,0.8,2.2c0.5,0.5,1.2,0.8,2,0.8c1,0,1.9-0.3,2.6-0.9v1.3
						c-0.9,0.6-1.9,0.9-2.9,0.8c-1.1,0.1-2.1-0.4-2.8-1.1c-0.7-0.9-1.1-2.1-1-3.2c0-1.2,0.3-2.3,1.1-3.2c0.7-0.8,1.7-1.3,2.8-1.2
						c1-0.1,1.9,0.3,2.6,1.1c0.6,0.8,1,1.9,0.9,3L38.9,9z M37.6,7.9c0-0.7-0.2-1.3-0.6-1.8c-0.4-0.4-1-0.7-1.5-0.6
						c-0.6,0-1.2,0.2-1.6,0.7c-0.5,0.5-0.7,1.1-0.8,1.8L37.6,7.9z"/>
				</g>
			</g>
		</g>
	</g>
</g>
<g id="cleaned">
	<g id="Page-1_1_">
		<g id="_x33_-cluster-arch-node_1_">
			<g id="Shapes_1_">
				<rect id="Rectangle-path_23_" x="1.4" class="st0" width="236.2" height="209.4"/>
				<g id="Group_17_" transform="translate(19.600000, 29.400000)">
					<path id="Rectangle-path_22_" class="st0" d="M6,0h205.3c2.8,0,5,2.2,5,5v170c0,2.8-2.2,5-5,5H6c-2.8,0-5-2.2-5-5V5
						C1,2.2,3.2,0,6,0z"/>
					<path id="Rectangle-path_21_" class="st1" d="M6,0h205.3c2.8,0,5,2.2,5,5v170c0,2.8-2.2,5-5,5H6c-2.8,0-5-2.2-5-5V5
						C1,2.2,3.2,0,6,0z"/>
					<path id="Rectangle-path_20_" class="st2" d="M6,0h205.3c2.8,0,5,2.2,5,5v170c0,2.8-2.2,5-5,5H6c-2.8,0-5-2.2-5-5V5
						C1,2.2,3.2,0,6,0z"/>
				</g>
				<g id="Group_16_">
					<path id="Shape_117_" class="st3" d="M14.5,41.3c-1,0-2-0.5-2.6-1.3L2.1,27.9c-0.6-0.8-0.9-1.8-0.6-2.8L5,10
						c0.2-1,0.9-1.8,1.8-2.3l14.1-6.8c0.9-0.4,2-0.4,2.9,0l14.1,6.7c0.9,0.4,1.6,1.3,1.8,2.3l3.5,15.1c0.2,1,0,2-0.6,2.8L32.8,40
						c-0.6,0.8-1.6,1.2-2.6,1.3L14.5,41.3L14.5,41.3z"/>
					<path id="Shape_116_" class="st0" d="M22.3,1.3c0.4,0,0.8,0.1,1.1,0.3l14.1,6.7c0.7,0.4,1.3,1,1.5,1.8l3.5,15.1
						c0.2,0.8,0,1.7-0.5,2.3l-9.8,12.1c-0.5,0.6-1.3,1-2.1,1H14.5c-0.8,0-1.6-0.4-2.1-1L2.6,27.5c-0.5-0.6-0.7-1.5-0.5-2.3l3.5-15.1
						C5.8,9.3,6.3,8.6,7,8.3l14.1-6.7C21.5,1.4,21.9,1.3,22.3,1.3L22.3,1.3z M22.3,0c-0.6,0-1.2,0.1-1.7,0.4L6.5,7.1
						C5.4,7.7,4.6,8.7,4.3,9.8L0.8,25c-0.3,1.2,0,2.5,0.8,3.4l9.8,12.1c0.8,0.9,1.9,1.5,3.1,1.5h15.6c1.2,0,2.3-0.5,3.1-1.5L43,28.4
						c0.8-1,1.1-2.2,0.8-3.4L40.3,9.8c-0.3-1.2-1.1-2.2-2.2-2.7L24,0.4C23.5,0.1,22.9,0,22.3,0z"/>
					<path id="Shape_115_" class="st0" d="M36.5,24L36.5,24C36.4,24,36.4,24,36.5,24c-0.1,0-0.2-0.1-0.3-0.1c-0.2,0-0.4,0-0.5-0.1
						c-0.1,0-0.2,0-0.3,0h0c-0.5,0-1-0.1-1.5-0.3c-0.1-0.1-0.3-0.2-0.3-0.3c0,0,0,0,0-0.1l-0.4-0.1c0.2-1.3,0.1-2.6-0.2-3.9
						c-0.3-1.3-0.8-2.5-1.6-3.7l0.3-0.3v-0.1c0-0.2,0-0.3,0.1-0.4c0.4-0.3,0.8-0.6,1.3-0.9c0.1-0.1,0.2-0.1,0.3-0.1
						c0.2-0.1,0.3-0.2,0.5-0.3c0,0,0.1-0.1,0.1-0.1c0,0,0.1,0,0.1-0.1c0.4-0.3,0.5-0.9,0.2-1.3c-0.2-0.2-0.4-0.3-0.6-0.3
						c-0.2,0-0.4,0.1-0.6,0.2l-0.1,0.1c-0.1,0-0.1,0.1-0.1,0.1c-0.1,0.1-0.2,0.3-0.4,0.4c-0.1,0.1-0.1,0.1-0.2,0.2
						c-0.3,0.4-0.7,0.7-1.1,1c-0.1,0.1-0.2,0.1-0.3,0.1c-0.1,0-0.1,0-0.2,0h-0.1l-0.3,0.2c-0.4-0.4-0.7-0.7-1.1-1.1
						c-1.7-1.3-3.7-2.1-5.8-2.3l0-0.4l-0.1-0.1C23.1,10.2,23,10.1,23,10c0-0.5,0-1,0.1-1.5v0c0-0.1,0-0.2,0.1-0.3
						c0-0.2,0.1-0.3,0.1-0.5V7.4c0-0.4-0.2-0.7-0.5-0.8c-0.3-0.1-0.7-0.1-1,0.2c-0.2,0.2-0.3,0.4-0.3,0.6v0.2c0,0.2,0,0.4,0.1,0.5
						c0,0.1,0,0.2,0.1,0.3v0c0.1,0.5,0.1,1,0.1,1.5c0,0.1-0.1,0.3-0.2,0.4l-0.1,0.1l0,0.4c-0.5,0-1,0.1-1.5,0.2
						c-2.1,0.5-4,1.5-5.5,3.1l-0.3-0.2H14c-0.1,0-0.1,0-0.2,0c-0.1,0-0.2,0-0.3-0.1c-0.4-0.3-0.8-0.7-1.1-1
						c-0.1-0.1-0.1-0.1-0.2-0.2c-0.1-0.1-0.2-0.3-0.4-0.4c0,0-0.1-0.1-0.1-0.1c0,0-0.1,0-0.1-0.1c-0.2-0.1-0.4-0.2-0.6-0.2
						c-0.3,0-0.5,0.1-0.6,0.3c-0.3,0.4-0.2,1,0.2,1.3c0,0,0,0,0.1,0c0.1,0,0.1,0.1,0.1,0.1c0.2,0.1,0.3,0.2,0.5,0.3
						c0.1,0,0.2,0.1,0.3,0.1c0.4,0.2,0.9,0.5,1.3,0.9c0.1,0.1,0.2,0.3,0.1,0.4v0.1l0.3,0.3c-0.1,0.1-0.1,0.1-0.1,0.2
						c-1.4,2.2-1.9,4.8-1.6,7.4l-0.4,0.1c0,0,0,0,0,0.1c-0.1,0.1-0.2,0.2-0.3,0.3c-0.5,0.1-1,0.2-1.5,0.3h0c-0.1,0-0.2,0-0.3,0
						c-0.2,0-0.4,0-0.5,0.1c-0.1,0-0.1,0-0.2,0c0,0-0.1,0-0.1,0c-0.5,0.1-0.8,0.5-0.7,1c0.1,0.4,0.5,0.7,0.9,0.6c0.1,0,0.2,0,0.2,0
						c0,0,0.1,0,0.1,0c0.1,0,0.1,0,0.2,0c0.2,0,0.3-0.1,0.5-0.2c0.1,0,0.2-0.1,0.3-0.1h0c0.5-0.2,1-0.3,1.5-0.4h0.1
						c0.1,0,0.3,0.1,0.4,0.1c0,0,0,0,0.1,0l0.4-0.1c0.7,2.1,1.9,3.9,3.7,5.2c0.4,0.3,0.8,0.6,1.2,0.8l-0.2,0.4c0,0,0,0,0,0.1
						c0.1,0.1,0.1,0.3,0.1,0.4c-0.2,0.5-0.4,0.9-0.7,1.3v0c-0.1,0.1-0.1,0.1-0.2,0.2c-0.1,0.1-0.2,0.3-0.3,0.4c0,0-0.1,0.1-0.1,0.1
						c0,0,0,0,0,0.1c-0.1,0.2-0.1,0.4-0.1,0.7s0.2,0.4,0.4,0.5c0.1,0.1,0.2,0.1,0.3,0.1c0.4,0,0.7-0.2,0.8-0.5c0,0,0,0,0-0.1
						c0-0.1,0-0.1,0.1-0.1c0.1-0.2,0.1-0.3,0.2-0.5l0.1-0.3c0.1-0.5,0.3-1,0.6-1.4c0.1-0.1,0.2-0.2,0.4-0.3c0,0,0,0,0.1,0l0.2-0.4
						c1.2,0.5,2.6,0.7,3.9,0.7c0.8,0,1.6-0.1,2.4-0.3c0.5-0.1,1-0.3,1.5-0.4l0.2,0.3c0,0,0,0,0.1,0c0.2,0,0.3,0.1,0.4,0.3
						c0.2,0.5,0.4,0.9,0.6,1.4v0l0.1,0.3c0,0.2,0.1,0.3,0.2,0.5c0,0.1,0.1,0.1,0.1,0.1c0,0,0,0,0,0.1c0.2,0.3,0.5,0.5,0.8,0.5
						c0.1,0,0.2,0,0.3-0.1c0.2-0.1,0.4-0.3,0.4-0.5c0.1-0.2,0-0.5-0.1-0.7c0,0,0,0,0-0.1c0-0.1,0-0.1-0.1-0.1
						c-0.1-0.2-0.2-0.3-0.3-0.4c-0.1-0.1-0.1-0.1-0.2-0.2v0c-0.3-0.4-0.5-0.8-0.7-1.3c0-0.1,0-0.3,0-0.4c0,0,0,0,0-0.1L28,31
						c2.3-1.4,4-3.5,4.9-6.1l0.3,0.1c0,0,0,0,0.1,0c0.1-0.1,0.2-0.1,0.4-0.1h0.1c0.5,0.1,1,0.2,1.4,0.4h0c0.1,0,0.2,0.1,0.3,0.1
						c0.2,0.1,0.3,0.1,0.5,0.2c0.1,0,0.1,0,0.2,0c0,0,0.1,0,0.1,0c0.1,0,0.1,0,0.2,0c0.4,0,0.8-0.3,0.9-0.6
						C37.2,24.5,36.9,24.1,36.5,24L36.5,24z M23.6,22.7l-1.2,0.6l-1.2-0.6l-0.3-1.3l0.8-1.1H23l0.8,1.1L23.6,22.7L23.6,22.7z
						 M30.8,19.8c0.2,0.9,0.3,1.9,0.2,2.8l-4.3-1.2c-0.4-0.1-0.6-0.5-0.5-0.9c0-0.1,0.1-0.2,0.2-0.3l3.4-3
						C30.3,18,30.6,18.8,30.8,19.8z M28.4,15.5L24.8,18c-0.3,0.2-0.7,0.1-1-0.2c-0.1-0.1-0.1-0.2-0.1-0.3L23.4,13
						C25.3,13.2,27.1,14.1,28.4,15.5L28.4,15.5z M20.3,13.2c0.3-0.1,0.6-0.1,0.9-0.2L21,17.5c0,0.4-0.3,0.7-0.8,0.7
						c-0.1,0-0.2,0-0.3-0.1l-3.7-2.6C17.3,14.3,18.8,13.5,20.3,13.2z M14.9,17.1l3.3,3c0.3,0.3,0.3,0.7,0.1,1
						c-0.1,0.1-0.2,0.2-0.3,0.2l-4.3,1.3C13.4,20.7,13.9,18.8,14.9,17.1L14.9,17.1z M14.1,24.7l4.4-0.8c0.4,0,0.7,0.2,0.8,0.6
						c0,0.1,0,0.3,0,0.4l-1.7,4.1C16,28,14.8,26.5,14.1,24.7z M24.3,30.2c-0.6,0.1-1.3,0.2-2,0.2c-1,0-1.9-0.2-2.8-0.4l2.2-4
						c0.2-0.3,0.6-0.3,0.9-0.2c0.1,0.1,0.2,0.2,0.3,0.3l2.1,3.9C24.8,30.1,24.6,30.2,24.3,30.2z M29.7,26.4c-0.7,1.1-1.6,2-2.7,2.7
						l-1.8-4.2c-0.1-0.3,0.1-0.7,0.4-0.9c0.1-0.1,0.3-0.1,0.4-0.1l4.5,0.8C30.4,25.3,30.1,25.8,29.7,26.4z"/>
				</g>
				<g id="Group_15_" transform="translate(39.200000, 47.600000)">
					<rect id="Rectangle-path_19_" x="1.7" y="1.9" class="st0" width="174.6" height="118.7"/>
					<rect id="Rectangle-path_18_" x="1.7" y="1.9" class="st4" width="174.6" height="118.7"/>
					<path id="Shape_114_" class="st0" d="M176.2,2v118.3H1.9V2H176.2z M176.6,1.7H1.6v119h175V1.7z"/>
					<path id="Shape_113_" class="st5" d="M176.6,1.7v119H1.6V1.7H176.6z M176.9,1.3H1.2V121h175.7V1.3z"/>
				</g>
				<g id="Group_14_" transform="translate(47.600000, 56.000000)">
					<rect id="Rectangle-path_17_" x="0.2" y="0.3" class="st0" width="161" height="28"/>
					<rect id="Rectangle-path_16_" x="0.2" y="0.3" class="st6" width="161" height="28"/>
				</g>
				<g id="Group_13_" transform="translate(47.600000, 126.000000)">
					<rect id="Rectangle-path_15_" x="0.2" y="0.3" class="st0" width="161" height="28"/>
					<rect id="Rectangle-path_14_" x="0.2" y="0.3" class="st6" width="161" height="28"/>
				</g>
				<g id="Group_12_" transform="translate(47.600000, 91.000000)">
					<rect id="Rectangle-path_13_" x="0.2" y="0.3" class="st0" width="161" height="28"/>
					<rect id="Rectangle-path_12_" x="0.2" y="0.3" class="st6" width="161" height="28"/>
				</g>
			</g>
		</g>
	</g>
</g>
<g id="text">
	<g>
		<path d="M58.8,21.2h-3.5l-3.9-5.6c-0.1-0.1-0.2-0.4-0.3-0.7h0v6.3h-2.7V8.4h2.7v6.1h0c0.1-0.3,0.2-0.5,0.4-0.7l3.7-5.4h3.3
			l-4.6,6.1L58.8,21.2z"/>
		<path d="M68.4,21.2h-2.7v-1.4h0c-0.7,1.1-1.6,1.6-2.8,1.6c-2.1,0-3.2-1.3-3.2-3.9V12h2.7v5.3c0,1.4,0.5,2.1,1.6,2.1
			c0.5,0,1-0.2,1.3-0.6s0.5-0.9,0.5-1.5V12h2.7V21.2z"/>
		<path d="M73.6,20.1v1.1h-2.7V7.6h2.7v5.8h0c0.7-1.1,1.7-1.6,3-1.6c1.2,0,2.1,0.4,2.7,1.2c0.7,0.8,1,1.9,1,3.3
			c0,1.5-0.4,2.7-1.1,3.7s-1.8,1.4-3,1.4C75,21.4,74.2,21,73.6,20.1L73.6,20.1z M73.5,17.2c0,0.6,0.2,1.1,0.5,1.5s0.8,0.6,1.4,0.6
			c0.7,0,1.2-0.3,1.6-0.8c0.4-0.5,0.6-1.3,0.6-2.2c0-0.8-0.2-1.4-0.5-1.9c-0.3-0.4-0.8-0.7-1.5-0.7c-0.6,0-1.1,0.2-1.5,0.7
			c-0.4,0.4-0.6,1-0.6,1.7V17.2z"/>
		<path d="M90.3,17.4h-6c0.1,1.4,1,2.1,2.6,2.1c1,0,1.9-0.2,2.7-0.7v2c-0.8,0.5-1.9,0.7-3.3,0.7c-1.5,0-2.6-0.4-3.4-1.2
			c-0.8-0.8-1.2-2-1.2-3.4c0-1.5,0.4-2.7,1.3-3.6c0.9-0.9,1.9-1.4,3.3-1.4c1.3,0,2.3,0.4,3.1,1.2c0.7,0.8,1.1,1.9,1.1,3.2V17.4z
			 M87.8,15.7c0-1.4-0.6-2.1-1.7-2.1c-0.5,0-0.9,0.2-1.2,0.6s-0.6,0.9-0.7,1.5H87.8z"/>
		<path d="M97.9,14.5c-0.3-0.2-0.7-0.3-1.2-0.3c-0.6,0-1.1,0.2-1.4,0.7c-0.4,0.5-0.5,1.1-0.5,1.9v4.4h-2.7V12h2.7v1.7h0
			c0.4-1.3,1.2-1.9,2.4-1.9c0.3,0,0.6,0,0.7,0.1V14.5z"/>
		<path d="M108.1,21.2h-2.7v-5.1c0-1.5-0.5-2.2-1.6-2.2c-0.5,0-0.9,0.2-1.3,0.6c-0.3,0.4-0.5,0.9-0.5,1.5v5.2h-2.7V12h2.7v1.5h0
			c0.7-1.1,1.7-1.7,3-1.7c2,0,3.1,1.3,3.1,3.8V21.2z"/>
		<path d="M118.5,17.4h-6c0.1,1.4,1,2.1,2.6,2.1c1,0,1.9-0.2,2.7-0.7v2c-0.8,0.5-1.9,0.7-3.3,0.7c-1.5,0-2.6-0.4-3.4-1.2
			c-0.8-0.8-1.2-2-1.2-3.4c0-1.5,0.4-2.7,1.3-3.6c0.9-0.9,1.9-1.4,3.3-1.4c1.3,0,2.3,0.4,3.1,1.2c0.7,0.8,1.1,1.9,1.1,3.2V17.4z
			 M116,15.7c0-1.4-0.6-2.1-1.7-2.1c-0.5,0-0.9,0.2-1.2,0.6s-0.6,0.9-0.7,1.5H116z"/>
		<path d="M125.7,21.1c-0.4,0.2-1,0.3-1.8,0.3c-1.9,0-2.9-1-2.9-3.1V14h-1.5v-2h1.5v-2l2.7-0.8V12h2.1v2h-2.1v3.9
			c0,1,0.4,1.5,1.2,1.5c0.3,0,0.6-0.1,0.9-0.3V21.1z"/>
		<path d="M135.4,17.4h-6c0.1,1.4,1,2.1,2.6,2.1c1,0,1.9-0.2,2.7-0.7v2c-0.8,0.5-1.9,0.7-3.3,0.7c-1.5,0-2.6-0.4-3.4-1.2
			s-1.2-2-1.2-3.4c0-1.5,0.4-2.7,1.3-3.6c0.9-0.9,1.9-1.4,3.3-1.4c1.3,0,2.3,0.4,3.1,1.2c0.7,0.8,1.1,1.9,1.1,3.2V17.4z M132.9,15.7
			c0-1.4-0.6-2.1-1.7-2.1c-0.5,0-0.9,0.2-1.2,0.6s-0.6,0.9-0.7,1.5H132.9z"/>
		<path d="M136.9,18.7c0.9,0.6,1.8,0.8,2.7,0.8c1.1,0,1.7-0.3,1.7-0.9c0-0.4-0.5-0.8-1.4-1.1c-1.1-0.4-1.9-0.7-2.3-1.2
			c-0.4-0.4-0.6-1-0.6-1.8c0-0.9,0.4-1.6,1.1-2.1c0.7-0.5,1.7-0.8,2.9-0.8c0.8,0,1.7,0.1,2.4,0.4v2.1c-0.7-0.4-1.5-0.6-2.4-0.6
			c-0.4,0-0.8,0.1-1,0.2c-0.3,0.2-0.4,0.4-0.4,0.6c0,0.4,0.4,0.8,1.2,1c0.8,0.3,1.5,0.5,1.9,0.8s0.7,0.5,1,0.9s0.3,0.8,0.3,1.3
			c0,0.9-0.4,1.7-1.1,2.2c-0.8,0.5-1.8,0.8-3,0.8c-1,0-1.9-0.2-2.8-0.5V18.7z"/>
		<path d="M157.9,17.8h2.9v-2h-2.5v-1.9h2.5V12h-2.6v0.7h-0.8v3.1H153c-0.1,0.4-0.2,0.8-0.4,1.1h4.8v6.5h-1.9v-0.9h-2.4v0.9h-1.9
			v-3.9c-0.4,0.5-0.8,1.1-1.2,1.7c-0.1-0.9-0.3-1.7-0.5-2.5c0.7-1,1.3-2,1.6-3h-1.2V14h1.6c0.1-0.4,0.1-0.8,0.2-1.3h-2.1v-1.8h2.2
			l0-1.3h-1.6V7.8h7.2v3.1h0.8V10h1.5c-0.4-0.7-0.9-1.4-1.4-2l1.6-1c0.6,0.8,1.2,1.5,1.8,2.3l-1,0.7h1.5c0.6-0.9,1.2-1.9,1.8-3.1
			l1.9,1c-0.5,0.7-0.9,1.4-1.4,2.1h1.3V12H163v1.9h2.7v1.9H163v2h3.1v1.9H163v3.7h-2.2v-3.7h-2.9V17.8z M155.5,18.7h-2.4v2h2.4V18.7
			z M155.5,14v-1.3h-2c0,0.5-0.1,0.9-0.2,1.3H155.5z M155.5,9.5h-1.9c0,0.5,0,0.9,0,1.3h1.9V9.5z"/>
		<path d="M175.9,7c0.3,0.5,0.6,1.1,0.8,1.7h5.4v1.4h-5.5v0.9h4.9v1.3h-4.9v0.9h4.9v1.3h-4.9v0.9h5.8v1.5h-11.8v0.6h-2.2v-4.8
			c-0.3,0.3-0.6,0.6-0.9,0.8c-0.3-0.9-0.6-1.7-0.9-2.4c1.3-1,2.4-2.4,3.3-4l2.3,0.5c-0.2,0.4-0.4,0.7-0.6,1.1h2.8
			c-0.2-0.5-0.4-0.9-0.6-1.3L175.9,7z M173.7,17.2h2.2v0.8h7v1.6H178c1.4,0.8,3.1,1.3,5.1,1.7c-0.5,0.8-0.9,1.4-1.2,2
			c-2.6-0.7-4.6-1.8-6-3.2v3.4h-2.2v-3.3c-1.5,1.3-3.5,2.3-6,3.2c-0.3-0.6-0.7-1.2-1.1-1.9c2.1-0.5,3.8-1.2,5.1-1.9h-4.7v-1.6h6.8
			V17.2z M170.6,10.1v0.8h3.8v-0.9L170.6,10.1L170.6,10.1z M170.6,13.2h3.8v-0.9h-3.8V13.2z M170.6,15.4h3.8v-0.9h-3.8V15.4z"/>
	</g>
	<g>
		<path d="M107.2,76.1h-2.2l-3.9-4.4h0v4.4h-1.6V62.5h1.6v8.6h0l3.7-4.2h2.1l-4.2,4.4L107.2,76.1z"/>
		<path d="M116.2,76.1h-1.6v-1.4h0c-0.6,1.1-1.6,1.7-2.8,1.7c-2.2,0-3.3-1.3-3.3-3.9v-5.5h1.6v5.3c0,1.9,0.7,2.8,2.1,2.8
			c0.7,0,1.3-0.3,1.7-0.8c0.4-0.5,0.7-1.2,0.7-2v-5.3h1.6V76.1z"/>
		<path d="M120.7,74.8v1.3h-1.6V62.5h1.6v6h0c0.7-1.2,1.8-1.8,3.2-1.8c1.2,0,2.1,0.4,2.7,1.2c0.7,0.8,1,1.9,1,3.3
			c0,1.5-0.4,2.8-1.1,3.7c-0.8,0.9-1.8,1.4-3,1.4C122.3,76.3,121.4,75.8,120.7,74.8L120.7,74.8z M120.7,72.3c0,0.7,0.2,1.4,0.7,1.9
			c0.5,0.5,1.1,0.8,1.8,0.8c0.9,0,1.5-0.3,2-1s0.7-1.6,0.7-2.8c0-1-0.2-1.7-0.7-2.3c-0.5-0.6-1.1-0.9-1.9-0.9c-0.8,0-1.5,0.3-2,0.9
			s-0.8,1.3-0.8,2.2V72.3z"/>
		<path d="M137.4,71.9H131c0,1,0.3,1.7,0.8,2.3c0.5,0.5,1.2,0.8,2.1,0.8c1,0,2-0.3,2.8-1v1.5c-0.8,0.6-1.9,0.9-3.2,0.9
			c-1.3,0-2.4-0.4-3.1-1.3s-1.1-2-1.1-3.5c0-1.4,0.4-2.6,1.2-3.5s1.8-1.4,3-1.4c1.2,0,2.1,0.4,2.8,1.2c0.7,0.8,1,1.9,1,3.2V71.9z
			 M135.8,70.6c0-0.8-0.2-1.5-0.6-1.9c-0.4-0.5-0.9-0.7-1.6-0.7c-0.6,0-1.2,0.2-1.7,0.7c-0.5,0.5-0.8,1.1-0.9,1.9H135.8z"/>
		<path d="M139.6,76.1V62.5h1.6v13.6H139.6z"/>
		<path d="M151.6,71.9h-6.4c0,1,0.3,1.7,0.8,2.3c0.5,0.5,1.2,0.8,2.1,0.8c1,0,2-0.3,2.8-1v1.5c-0.8,0.6-1.9,0.9-3.2,0.9
			c-1.3,0-2.4-0.4-3.1-1.3s-1.1-2-1.1-3.5c0-1.4,0.4-2.6,1.2-3.5s1.8-1.4,3-1.4c1.2,0,2.1,0.4,2.8,1.2c0.7,0.8,1,1.9,1,3.2V71.9z
			 M150,70.6c0-0.8-0.2-1.5-0.6-1.9c-0.4-0.5-0.9-0.7-1.6-0.7c-0.6,0-1.2,0.2-1.7,0.7c-0.5,0.5-0.8,1.1-0.9,1.9H150z"/>
		<path d="M158.2,76c-0.4,0.2-0.8,0.3-1.4,0.3c-1.6,0-2.5-0.9-2.5-2.7v-5.3h-1.6v-1.3h1.6v-2.2l1.6-0.5v2.7h2.3v1.3h-2.3v5
			c0,0.6,0.1,1,0.3,1.3s0.5,0.4,1,0.4c0.4,0,0.7-0.1,1-0.3V76z"/>
	</g>
	<g>
		<path d="M91.1,111.1h-2.2l-3.9-4.4h0v4.4h-1.6V97.5h1.6v8.6h0l3.7-4.2h2.1l-4.2,4.4L91.1,111.1z"/>
		<path d="M100.1,111.1h-1.6v-1.4h0c-0.6,1.1-1.6,1.7-2.8,1.7c-2.2,0-3.3-1.3-3.3-3.9v-5.5H94v5.3c0,1.9,0.7,2.8,2.1,2.8
			c0.7,0,1.3-0.3,1.7-0.8c0.4-0.5,0.7-1.2,0.7-2v-5.3h1.6V111.1z"/>
		<path d="M104.6,109.8v1.3H103V97.5h1.6v6h0c0.7-1.2,1.8-1.8,3.2-1.8c1.2,0,2.1,0.4,2.7,1.2c0.7,0.8,1,1.9,1,3.3
			c0,1.5-0.4,2.8-1.1,3.7c-0.8,0.9-1.8,1.4-3,1.4C106.2,111.3,105.3,110.8,104.6,109.8L104.6,109.8z M104.6,107.3
			c0,0.7,0.2,1.4,0.7,1.9c0.5,0.5,1.1,0.8,1.8,0.8c0.9,0,1.5-0.3,2-1s0.7-1.6,0.7-2.8c0-1-0.2-1.7-0.7-2.3c-0.5-0.6-1.1-0.9-1.9-0.9
			c-0.8,0-1.5,0.3-2,0.9c-0.5,0.6-0.8,1.3-0.8,2.2V107.3z"/>
		<path d="M121.3,106.9h-6.4c0,1,0.3,1.7,0.8,2.3s1.2,0.8,2.1,0.8c1,0,2-0.3,2.8-1v1.5c-0.8,0.6-1.9,0.9-3.2,0.9
			c-1.3,0-2.4-0.4-3.1-1.3c-0.7-0.8-1.1-2-1.1-3.5c0-1.4,0.4-2.6,1.2-3.5c0.8-0.9,1.8-1.4,3-1.4c1.2,0,2.1,0.4,2.8,1.2
			c0.7,0.8,1,1.9,1,3.2V106.9z M119.7,105.6c0-0.8-0.2-1.5-0.6-1.9s-0.9-0.7-1.6-0.7c-0.6,0-1.2,0.2-1.7,0.7
			c-0.5,0.5-0.8,1.1-0.9,1.9H119.7z"/>
		<path d="M128.2,106.6h-4.9v-1.3h4.9V106.6z"/>
		<path d="M132.5,109.8v5.5h-1.6v-13.4h1.6v1.6h0c0.7-1.2,1.8-1.8,3.2-1.8c1.2,0,2.1,0.4,2.8,1.2c0.7,0.8,1,1.9,1,3.3
			c0,1.5-0.4,2.8-1.1,3.7c-0.8,0.9-1.8,1.4-3.1,1.4C134.1,111.3,133.2,110.8,132.5,109.8L132.5,109.8z M132.5,107.3
			c0,0.7,0.2,1.4,0.7,1.9c0.5,0.5,1.1,0.8,1.8,0.8c0.9,0,1.5-0.3,2-1c0.5-0.7,0.7-1.6,0.7-2.8c0-1-0.2-1.8-0.7-2.3
			c-0.5-0.6-1.1-0.8-1.9-0.8c-0.8,0-1.5,0.3-2,0.9c-0.5,0.6-0.8,1.3-0.8,2.2V107.3z"/>
		<path d="M146.6,103.5c-0.3-0.2-0.6-0.3-1.1-0.3c-0.6,0-1.2,0.3-1.6,0.9c-0.4,0.6-0.6,1.4-0.6,2.3v4.6h-1.6v-9.2h1.6v1.9h0
			c0.5-1.4,1.3-2,2.4-2c0.4,0,0.7,0,0.9,0.1V103.5z"/>
		<path d="M147.4,106.6c0-1.5,0.4-2.7,1.3-3.6c0.8-0.9,2-1.3,3.4-1.3c1.4,0,2.5,0.4,3.2,1.3c0.8,0.8,1.2,2,1.2,3.5
			c0,1.4-0.4,2.6-1.3,3.5c-0.8,0.9-2,1.3-3.4,1.3c-1.4,0-2.5-0.4-3.3-1.3C147.8,109.1,147.4,108,147.4,106.6z M149,106.5
			c0,1.1,0.3,1.9,0.8,2.5c0.5,0.6,1.3,0.9,2.2,0.9c0.9,0,1.6-0.3,2.1-0.9c0.5-0.6,0.7-1.4,0.7-2.6c0-1.1-0.2-2-0.7-2.6
			c-0.5-0.6-1.2-0.9-2.1-0.9c-0.9,0-1.6,0.3-2.2,0.9S149,105.5,149,106.5z"/>
		<path d="M165.5,101.9l-3.1,4.6l3,4.6h-1.9l-1.8-2.9c-0.1-0.2-0.2-0.4-0.4-0.7h0c0,0-0.1,0.3-0.4,0.7l-1.8,2.9h-1.9l3.1-4.5l-3-4.7
			h1.9l1.7,3.1c0.1,0.2,0.2,0.4,0.4,0.7h0l2.2-3.8H165.5z"/>
		<path d="M174.6,101.9l-4.2,10.6c-0.8,2-1.9,2.9-3.3,2.9c-0.4,0-0.8,0-1-0.1v-1.4c0.3,0.1,0.6,0.2,0.9,0.2c0.7,0,1.3-0.4,1.7-1.3
			l0.7-1.7l-3.6-9.2h1.8l2.4,6.9l0.2,0.8h0c0-0.2,0.1-0.4,0.2-0.7l2.5-6.9H174.6z"/>
	</g>
	<g>
		<path d="M95.2,137.5c-0.1,0.1-0.2,0.2-0.3,0.3c2.1,2,4.7,3.4,7.6,4.2c-0.4,0.6-0.6,1-0.8,1.4c-0.7-0.3-1.4-0.6-2.1-0.9v5.6h-1.3
			v-0.7h-8.1v0.7h-1.3v-5.4c-0.7,0.4-1.5,0.7-2.2,1c-0.2-0.4-0.4-0.8-0.7-1.2c3.4-1.5,6.1-3.2,7.9-5.3L95.2,137.5z M86.7,133.7h7.1
			c-0.2-0.4-0.5-0.9-0.8-1.4l1.3-0.6c0.4,0.6,0.8,1.3,1.2,2h6.3v2.8h-1.3v-1.6H88.1v1.7h-1.3V133.7z M92,135.7l0.8,1.1
			c-2,1.3-3.7,2.2-5.1,2.9c-0.2-0.4-0.5-0.7-0.8-1.1C88.8,137.6,90.5,136.7,92,135.7z M94.2,138.7c-1.4,1.3-2.8,2.5-4.4,3.5h9.2
			C97,141.2,95.4,140,94.2,138.7z M98.3,143.4h-8.1v2.8h8.1V143.4z M96.4,135.7c1.7,0.8,3.4,1.6,5.1,2.6l-0.8,1.2
			c-1.4-0.8-3.1-1.8-5.1-2.8L96.4,135.7z"/>
		<path d="M103.6,138.7h6.7c0.2-0.4,0.3-0.9,0.3-1.4l1.2,0.2c-0.1,0.5-0.2,0.9-0.3,1.3h3.6c-0.4-0.3-0.9-0.6-1.4-0.9l0.7-0.7
			c0.7,0.4,1.4,0.9,2,1.3l-0.4,0.4h3.1v1.1h-6.4c1.3,1.3,3.5,1.8,6.8,1.8c-0.3,0.5-0.5,0.9-0.7,1.3c-0.3,0-0.6,0-0.8-0.1v5.1h-1.2
			V147h-3.6v0.9h-1.2v-5.1h5.3c-3.2-0.4-5.2-1.4-6.1-2.9H111c-0.6,1.3-2.6,2.3-6,2.9h5.3v5.1h-1.2V147h-3.5v0.9h-1.2v-5
			c-0.3,0.1-0.6,0.1-0.9,0.2c-0.2-0.3-0.4-0.7-0.6-1.2c3.7-0.5,5.9-1.1,6.7-2h-6V138.7z M104.5,132.7h5.8v4.8h-1.2V137h-3.5v0.7
			h-1.2V132.7z M109.1,133.7h-3.5v2.3h3.5V133.7z M109.1,143.8h-3.5v2.2h3.5V143.8z M112.1,132.7h5.9v4.9h-1.2V137h-3.6v0.5h-1.2
			V132.7z M116.8,133.7h-3.6v2.3h3.6V133.7z M116.8,143.8h-3.6v2.2h3.6V143.8z"/>
		<path d="M127.1,146.3l4.9,0.1l4.6-0.2c-0.2,0.5-0.4,0.9-0.5,1.3l-4.9,0l-4.3-0.1c-1.8,0-3.1-0.7-4-1.9c-0.7,0.6-1.4,1.3-2.1,2.2
			l-0.7-1.4c0,0,0.8-0.7,2.2-1.9v-5.7h-2.1v-1.2h3.5v7.1C124.4,145.7,125.6,146.2,127.1,146.3z M121.9,131.9c0.9,1,1.7,2.1,2.5,3.2
			l-1.2,0.8c-0.7-1.1-1.5-2.2-2.4-3.3L121.9,131.9z M131.2,140l1-0.7c1.3,1.6,2.4,3.2,3.3,4.7l-1.2,0.8c-0.2-0.4-0.5-0.8-0.8-1.3
			c-3.1,0.2-5.4,0.4-6.8,0.6c-0.4,0.1-0.8,0.2-1.2,0.3l-0.6-1.2c0.4-0.3,0.8-0.7,1.1-1.1c0.8-1.1,1.5-2.5,2.2-4h-3.5V137h11.4v1.3
			H130c-1,1.8-1.9,3.3-2.8,4.6c1.7-0.1,3.6-0.2,5.7-0.4C132.4,141.7,131.8,140.9,131.2,140z M126,132.7h9.3v1.3H126V132.7z"/>
		<path d="M137,141.7c1.7-1.4,3.3-3.4,4.7-5.9l1.2,0.7c-0.6,1-1.2,1.9-1.8,2.8v8.8h-1.4v-7.1c-0.7,0.8-1.4,1.4-2.1,2.1
			C137.4,142.6,137.2,142.1,137,141.7z M137.1,136.4c1.8-1.4,3.2-2.9,4.3-4.7l1.2,0.7c-1.3,2-2.9,3.7-4.8,5.3
			C137.6,137.3,137.4,136.9,137.1,136.4z M143,138h10.5v1.2h-3.2v6.5c0,1.4-0.7,2.1-2.1,2.1c-0.9,0-1.9,0-2.8,0
			c-0.1-0.4-0.1-0.9-0.2-1.5c0.9,0.1,1.7,0.1,2.6,0.1c0.8,0,1.1-0.4,1.1-1.1v-6H143V138z M144,133h8.6v1.2H144V133z"/>
		<path d="M154.7,133.3h5.7v13.5h-1.3v-1.4H156v1.6h-1.3V133.3z M159.1,134.5H156v4.2h3.1V134.5z M156,144.2h3.1v-4.3H156V144.2z
			 M161,135.4h5.9v-3.7h1.3v3.7h2.4v1.2h-2.4v8.9c0,1.5-0.7,2.2-2.1,2.2c-0.6,0-1.6,0-2.8-0.1c-0.1-0.4-0.1-0.9-0.3-1.4
			c1.2,0.1,2.1,0.1,2.7,0.1c0.8,0,1.2-0.4,1.2-1.2v-8.7H161V135.4z M162.8,138.2c0.9,1.6,1.6,2.9,2,3.9c-0.3,0.1-0.7,0.4-1.3,0.7
			c-0.4-1.1-1.1-2.4-1.9-3.9L162.8,138.2z"/>
	</g>
	<g>
		<path d="M111.5,177.6h4.6v-2.2h1.3v2.2h4.4v-2.2h1.3v2.2h4.6v1.2h-4.6v1.9h-1.3v-1.9h-4.4v1.8h-1.3v-1.8h-4.6V177.6z M112.3,181.7
			H126c-0.1,2.3-0.2,4.1-0.3,5.3c-0.1,1.6-1.1,2.4-2.9,2.4c-1.1,0-1.9,0-2.6-0.1c-0.1-0.5-0.2-1-0.3-1.4c1,0.2,1.9,0.2,2.7,0.2
			c1.1,0,1.6-0.5,1.7-1.6c0.1-0.8,0.2-2.1,0.2-3.7H118v8.8h-1.4v-8.8h-4.3V181.7z"/>
		<path d="M131.8,188c-0.8,1.5-1.6,2.7-2.2,3.6l-1.1-0.8c0.7-1,1.5-2.1,2.2-3.4L131.8,188z M130.5,180.5h5.2v-5.2h1.4v2h7.4v1.2
			h-7.4v2h5.9v6.3h-1.4v-0.7h-9.8v0.7h-1.4V180.5z M141.6,181.7h-9.8v3.3h9.8V181.7z M134.5,187.3c0.5,1.1,1,2.3,1.3,3.5l-1.3,0.5
			c-0.3-1.2-0.7-2.4-1.2-3.6L134.5,187.3z M138.5,187.2c0.5,1.1,1,2.2,1.4,3.4l-1.3,0.5c-0.3-1-0.8-2.2-1.3-3.5L138.5,187.2z
			 M142.5,187.2c0.9,1.3,1.6,2.5,2.1,3.6l-1.3,0.7c-0.6-1.1-1.2-2.4-2-3.7L142.5,187.2z"/>
	</g>
</g>
</svg>
