<svg id="Layer_1" data-name="Layer 1" xmlns="http://www.w3.org/2000/svg" xmlns:xlink="http://www.w3.org/1999/xlink" viewBox="0 0 250 432.08"><defs><style>.cls-1{fill:#fff;}.cls-2{fill:#83b9f9;}.cls-2,.cls-5{opacity:0.15;}.cls-2,.cls-4,.cls-5{isolation:isolate;}.cls-3{fill:#0078d4;}.cls-4{fill:#0072c6;opacity:0.35;}.cls-5{fill:#3c3c41;}.cls-6{fill:url(#linear-gradient);}.cls-7{fill:#767676;}.cls-8{fill:#f2f2f2;}.cls-9{fill:#8e714e;}.cls-10{fill:#442d22;}.cls-11{fill:#a6a385;}.cls-12{fill:#499d4a;}.cls-13{fill:#58aa50;}.cls-14{fill:#1e1e1e;}</style><linearGradient id="linear-gradient" x1="-176.16" y1="606.38" x2="-176.16" y2="607.38" gradientTransform="matrix(53.92, 0, 0, -31.86, 9624.9, 19539.8)" gradientUnits="userSpaceOnUse"><stop offset="0" stop-color="#32bedd"/><stop offset="0.18" stop-color="#32caea"/><stop offset="0.41" stop-color="#32d2f2"/><stop offset="0.78" stop-color="#32d4f5"/></linearGradient></defs><g id="Page-1"><g id="_3-diagram-pod-with-website-database" data-name="3-diagram-pod-with-website-database"><g id="Shapes"><rect id="Rectangle-path" class="cls-1" width="250" height="432.08"/><g id="Group"><rect id="Rectangle-path-2" data-name="Rectangle-path" class="cls-1" x="12.24" y="44.99" width="229.41" height="362.08"/><rect id="Rectangle-path-3" data-name="Rectangle-path" class="cls-2" x="12.24" y="44.99" width="229.41" height="362.08"/><path id="Shape" class="cls-1" d="M241.47,45.17V406.88h-229V45.17Zm.37-.36H12.07V407.24H241.84V44.8Z"/><path id="Shape-2" data-name="Shape" class="cls-3" d="M241.84,44.8V407.23H12.07V44.8Zm.36-.36H11.71V407.59H242.2V44.45Z"/></g><g id="Group-2" data-name="Group"><rect id="Rectangle-path-4" data-name="Rectangle-path" class="cls-1" x="25.79" y="59.26" width="202.31" height="333.54"/><rect id="Rectangle-path-5" data-name="Rectangle-path" class="cls-4" x="25.79" y="59.26" width="202.31" height="333.54"/></g><rect id="Rectangle-path-6" data-name="Rectangle-path" class="cls-1" x="40.25" y="95.39" width="173.41" height="282.96"/><g id="Group-3" data-name="Group"><rect id="Rectangle-path-7" data-name="Rectangle-path" class="cls-1" x="46.75" y="132.67" width="160.4" height="101.16"/><rect id="Rectangle-path-8" data-name="Rectangle-path" class="cls-5" x="46.75" y="132.67" width="160.4" height="101.16"/></g><g id="Group-4" data-name="Group"><path id="Shape-3" data-name="Shape" class="cls-6" d="M100,186.07H153.9v30.06a1.81,1.81,0,0,1-1.8,1.8H101.79a1.8,1.8,0,0,1-1.8-1.8Z"/><path id="Shape-4" data-name="Shape" class="cls-7" d="M101.79,174.58H152.1a1.81,1.81,0,0,1,1.8,1.81v9.68H100V176.3A1.8,1.8,0,0,1,101.79,174.58Z"/><circle id="Oval" class="cls-8" cx="139.06" cy="200.01" r="4.38"/><circle id="Oval-2" data-name="Oval" class="cls-8" cx="127.14" cy="200.01" r="4.38"/><circle id="Oval-3" data-name="Oval" class="cls-8" cx="114.83" cy="200.01" r="4.38"/><rect id="Rectangle-path-9" data-name="Rectangle-path" class="cls-8" x="107.25" y="178.01" width="39.42" height="4.62" rx="0.61"/></g><g id="Group-5" data-name="Group"><rect id="Rectangle-path-10" data-name="Rectangle-path" class="cls-1" x="46.75" y="269.96" width="160.4" height="101.16"/><rect id="Rectangle-path-11" data-name="Rectangle-path" class="cls-5" x="46.75" y="269.96" width="160.4" height="101.16"/></g><g id="Group-6" data-name="Group"><path id="Shape-5" data-name="Shape" class="cls-9" d="M177.36,326.68c-.11,0-.22.26-.22.37v4.6s0,.13.11.13H179a4.39,4.39,0,0,0,1.72-.26,2.22,2.22,0,0,0,1.11-2.11c0-2-1.44-2.82-3.55-2.82a4.41,4.41,0,0,0-.89,0Zm5.43,9.4c0-2.08-1.55-3.23-4.34-3.23-.4,0-.81,0-1.21,0,0,0-.14,0-.14.13v4.79a1.59,1.59,0,0,0,.7,1.15,4.91,4.91,0,0,0,1.82.24,2.9,2.9,0,0,0,3.13-3.09Zm-9.73-10.56h6.8c1.82,0,4.33.66,4.33,3.4a3.33,3.33,0,0,1-2.18,2.89v.08a3.77,3.77,0,0,1,3.32,3.6,4.44,4.44,0,0,1-3.09,4.11,10.46,10.46,0,0,1-3.92.65c-1.08,0-4-.13-5.56-.09-.17,0,.14-.82.29-.94a4.35,4.35,0,0,0,1.08-.17c.57-.15.62-.32.71-1.19s0-3.34,0-5.19v-5.11c0-.78-.24-.87-.71-1l-1.44-.2c-.12-.12.24-.83.37-.91Zm-12.15,13.09a4.23,4.23,0,0,0,2.38.57,4.67,4.67,0,0,0,3.37-1.2,6.35,6.35,0,0,0,1.89-5.05,6,6,0,0,0-2.76-5.46,7.39,7.39,0,0,0-3.94-.88,2.91,2.91,0,0,0-1.17.16.63.63,0,0,0-.22.33v10.56a1.41,1.41,0,0,0,.46,1Zm-4.77-13.09h7.44a7.78,7.78,0,0,1,5.15,1.65,6.79,6.79,0,0,1,2.32,5.39,7,7,0,0,1-2.89,6.05,9.74,9.74,0,0,1-6,1.71H156.2c-.1-.19.17-.93.33-1a3.21,3.21,0,0,0,1-.18c.44-.18.52-.41.58-1.19V327.76c0-.9-.37-.92-1-1a11.9,11.9,0,0,0-1.33-.22c-.09-.14.29-.79.41-.92Z"/><path id="Shape-6" data-name="Shape" class="cls-10" d="M130.66,339.44a4.58,4.58,0,0,1-1.35-.36.57.57,0,0,1-.18-.34v-4.25a4.88,4.88,0,0,0-.68-2.89,2.88,2.88,0,0,0-2.44-1.25,5.59,5.59,0,0,0-3.18,1.57s-.19.16-.17-.07,0-.69,0-1a.59.59,0,0,0-.15-.45,14.08,14.08,0,0,1-3.26.84c-.51.1-.64.6-.12.77a4.22,4.22,0,0,1,1.25.55.65.65,0,0,1,.18.58v5.33c0,.52-.17.71-.55.79s-.52.12-.88.16a1.23,1.23,0,0,0,0,1h4.93a1.45,1.45,0,0,0,.1-1,3.55,3.55,0,0,1-1-.14c-.37-.09-.47-.28-.5-.71V333.5a.94.94,0,0,1,.26-.78,3.17,3.17,0,0,1,2-.73,2.16,2.16,0,0,1,1.44.5,2,2,0,0,1,.67,1.31c.11.91,0,2.7,0,4.34,0,.83,0,1.05-.39,1.15a4.62,4.62,0,0,1-1,.19,1.27,1.27,0,0,0,0,.94h4.87a1.39,1.39,0,0,0,0-.9Zm5.79-8.05c-1.12,0-1.83.86-1.83,2.21s.63,2.89,2.35,2.89a1.63,1.63,0,0,0,1.09-.42,2.76,2.76,0,0,0,.67-1.94c0-1.75-.85-2.8-2.28-2.8Zm-.15,9.3a1.92,1.92,0,0,0-.91.23c-.88.58-1.29,1.12-1.29,1.78a1.84,1.84,0,0,0,.74,1.45,3.72,3.72,0,0,0,2.53.78c2.14,0,3.09-1.16,3.09-2.29a1.62,1.62,0,0,0-1.23-1.63,8.54,8.54,0,0,0-2.89-.37Zm.15,5.48a4.75,4.75,0,0,1-3-.88,2.89,2.89,0,0,1-1.11-2.08,1.66,1.66,0,0,1,.42-1.06,11.24,11.24,0,0,1,1.94-1.56v-.08a.14.14,0,0,0-.09-.11,2,2,0,0,1-1.44-1.32.46.46,0,0,1,.13-.38l.59-.38a10,10,0,0,0,1-.63.15.15,0,0,0,0-.13.12.12,0,0,0-.09-.1,3.08,3.08,0,0,1-2.21-3.23,3.14,3.14,0,0,1,1.34-2.64,6.25,6.25,0,0,1,3-1,6.56,6.56,0,0,1,2.31.5,3.91,3.91,0,0,0,1.44.22,1.83,1.83,0,0,0,1.45-.55,1.06,1.06,0,0,1,.09.42,1.58,1.58,0,0,1-.28,1,1.19,1.19,0,0,1-.92.4h-.1a3.31,3.31,0,0,1-.55-.08h-.09v.14a7.12,7.12,0,0,1,.13.91,3.42,3.42,0,0,1-1.44,3,5,5,0,0,1-2.48.94h-.59a.72.72,0,0,0-.58.61c0,.34.19.69,1.09.76H137a19.51,19.51,0,0,1,3.4.42,2.38,2.38,0,0,1,1.57,2.26,4.58,4.58,0,0,1-3,3.91,6.67,6.67,0,0,1-2.79.61Zm12-14.67a2,2,0,0,0-1.14.32,3.24,3.24,0,0,0-1.25,3c0,2.76,1.45,4.69,3.37,4.69a2.12,2.12,0,0,0,1.45-.5,3.73,3.73,0,0,0,.92-2.89c0-2.75-1.44-4.57-3.37-4.57Zm.38,9a4.64,4.64,0,0,1-4.86-5.09,4.55,4.55,0,0,1,2.08-4,6.44,6.44,0,0,1,3.22-1,4.58,4.58,0,0,1,3.43,1.35,4.52,4.52,0,0,1,1.28,3.45,4.9,4.9,0,0,1-2.24,4.34,5.79,5.79,0,0,1-2.89.91Zm-37.45-9a1.94,1.94,0,0,0-1.14.32,3.21,3.21,0,0,0-1.24,3c0,2.76,1.44,4.69,3.37,4.69a2,2,0,0,0,1.44-.5,3.7,3.7,0,0,0,.94-2.89c0-2.75-1.36-4.57-3.37-4.57Zm.38,9a4.71,4.71,0,0,1-3.57-1.45,4.65,4.65,0,0,1-1.24-3.64,4.51,4.51,0,0,1,2.08-4,6.44,6.44,0,0,1,3.22-1,4.52,4.52,0,0,1,4.6,4.8,4.88,4.88,0,0,1-2.22,4.34,5.6,5.6,0,0,1-2.89.91Zm-24.06-.21a1,1,0,0,1,0-.49.58.58,0,0,1,0-.32,7.12,7.12,0,0,0,.92-.18c.42-.1.6-.34.61-.87v-5.32a.66.66,0,0,0-.23-.59,4.87,4.87,0,0,0-1.26-.55.29.29,0,0,1-.3-.29c0-.13.13-.27.4-.32a14.92,14.92,0,0,0,3.22-.82.54.54,0,0,1,.11.35v.23a4.82,4.82,0,0,0,0,.76.16.16,0,0,0,.16.16h.13a5.91,5.91,0,0,1,3.19-1.44,2.7,2.7,0,0,1,2.44,1.44.19.19,0,0,0,.16.09h.12a6.32,6.32,0,0,1,3.3-1.52c2,0,3.13,1.45,3.13,3.92v4.3a.64.64,0,0,0,.37.51,4.28,4.28,0,0,0,1.22.3,1.69,1.69,0,0,1-.13.8h-4.76a2.15,2.15,0,0,1,0-.8,5.51,5.51,0,0,0,.8-.2c.42-.11.53-.3.55-.85s.08-3.82,0-4.64a2.06,2.06,0,0,0-2.14-1.82,3.78,3.78,0,0,0-2.16.81.34.34,0,0,0-.08.21,9.22,9.22,0,0,1,.08,1.74v3.94a.61.61,0,0,0,.51.65h.32l.68.16a1.42,1.42,0,0,1,0,.58.43.43,0,0,1-.09.22h-4.8a1.48,1.48,0,0,1,0-.42.65.65,0,0,1,.09-.38h.29l.68-.13c.34-.1.47-.29.5-.76a38.6,38.6,0,0,0,0-4.81,2,2,0,0,0-2.06-1.84,3.87,3.87,0,0,0-2.14.82.71.71,0,0,0-.19.48v5.48a.65.65,0,0,0,.59.65,2.67,2.67,0,0,0,.48.08h.39a1.81,1.81,0,0,1-.07.8H87.86Z"/><g id="Shape-7" data-name="Shape"><path class="cls-1" d="M76.59,345.38l-.87-.29s.1-4.41-1.44-4.73c-1.06-1.21.17-51.78,4-.16A3.08,3.08,0,0,0,76.69,342,16.9,16.9,0,0,0,76.59,345.38Z"/><path class="cls-11" d="M76.59,345.38l-.87-.29s.1-4.41-1.44-4.73c-1.06-1.21.17-51.78,4-.16A3.08,3.08,0,0,0,76.69,342,16.9,16.9,0,0,0,76.59,345.38Z"/><path class="cls-1" d="M77.08,341a15.27,15.27,0,0,0,5.78-15.3c-1.7-7.52-5.78-10-6.17-10.93a11.08,11.08,0,0,1-.94-1.85l.32,20.9s-.65,6.4,1,7.22"/><path class="cls-12" d="M77.08,341a15.27,15.27,0,0,0,5.78-15.3c-1.7-7.52-5.78-10-6.17-10.93a11.08,11.08,0,0,1-.94-1.85l.32,20.9s-.65,6.4,1,7.22"/><path class="cls-1" d="M75.3,341.37s-7.09-4.84-6.66-13.34A17.9,17.9,0,0,1,75,314.57a2,2,0,0,0,.7-1.61c.45.94.36,14.16.42,15.72.19,6-.34,11.57-.83,12.72Z"/><path class="cls-13" d="M75.3,341.37s-7.09-4.84-6.66-13.34A17.9,17.9,0,0,1,75,314.57a2,2,0,0,0,.7-1.61c.45.94.36,14.16.42,15.72.19,6-.34,11.57-.83,12.72Z"/></g></g></g></g></g><path class="cls-14" d="M24.11,33.69H20.44l-4.13-5.95A5,5,0,0,1,16,27h0v6.66H13V20.07h2.9v6.44h0a6,6,0,0,1,.39-.73l3.9-5.71h3.47l-4.87,6.5Z"/><path class="cls-14" d="M34.29,33.69H31.47V32.2h0a3.36,3.36,0,0,1-3,1.73q-3.39,0-3.39-4.1V24h2.84v5.6c0,1.45.57,2.18,1.71,2.18a1.7,1.7,0,0,0,1.36-.6,2.42,2.42,0,0,0,.51-1.62V24h2.82Z"/><path class="cls-14" d="M39.7,32.52v1.17H36.86V19.3H39.7v6.15h0A3.84,3.84,0,0,1,45.8,25a5.52,5.52,0,0,1,1,3.55,6,6,0,0,1-1.2,3.89,3.88,3.88,0,0,1-3.17,1.48,3,3,0,0,1-2.73-1.41Zm0-3a2.37,2.37,0,0,0,.57,1.61,1.85,1.85,0,0,0,1.45.65,1.94,1.94,0,0,0,1.66-.83,4,4,0,0,0,.59-2.34,3.15,3.15,0,0,0-.54-2,1.82,1.82,0,0,0-1.54-.71,2,2,0,0,0-1.57.71,2.72,2.72,0,0,0-.62,1.83Z"/><path class="cls-14" d="M57.48,29.63h-6.4c.1,1.5,1,2.26,2.73,2.26a5.2,5.2,0,0,0,2.84-.79v2.08a7.07,7.07,0,0,1-3.48.75,4.85,4.85,0,0,1-3.61-1.31A5,5,0,0,1,48.27,29a5.29,5.29,0,0,1,1.37-3.78,4.56,4.56,0,0,1,3.45-1.46A4.21,4.21,0,0,1,56.32,25a4.89,4.89,0,0,1,1.16,3.44Zm-2.64-1.78c0-1.45-.59-2.18-1.77-2.18a1.71,1.71,0,0,0-1.29.6,2.78,2.78,0,0,0-.7,1.58Z"/><path class="cls-14" d="M65.52,26.54a2.44,2.44,0,0,0-1.25-.3,1.85,1.85,0,0,0-1.54.74,3.31,3.31,0,0,0-.56,2v4.68H59.33V24h2.84V25.8h0a2.59,2.59,0,0,1,2.56-2,1.88,1.88,0,0,1,.76.12Z"/><path class="cls-14" d="M76.24,33.69H73.42V28.27c0-1.57-.57-2.36-1.7-2.36a1.67,1.67,0,0,0-1.34.63,2.37,2.37,0,0,0-.54,1.6v5.55H67V24h2.84v1.54h0A3.42,3.42,0,0,1,73,23.73q3.24,0,3.24,4Z"/><path class="cls-14" d="M87.3,29.63H80.9c.1,1.5,1,2.26,2.72,2.26a5.2,5.2,0,0,0,2.84-.79v2.08a7,7,0,0,1-3.48.75,4.85,4.85,0,0,1-3.61-1.31A5,5,0,0,1,78.08,29a5.25,5.25,0,0,1,1.38-3.78,4.53,4.53,0,0,1,3.44-1.46A4.21,4.21,0,0,1,86.13,25a4.85,4.85,0,0,1,1.17,3.44Zm-2.65-1.78c0-1.45-.59-2.18-1.77-2.18a1.74,1.74,0,0,0-1.29.6,2.85,2.85,0,0,0-.7,1.58Z"/><path class="cls-14" d="M94.86,33.57a4,4,0,0,1-1.94.36q-3.09,0-3.09-3.26V26.09h-1.6V24h1.6V21.83L92.65,21V24h2.21v2.12H92.65v4.09q0,1.56,1.23,1.56a2.12,2.12,0,0,0,1-.28Z"/><path class="cls-14" d="M105.15,29.63h-6.4c.1,1.5,1,2.26,2.72,2.26a5.2,5.2,0,0,0,2.84-.79v2.08a7,7,0,0,1-3.48.75,4.85,4.85,0,0,1-3.61-1.31A5,5,0,0,1,95.94,29a5.25,5.25,0,0,1,1.37-3.78,4.53,4.53,0,0,1,3.44-1.46A4.2,4.2,0,0,1,104,25a4.85,4.85,0,0,1,1.17,3.44Zm-2.65-1.78c0-1.45-.59-2.18-1.77-2.18a1.74,1.74,0,0,0-1.29.6,2.85,2.85,0,0,0-.7,1.58Z"/><path class="cls-14" d="M106.74,31.08a5.48,5.48,0,0,0,2.85.89c1.18,0,1.76-.32,1.76-.94,0-.45-.48-.82-1.45-1.12a6.17,6.17,0,0,1-2.49-1.25,2.84,2.84,0,0,1,.49-4.12,5.18,5.18,0,0,1,3-.81,8.18,8.18,0,0,1,2.57.4v2.23a4.74,4.74,0,0,0-2.49-.67,2.15,2.15,0,0,0-1.09.24.73.73,0,0,0-.42.64c0,.44.41.81,1.23,1.08a13.19,13.19,0,0,1,2,.8,2.58,2.58,0,0,1,1,.95,2.64,2.64,0,0,1,.34,1.36,2.7,2.7,0,0,1-1.2,2.34,5.59,5.59,0,0,1-3.22.83,8.14,8.14,0,0,1-2.92-.51Z"/><path class="cls-14" d="M120.3,20.57h4.25V18.76h2.6v1.81h3.63V18.76h2.6v1.81h4.18v2.28h-4.18v1.48h-2.6V22.85h-3.63v1.48h-2.6V22.85H120.3Zm9.1,13.48c-.12-.75-.32-1.62-.58-2.62,1.22.11,2.21.16,3,.16a1.68,1.68,0,0,0,1.07-.3,1.25,1.25,0,0,0,.45-.85q.08-.56.12-2.82h-5.68v8.49H125V27.62h-3.89V25.33h15.1q-.16,4.73-.26,5.81a3.56,3.56,0,0,1-.59,1.76,2.47,2.47,0,0,1-1.29.92A24.39,24.39,0,0,1,129.4,34.05Z"/><path class="cls-14" d="M140.36,31l2.16.92q-.84,1.84-2.18,4.27l-2.06-1.09Q139.5,33,140.36,31Zm-.09-7.2h5.2v-5.1H148v1.47h7.36v2.22H148v1.41h5.94v6.68H140.27ZM151.34,26h-8.51v2.39h8.51Zm-6,5.36c.55,1.45,1,2.71,1.33,3.78l-2.28.58c-.48-1.56-.9-2.81-1.25-3.76Zm4.14-.17c.52,1.13,1,2.36,1.55,3.69l-2.3.7c-.44-1.28-.9-2.51-1.41-3.71Zm4.05-.27c.73,1.4,1.41,2.8,2,4.22l-2.2.86c-.7-1.59-1.36-3-2-4.2Z"/><path class="cls-14" d="M115.28,79.24v4.57H113.2V71.21H117a5.1,5.1,0,0,1,3.37,1,3.54,3.54,0,0,1,1.2,2.85,4,4,0,0,1-1.25,3A4.78,4.78,0,0,1,117,79.24Zm0-6.31v4.61h1.36a3,3,0,0,0,2-.62,2.27,2.27,0,0,0,.7-1.76c0-1.48-.86-2.23-2.58-2.23Z"/><path class="cls-14" d="M126.88,84a4.44,4.44,0,0,1-3.33-1.27,4.54,4.54,0,0,1-1.24-3.34,4.44,4.44,0,0,1,4.79-4.82,4.33,4.33,0,0,1,3.28,1.24,4.77,4.77,0,0,1,1.18,3.44,4.69,4.69,0,0,1-1.27,3.45A4.56,4.56,0,0,1,126.88,84Zm.09-7.8a2.36,2.36,0,0,0-1.89.83,3.54,3.54,0,0,0-.69,2.31,3.31,3.31,0,0,0,.7,2.23,2.37,2.37,0,0,0,1.88.81,2.24,2.24,0,0,0,1.85-.8,3.54,3.54,0,0,0,.65-2.28,3.59,3.59,0,0,0-.65-2.29A2.22,2.22,0,0,0,127,76.23Z"/><path class="cls-14" d="M141.82,83.81h-2V82.29h0a3.26,3.26,0,0,1-3,1.74,3.31,3.31,0,0,1-2.66-1.21,5.06,5.06,0,0,1-1-3.29,5.45,5.45,0,0,1,1.1-3.58,3.6,3.6,0,0,1,2.94-1.35,2.84,2.84,0,0,1,2.65,1.46h0V70.49h2Zm-2-4.11V78.52a2.27,2.27,0,0,0-.63-1.62,2,2,0,0,0-1.59-.67,2.15,2.15,0,0,0-1.8.85,3.86,3.86,0,0,0-.65,2.37,3.39,3.39,0,0,0,.63,2.16,2,2,0,0,0,1.69.8,2.14,2.14,0,0,0,1.7-.77A2.91,2.91,0,0,0,139.81,79.7Z"/><path class="cls-14" d="M113.33,126.72v-5.35c-.56.26-1.15.51-1.76.76a18.91,18.91,0,0,0-1.12-2.08,18.42,18.42,0,0,0,7.87-4.55h2.27l-.23.32a16.36,16.36,0,0,0,7.58,4.11c-.41.73-.78,1.46-1.11,2.2-.63-.22-1.24-.46-1.81-.72v5.31h-2.29v-.92h-7.12v.92Zm4-17.11,2.9-.35.63,1.62h6.31v3.85h-2.55V112.9H113.7v1.83h-2.55v-3.85h6.71C117.67,110.39,117.49,110,117.34,109.61Zm-.48,3.5,1.37,1.6a38.67,38.67,0,0,1-5.76,3.34c-.28-.52-.69-1.18-1.22-2A31.91,31.91,0,0,0,116.86,113.11Zm5.87,8.7h-7.12v2h7.12Zm-3.56-4.39a16.5,16.5,0,0,1-3,2.42h6A14.43,14.43,0,0,1,119.17,117.42Zm2.23-4.19q2.77,1.3,5.71,2.89l-1.25,2q-2.46-1.63-5.59-3.3Z"/><path class="cls-14" d="M137.83,126.52v-5.69h3.66a8.36,8.36,0,0,1-4.34-2.13q-1.22,1.45-4.7,2.13h4v5.73h-2v-.67h-2.79v.67h-2V121.2l-.77,0a13.29,13.29,0,0,0-.37-1.79c3.61-.1,5.79-.6,6.54-1.52h-6.32v-1.79h7.17a7.28,7.28,0,0,0,.11-.88h2.46c0,.31-.07.61-.12.88h2.37l-.28-.68,2.25-.28.41,1h2.65v1.79h-6.92q1.88,1.45,7.13,1.53c-.2.66-.35,1.26-.46,1.81q-.36,0-.72,0v5.31h-2v-.67h-2.81v.63Zm-8.24-16.47h6.89v5h-6.89Zm4.83,12.57h-2.79v1.48h2.79Zm-.09-9.4v-1.37h-2.6v1.37Zm3.52-3.17h6.87v5h-6.87Zm4.83,12.57h-2.81v1.48h2.81Zm-.1-9.4v-1.37H140v1.37Z"/><path class="cls-14" d="M114.87,148.9l1.56,3.19c.46-1,.9-2.14,1.31-3.27l1.18.54.94-.42,1.43,3.08c.44-1,.86-2.14,1.26-3.27l1.9.8q-.89,2.64-2,5.07l1.85,4.11-2,1-1.06-2.56c-.57,1.12-1.16,2.21-1.78,3.27l-.79-.59-.94.46-1.36-3.23a37.41,37.41,0,0,1-2.12,3.55c-.29-.27-.65-.58-1.07-.93v2.92h-2.36V146h16v13.5a3.58,3.58,0,0,1-.52,2.1,2,2,0,0,1-1.45.85,32.06,32.06,0,0,1-3.49.13c-.17-1-.35-1.77-.55-2.47a23.55,23.55,0,0,0,2.53.13,1,1,0,0,0,1.13-1.11V148.24H113.22v1.53Zm-1.65,1.22v8q1.09-1.71,2.07-3.63C114.59,153,113.91,151.51,113.22,150.12Zm5.69,1.52c-.41,1-.84,2-1.29,3l1.22,2.62c.46-.86.91-1.75,1.34-2.69Z"/><path class="cls-14" d="M133.5,151.05l2.57.51-1.63,6.86,1.49-.23c-.07,1.1-.11,1.94-.12,2.53q-3.66.6-7.28,1.26l-.39-2.67,4.06-.55Q132.89,155.25,133.5,151.05Zm-5.2-2.67h3.1c-.39-.92-.75-1.68-1.08-2.29l2.41-.84c.36.61.84,1.49,1.43,2.63l-1.38.5h3.77v2.3H128.3Zm2.6,3q.61,2.49,1.32,6.31l-2.32.45c-.34-2.08-.75-4.19-1.25-6.33Zm14.68-3.08v2.3h-4v2.64h3.32v9.42H142.5v-1h-3.79v1.05h-2.36v-9.49H139v-7.91h2.53v3Zm-3.08,7.29h-3.79v3.73h3.79Z"/><path class="cls-14" d="M113.18,263.72v-5.34c-.56.25-1.15.51-1.76.75a19.79,19.79,0,0,0-1.12-2.07,18.68,18.68,0,0,0,7.87-4.55h2.27l-.23.31a16.29,16.29,0,0,0,7.58,4.12q-.62,1.08-1.11,2.19c-.64-.22-1.24-.46-1.81-.72v5.31h-2.29v-.91h-7.12v.91Zm4-17.1,2.9-.35.63,1.61H127v3.85h-2.55V249.9H113.55v1.83H111v-3.85h6.71C117.51,247.39,117.34,247,117.19,246.62Zm-.48,3.5,1.37,1.59a37.81,37.81,0,0,1-5.76,3.34c-.28-.51-.69-1.18-1.22-2A31.2,31.2,0,0,0,116.71,250.12Zm5.87,8.7h-7.12v2h7.12Zm-3.57-4.4a15.72,15.72,0,0,1-3,2.43h6A14.87,14.87,0,0,1,119,254.42Zm2.24-4.18q2.77,1.31,5.71,2.88l-1.25,2q-2.46-1.63-5.59-3.31Z"/><path class="cls-14" d="M137.68,263.53v-5.7h3.66a8.35,8.35,0,0,1-4.34-2.12q-1.22,1.46-4.71,2.12h4v5.73h-2v-.67h-2.79v.67h-2V258.2l-.78.05a11.91,11.91,0,0,0-.37-1.79c3.61-.09,5.8-.6,6.55-1.51h-6.32v-1.79h7.17a7.55,7.55,0,0,0,.11-.88h2.46c0,.31-.07.6-.12.88h2.37l-.28-.69,2.25-.28.4,1h2.66V255h-6.92q1.88,1.45,7.13,1.53a18.54,18.54,0,0,0-.46,1.81l-.72,0v5.31h-2v-.67h-2.81v.64Zm-8.24-16.47h6.89V252h-6.89Zm4.83,12.57h-2.79v1.47h2.79Zm-.09-9.41v-1.37h-2.6v1.37Zm3.52-3.16h6.87V252H137.7Zm4.83,12.57h-2.81v1.47h2.81Zm-.1-9.41v-1.37h-2.57v1.37Z"/><path class="cls-14" d="M101.83,287.54h1.37a14.06,14.06,0,0,0-1.24-2l1.58-1q.54.65,1.47,2l-1.58.94h2V284.1h2.23v3.44h1.85L108,286.6a16.63,16.63,0,0,0,1.48-2.1l1.65,1a15.37,15.37,0,0,1-1.46,2.05h1v1.8h-3.08v1.23l.6-.81c.73.39,1.43.78,2.08,1.16A29.35,29.35,0,0,0,112.8,284l2.41.23c-.23.91-.48,1.78-.75,2.6h4.41V289h-.72a19.72,19.72,0,0,1-2,7.65,10.64,10.64,0,0,0,2.76,2.26,13.1,13.1,0,0,0-1.53,2.34,11.14,11.14,0,0,1-2.67-2.5,11.71,11.71,0,0,1-3.36,2.76,16.76,16.76,0,0,0-1.58-1.9l-.62,1c-.7-.4-1.47-.81-2.3-1.23a12.73,12.73,0,0,1-4.61,1.83,14.33,14.33,0,0,0-.93-2.16,12.77,12.77,0,0,0,3.24-.74c-.81-.36-1.67-.72-2.57-1.09a20.42,20.42,0,0,0,1.07-1.74h-1.44v-1.8H104c.19-.46.36-.92.5-1.38l1,.08v-1.68a15.73,15.73,0,0,1-3.27,2.55,14.53,14.53,0,0,0-.82-2.11,11.76,11.76,0,0,0,3.15-1.83h-2.63Zm3,8.88,1.83.69a5.9,5.9,0,0,0,1.3-1.6h-2.61Zm2.81-3.6h-.88c-.14.29-.29.58-.45.89h4.09v1.64a9.94,9.94,0,0,1-1.71,2.54l1.75.69-.35.58a11.07,11.07,0,0,0,3.31-2.62,17.37,17.37,0,0,1-1.32-4c-.2.37-.41.72-.62,1.06-.27-.46-.58-.95-.94-1.45L110,293c-.73-.5-1.51-1-2.36-1.5Zm5.89-3.33a17.42,17.42,0,0,0,1.23,4.89A15.2,15.2,0,0,0,116,289h-2.28C113.66,289.16,113.59,289.32,113.52,289.49Z"/><path class="cls-14" d="M119.64,287.39h1.67v-3.11h2.13v3.11H125v2.25h-1.51v2.46l1.6-.37c-.06.94-.09,1.7-.07,2.28l-1.53.39v4.82c0,1.3-.54,2-1.6,2a12.18,12.18,0,0,1-1.8,0,21,21,0,0,0-.51-2.28l1.18,0c.4,0,.6-.27.6-.84V295l-1.69.43-.19-2.42,1.88-.39v-2.93h-1.67Zm17.23,6.27h-4v1.48h2.95v6.31h-2.07v-.88h-3.92v.88h-2.08v-6.31h2.9v-1.48h-3.07a15.19,15.19,0,0,1-2.25,7.65,16,16,0,0,0-1.58-1.79,16.91,16.91,0,0,0,1.75-8.35v-6.42h10.64v5.5h-3.27v1.57h4Zm-2.9-5.25V286.6h-6.33v1.81Zm-3.33,3.41v-1.57h-3v1.57Zm3.1,5.16h-3.92v1.74h3.92Z"/><path class="cls-14" d="M145.25,284.42l2.88-.32c.17.41.36.93.59,1.56h6v2h-13.5v4.24q0,6.44-2.11,9.54a25.69,25.69,0,0,0-1.77-2.1c1-1.68,1.51-4.17,1.49-7.46v-6.26h7Zm-4.2,12.27h6.15v-1.23h-5.08v-2c.44-.7.86-1.43,1.29-2.2h-1.8v-2h2.88c.24-.48.49-1,.73-1.47l2.44.37-.58,1.1h7.17v2H146l-1.24,2.2h2.46V291.8h2.36v1.65H154v2h-4.41v1.23h5.24v2h-5.24v2.57H147.2v-2.57h-6.15Z"/></svg>