<svg id="Layer_1" data-name="Layer 1" xmlns="http://www.w3.org/2000/svg" xmlns:xlink="http://www.w3.org/1999/xlink" viewBox="0 0 249.28 309.38"><defs><style>.cls-1{fill:#fff;}.cls-2{fill:#83b9f9;}.cls-2,.cls-5{opacity:0.15;}.cls-2,.cls-4,.cls-5{isolation:isolate;}.cls-3{fill:#0078d4;}.cls-4{fill:#0072c6;opacity:0.35;}.cls-5{fill:#3c3c41;}.cls-6{fill:url(#linear-gradient);}.cls-7{fill:#767676;}.cls-8{fill:#f2f2f2;}.cls-9{fill:#1e1e1e;}</style><linearGradient id="linear-gradient" x1="-176.41" y1="544.02" x2="-176.41" y2="545.02" gradientTransform="matrix(58.3, 0, 0, -34.38, 10408.97, 18936.56)" gradientUnits="userSpaceOnUse"><stop offset="0" stop-color="#32bedd"/><stop offset="0.18" stop-color="#32caea"/><stop offset="0.41" stop-color="#32d2f2"/><stop offset="0.78" stop-color="#32d4f5"/></linearGradient></defs><g id="Page-1"><g id="_3-diagram-pod-with-website" data-name="3-diagram-pod-with-website"><g id="Shapes"><rect id="Rectangle-path" class="cls-1" width="249.28" height="309.38"/><g id="Group"><rect id="Rectangle-path-2" data-name="Rectangle-path" class="cls-1" x="0.66" y="40.83" width="248.05" height="249.61"/><rect id="Rectangle-path-3" data-name="Rectangle-path" class="cls-2" x="0.66" y="40.83" width="248.05" height="249.61"/><path id="Shape" class="cls-1" d="M248.44,41V290.25H.84V41Zm.39-.39H.45v250H248.89v-250Z"/><path id="Shape-2" data-name="Shape" class="cls-3" d="M248.89,40.63v250H.45v-250Zm.39-.4H0V291H249.22V40.25Z"/></g><g id="Group-2" data-name="Group"><rect id="Rectangle-path-4" data-name="Rectangle-path" class="cls-1" x="15.3" y="56.27" width="218.75" height="218.75"/><rect id="Rectangle-path-5" data-name="Rectangle-path" class="cls-4" x="15.3" y="56.27" width="218.75" height="218.75"/></g><rect id="Rectangle-path-6" data-name="Rectangle-path" class="cls-1" x="30.92" y="95.33" width="187.5" height="164.06"/><g id="Group-3" data-name="Group"><rect id="Rectangle-path-7" data-name="Rectangle-path" class="cls-1" x="37.95" y="142.2" width="173.44" height="109.38"/><rect id="Rectangle-path-8" data-name="Rectangle-path" class="cls-5" x="37.95" y="142.2" width="173.44" height="109.38"/></g><g id="Group-4" data-name="Group"><path id="Shape-3" data-name="Shape" class="cls-6" d="M95.53,201.56h58.3v32.52a2,2,0,0,1-2,1.86H97.48a2,2,0,0,1-2-2Z"/><path id="Shape-4" data-name="Shape" class="cls-7" d="M97.48,189.06h54.4a2,2,0,0,1,2,2v10.54H95.53V191.08a1.93,1.93,0,0,1,.55-1.42A2,2,0,0,1,97.48,189.06Z"/><circle id="Oval" class="cls-8" cx="137.78" cy="216.58" r="4.73"/><circle id="Oval-2" data-name="Oval" class="cls-8" cx="124.88" cy="216.58" r="4.73"/><circle id="Oval-3" data-name="Oval" class="cls-8" cx="111.58" cy="216.58" r="4.73"/><rect id="Rectangle-path-9" data-name="Rectangle-path" class="cls-8" x="103.38" y="192.78" width="42.63" height="5" rx="0.61"/></g></g></g></g><path class="cls-9" d="M12.67,31.45H9L4.88,25.5a3.51,3.51,0,0,1-.36-.71h0v6.66H1.57V17.84h2.9v6.43h0a7,7,0,0,1,.38-.73l3.91-5.7h3.46L7.4,24.33Z"/><path class="cls-9" d="M22.85,31.45H20V30h0a3.36,3.36,0,0,1-3,1.72q-3.41,0-3.4-4.09V21.73h2.84v5.6c0,1.46.57,2.18,1.71,2.18a1.69,1.69,0,0,0,1.36-.6A2.37,2.37,0,0,0,20,27.3V21.73h2.82Z"/><path class="cls-9" d="M28.27,30.29v1.16H25.43V17.07h2.84v6.15h0a3.56,3.56,0,0,1,3.18-1.72,3.48,3.48,0,0,1,2.88,1.28,5.49,5.49,0,0,1,1,3.54,6,6,0,0,1-1.19,3.89A3.88,3.88,0,0,1,31,31.69a3.08,3.08,0,0,1-2.73-1.4Zm-.05-3a2.35,2.35,0,0,0,.57,1.61,1.86,1.86,0,0,0,1.45.65,1.93,1.93,0,0,0,1.66-.82,4,4,0,0,0,.59-2.34,3.18,3.18,0,0,0-.54-2,1.82,1.82,0,0,0-1.54-.7,2,2,0,0,0-1.57.71,2.69,2.69,0,0,0-.62,1.83Z"/><path class="cls-9" d="M46.05,27.39h-6.4c.1,1.51,1,2.26,2.72,2.26a5.12,5.12,0,0,0,2.84-.79v2.08a7,7,0,0,1-3.48.75,4.85,4.85,0,0,1-3.61-1.31,5,5,0,0,1-1.29-3.65A5.27,5.27,0,0,1,38.21,23a4.52,4.52,0,0,1,3.44-1.45,4.18,4.18,0,0,1,3.23,1.25,4.83,4.83,0,0,1,1.17,3.44ZM43.4,25.62c0-1.45-.59-2.18-1.77-2.18a1.74,1.74,0,0,0-1.29.6,2.78,2.78,0,0,0-.7,1.58Z"/><path class="cls-9" d="M54.09,24.31a2.5,2.5,0,0,0-1.26-.3,1.83,1.83,0,0,0-1.53.74,3.24,3.24,0,0,0-.57,2v4.67H47.89V21.73h2.84v1.83h0a2.57,2.57,0,0,1,2.55-2,2,2,0,0,1,.77.11Z"/><path class="cls-9" d="M64.8,31.45H62V26c0-1.57-.57-2.35-1.7-2.35a1.71,1.71,0,0,0-1.34.62,2.39,2.39,0,0,0-.54,1.61v5.54H55.56V21.73H58.4v1.55h0a3.42,3.42,0,0,1,3.13-1.78q3.23,0,3.23,4Z"/><path class="cls-9" d="M75.86,27.39h-6.4c.1,1.51,1,2.26,2.72,2.26A5.1,5.1,0,0,0,75,28.86v2.08a7,7,0,0,1-3.48.75,4.86,4.86,0,0,1-3.61-1.31,5,5,0,0,1-1.28-3.65A5.26,5.26,0,0,1,68,23a4.52,4.52,0,0,1,3.44-1.45,4.16,4.16,0,0,1,3.23,1.25,4.83,4.83,0,0,1,1.17,3.44Zm-2.65-1.77c0-1.45-.59-2.18-1.76-2.18a1.74,1.74,0,0,0-1.3.6,2.78,2.78,0,0,0-.7,1.58Z"/><path class="cls-9" d="M83.43,31.34a4.27,4.27,0,0,1-2,.35q-3.09,0-3.09-3.25V23.85h-1.6V21.73h1.6V19.6l2.82-.81v2.94h2.22v2.12H81.21V28c0,1,.41,1.55,1.23,1.55a2,2,0,0,0,1-.28Z"/><path class="cls-9" d="M93.71,27.39h-6.4c.1,1.51,1,2.26,2.72,2.26a5.1,5.1,0,0,0,2.84-.79v2.08a7,7,0,0,1-3.48.75,4.82,4.82,0,0,1-3.6-1.31,5,5,0,0,1-1.29-3.65A5.26,5.26,0,0,1,85.87,23a4.52,4.52,0,0,1,3.44-1.45,4.16,4.16,0,0,1,3.23,1.25,4.83,4.83,0,0,1,1.17,3.44Zm-2.65-1.77c0-1.45-.59-2.18-1.76-2.18A1.74,1.74,0,0,0,88,24a2.85,2.85,0,0,0-.7,1.58Z"/><path class="cls-9" d="M95.3,28.84a5.39,5.39,0,0,0,2.86.89c1.17,0,1.75-.31,1.75-.94,0-.44-.48-.82-1.45-1.12A6.06,6.06,0,0,1,96,26.42a2.52,2.52,0,0,1-.68-1.87,2.6,2.6,0,0,1,1.16-2.24,5.2,5.2,0,0,1,3-.81,8.58,8.58,0,0,1,2.58.39v2.23a4.89,4.89,0,0,0-2.5-.66,2.17,2.17,0,0,0-1.09.24.7.7,0,0,0-.41.63c0,.45.41.81,1.23,1.09a12.57,12.57,0,0,1,2,.8,2.51,2.51,0,0,1,1,1,2.62,2.62,0,0,1,.35,1.36,2.65,2.65,0,0,1-1.21,2.33,5.57,5.57,0,0,1-3.21.83,8.42,8.42,0,0,1-2.93-.5Z"/><path class="cls-9" d="M108.86,18.33h4.25V16.52h2.61v1.81h3.62V16.52h2.6v1.81h4.18v2.29h-4.18v1.47h-2.6V20.62h-3.62v1.47h-2.61V20.62h-4.25ZM118,31.81c-.13-.75-.33-1.62-.58-2.61,1.21.1,2.21.15,3,.15a1.67,1.67,0,0,0,1.06-.3,1.23,1.23,0,0,0,.45-.84c0-.37.09-1.31.12-2.83h-5.68v8.49h-2.74V25.38h-3.88V23.1h15.1q-.17,4.72-.27,5.81a3.43,3.43,0,0,1-.59,1.75,2.42,2.42,0,0,1-1.29.92A22.59,22.59,0,0,1,118,31.81Z"/><path class="cls-9" d="M128.92,28.81l2.16.91c-.56,1.23-1.29,2.66-2.18,4.27l-2.06-1.09Q128.06,30.76,128.92,28.81Zm-.09-7.21H134V16.5h2.5V18h7.36V20.2h-7.36v1.4h5.94v6.68H128.83Zm11.07,2.15h-8.5v2.39h8.5Zm-6,5.36c.55,1.45,1,2.71,1.33,3.78l-2.28.58c-.48-1.56-.9-2.82-1.25-3.76Zm4.15-.18c.51,1.14,1,2.37,1.54,3.69l-2.3.71c-.43-1.28-.9-2.52-1.41-3.71Zm4-.26q1.11,2.08,2,4.22l-2.2.86q-1.05-2.4-2-4.2Z"/><path class="cls-9" d="M112.38,78.24v4.57h-2.09V70.21h3.83a5.07,5.07,0,0,1,3.36,1,3.51,3.51,0,0,1,1.2,2.85,3.94,3.94,0,0,1-1.25,3,4.74,4.74,0,0,1-3.38,1.17Zm0-6.31v4.61h1.35a3,3,0,0,0,2-.63,2.2,2.2,0,0,0,.7-1.75c0-1.49-.86-2.23-2.58-2.23Z"/><path class="cls-9" d="M124,83a4.47,4.47,0,0,1-3.33-1.26,4.54,4.54,0,0,1-1.24-3.34,4.44,4.44,0,0,1,4.79-4.82,4.33,4.33,0,0,1,3.29,1.24,4.81,4.81,0,0,1,1.17,3.44,4.72,4.72,0,0,1-1.27,3.45A4.55,4.55,0,0,1,124,83Zm.1-7.79a2.34,2.34,0,0,0-1.89.83,3.48,3.48,0,0,0-.7,2.31,3.32,3.32,0,0,0,.7,2.22,2.36,2.36,0,0,0,1.89.82,2.27,2.27,0,0,0,1.85-.8,4.4,4.4,0,0,0,0-4.57A2.24,2.24,0,0,0,124.07,75.23Z"/><path class="cls-9" d="M138.91,82.81h-2V81.28h0a3.52,3.52,0,0,1-5.69.53,5,5,0,0,1-1-3.29,5.48,5.48,0,0,1,1.1-3.57,3.62,3.62,0,0,1,2.94-1.35,2.83,2.83,0,0,1,2.65,1.46h0V69.49h2Zm-2-4.11V77.52a2.26,2.26,0,0,0-.63-1.62,2,2,0,0,0-1.59-.67,2.12,2.12,0,0,0-1.79.85,3.78,3.78,0,0,0-.66,2.36,3.4,3.4,0,0,0,.63,2.17,2,2,0,0,0,1.69.8,2.14,2.14,0,0,0,1.7-.77A2.93,2.93,0,0,0,136.9,78.7Z"/><path class="cls-9" d="M109.66,129v-5.35c-.57.26-1.15.51-1.76.76a19.1,19.1,0,0,0-1.13-2.08,18.45,18.45,0,0,0,7.88-4.55h2.27l-.23.32a16.38,16.38,0,0,0,7.57,4.11,23.75,23.75,0,0,0-1.1,2.2c-.64-.22-1.24-.46-1.81-.72V129h-2.29v-.92h-7.12V129Zm4-17.11,2.9-.35c.17.41.38.95.64,1.62h6.31V117H121v-1.83H110V117h-2.54v-3.85h6.71C114,112.67,113.82,112.25,113.66,111.89Zm-.47,3.5,1.37,1.6a39.33,39.33,0,0,1-5.77,3.34c-.28-.51-.68-1.18-1.21-2A31.91,31.91,0,0,0,113.19,115.39Zm5.87,8.7h-7.12v2h7.12Zm-3.57-4.39a16.08,16.08,0,0,1-3,2.42h6A14.5,14.5,0,0,1,115.49,119.7Zm2.23-4.19c1.86.87,3.76,1.83,5.72,2.89l-1.25,2q-2.46-1.63-5.59-3.3Z"/><path class="cls-9" d="M134.16,128.8v-5.69h3.66a8.39,8.39,0,0,1-4.35-2.13q-1.2,1.45-4.7,2.13h4v5.73h-2v-.67H128v.67h-2v-5.36l-.78,0a11.91,11.91,0,0,0-.37-1.79c3.61-.1,5.8-.6,6.55-1.51H125v-1.8h7.17a7.28,7.28,0,0,0,.11-.88h2.46c0,.31-.07.61-.12.88H137l-.28-.68,2.25-.28.4,1H142v1.8H135.1c1.25,1,3.62,1.47,7.13,1.52a18.69,18.69,0,0,0-.46,1.82l-.72,0v5.31h-2v-.67H136.2v.63Zm-8.24-16.47h6.89v5h-6.89Zm4.83,12.57H128v1.48h2.79Zm-.09-9.4v-1.37h-2.6v1.37Zm3.52-3.17h6.87v5h-6.87ZM139,124.9H136.2v1.48H139Zm-.1-9.4v-1.37h-2.57v1.37Z"/><path class="cls-9" d="M111.5,162l1.56,3.19c.46-1.05.9-2.14,1.31-3.28l1.18.55.94-.42,1.43,3.08c.44-1,.86-2.14,1.26-3.28l1.9.81q-.89,2.64-2,5.06l1.85,4.12-2,1-1.06-2.57c-.57,1.13-1.16,2.22-1.79,3.27-.26-.2-.52-.4-.78-.58l-.94.46L113,170.18a38.71,38.71,0,0,1-2.12,3.55c-.29-.28-.65-.59-1.07-.93v2.91h-2.36V159.16h16v13.5a3.57,3.57,0,0,1-.52,2.09,2,2,0,0,1-1.45.86,32.89,32.89,0,0,1-3.49.12,24.51,24.51,0,0,0-.55-2.46c.83.08,1.68.12,2.53.12a1,1,0,0,0,1.13-1.1V161.35H109.85v1.53Zm-1.65,1.21v8a39.42,39.42,0,0,0,2.06-3.63C111.22,166.09,110.53,164.63,109.85,163.23Zm5.69,1.52c-.41,1-.84,2-1.29,3l1.22,2.63c.46-.86.91-1.76,1.34-2.69Z"/><path class="cls-9" d="M130.13,164.17l2.57.5-1.63,6.87,1.49-.24c-.07,1.1-.11,1.95-.12,2.53q-3.66.6-7.28,1.27l-.39-2.67,4.06-.56Q129.52,168.38,130.13,164.17Zm-5.2-2.68H128c-.4-.92-.75-1.68-1.08-2.28l2.41-.85c.36.61.84,1.49,1.43,2.64l-1.39.49h3.78v2.31h-8.25Zm2.6,3q.61,2.51,1.32,6.31l-2.32.46q-.51-3.13-1.25-6.33Zm14.68-3.07v2.3h-4v2.63h3.32v9.43h-2.36v-1h-3.79v1.06H133v-9.5h2.66v-7.91h2.53v3Zm-3.08,7.29h-3.79v3.73h3.79Z"/></svg>