<svg id="Layer_1" data-name="Layer 1" xmlns="http://www.w3.org/2000/svg" xmlns:xlink="http://www.w3.org/1999/xlink" viewBox="0 0 798.46 277.1"><defs><style>.cls-1{fill:#fff;}.cls-2{fill:#0072c6;opacity:0.35;isolation:isolate;}.cls-3,.cls-9{fill:none;}.cls-3{stroke:#76bc2d;stroke-width:0.5px;}.cls-4{fill:#e62323;}.cls-5{fill:#b0b0b0;}.cls-6{fill:#7a7a7a;}.cls-7{fill:url(#radial-gradient);}.cls-8{fill:url(#radial-gradient-2);}.cls-9{stroke:#3c3c41;}.cls-10{fill:#3c3c41;}.cls-11{fill:#1e1e1e;}</style><radialGradient id="radial-gradient" cx="91.16" cy="526.42" r="0.49" gradientTransform="matrix(28.18, 0, 0, -28.18, -2554.84, 14927.51)" gradientUnits="userSpaceOnUse"><stop offset="0" stop-color="#7956ba"/><stop offset="0.69" stop-color="#724eb4"/><stop offset="0.87" stop-color="#6f4bb2"/></radialGradient><radialGradient id="radial-gradient-2" cx="70.86" cy="471.11" r="0.5" gradientTransform="matrix(3.98, 0, 0, -3.98, -267.7, 1965.79)" gradientUnits="userSpaceOnUse"><stop offset="0" stop-color="#7f7f7f"/><stop offset="1" stop-color="#5e5e5e"/></radialGradient></defs><g id="Page-1"><g id="_3-pod-lifecycle" data-name="3-pod-lifecycle"><g id="Shapes"><rect id="Rectangle-path" class="cls-1" x="0.02" width="798.43" height="277.1"/><g id="Group"><rect id="Rectangle-path-2" data-name="Rectangle-path" class="cls-1" x="172.23" y="92.37" width="125.24" height="39.14"/><rect id="Rectangle-path-3" data-name="Rectangle-path" class="cls-2" x="172.23" y="92.37" width="125.24" height="39.14"/></g><g id="Group-2" data-name="Group"><rect id="Rectangle-path-4" data-name="Rectangle-path" class="cls-1" x="344.6" y="18.79" width="125.24" height="39.14"/><rect id="Rectangle-path-5" data-name="Rectangle-path" class="cls-2" x="344.6" y="18.79" width="125.24" height="39.14"/></g><g id="Group-3" data-name="Group"><rect id="Rectangle-path-6" data-name="Rectangle-path" class="cls-1" x="344.6" y="212.92" width="125.24" height="39.14"/><rect id="Rectangle-path-7" data-name="Rectangle-path" class="cls-2" x="344.6" y="212.92" width="125.24" height="39.14"/></g><g id="Group-4" data-name="Group"><rect id="Rectangle-path-8" data-name="Rectangle-path" class="cls-1" x="516.65" y="92.37" width="125.24" height="39.14"/><rect id="Rectangle-path-9" data-name="Rectangle-path" class="cls-2" x="516.65" y="92.37" width="125.24" height="39.14"/><rect id="Rectangle-path-10" data-name="Rectangle-path" class="cls-3" x="516.65" y="92.37" width="125.24" height="39.14"/></g><g id="Group-5" data-name="Group"><rect id="Rectangle-path-11" data-name="Rectangle-path" class="cls-1" x="673.21" y="92.37" width="125.24" height="39.14"/><rect id="Rectangle-path-12" data-name="Rectangle-path" class="cls-2" x="673.21" y="92.37" width="125.24" height="39.14"/></g><g id="Group-6" data-name="Group"><rect id="Rectangle-path-13" data-name="Rectangle-path" class="cls-1" x="517.05" y="139.73" width="124.46" height="38.36"/><rect id="Rectangle-path-14" data-name="Rectangle-path" class="cls-2" x="517.05" y="139.73" width="124.46" height="38.36"/><path id="Shape" class="cls-1" d="M641.33,140.12v37.57H517.65V140.12Zm.78-.79H516.87v39.14H642.11Z" transform="translate(-0.21)"/><path id="Shape-2" data-name="Shape" class="cls-4" d="M623.32,139.33H607.67v.79h15.65Zm-18.78,0H588.88v.79h15.66Zm-18.79,0H570.1v.79h15.65Zm-18.79,0H551.31v.79H567Zm-18.78,0H532.52v.79h15.66Zm-18.79,0H516.87v3.14h.78v-2.35h11.74Zm-11.74,6.27h-.78v15.65h.78Zm0,18.78h-.78v14.09h1.56v-.78h-.78Zm19.57,13.31H521.56v.78h15.66Zm18.79,0H540.35v.78H556Zm18.78,0H559.14v.78h15.65Zm18.79,0H577.92v.78h15.66Zm18.79,0H596.71v.78h15.66Zm18.78,0H615.5v.78h15.65Zm11-7h-.78v7h-7.05v.78h7.83Zm0-18.79h-.78v15.65h.78Zm0-12.53H626.46v.79h14.87v8.61h.78Z" transform="translate(-0.21)"/></g><g id="Group-7" data-name="Group"><rect id="Rectangle-path-15" data-name="Rectangle-path" class="cls-1" x="14.11" y="92.37" width="125.24" height="39.14"/><rect id="Rectangle-path-16" data-name="Rectangle-path" class="cls-2" x="14.11" y="92.37" width="125.24" height="39.14"/></g><g id="Group-8" data-name="Group"><circle id="Oval" class="cls-5" cx="14.11" cy="92.37" r="14.09"/><circle id="Oval-2" data-name="Oval" class="cls-1" cx="14.08" cy="92.32" r="11.96"/><rect id="e59f863c-8b0e-4353-8450-26e2927e2bd8" class="cls-6" x="20.12" y="85.22" width="2.1" height="1.33" transform="translate(-54.74 40.12) rotate(-45)"/><rect id="fb31ef5c-b322-47ba-9118-85ef2f76d768" class="cls-6" x="22.36" y="92.02" width="2.1" height="1.33"/><rect id="e52b7618-af87-4451-aff9-b359cda15418" class="cls-6" x="20.39" y="97.67" width="1.33" height="2.1" transform="translate(-63.85 43.81) rotate(-45)"/><rect id="bd1901af-8ca0-4fdc-a813-01598d258160" class="cls-6" x="13.7" y="100.67" width="1.33" height="2.1"/><rect id="bfba83e0-770a-4fd3-9d4d-1aa30de9f72a" class="cls-6" x="7.03" y="84.29" width="1.33" height="2.1" transform="translate(-58.3 30.44) rotate(-45)"/><rect id="ad478e3b-a6b6-4eba-a3a4-ce35f17ff637" class="cls-6" x="6.75" y="98.59" width="2.1" height="1.33" transform="translate(-68.12 34.59) rotate(-45)"/><rect id="b9821e28-6320-47a8-842c-070460425b0f" class="cls-6" x="3.45" y="92.02" width="2.1" height="1.33"/><path id="Shape-3" data-name="Shape" class="cls-7" d="M14.32,78.28a1,1,0,0,0-1,1,1.06,1.06,0,0,0,1,1h0a12.05,12.05,0,1,1-8.87,3.9l.84,1.23,2.35-5.24L3,80.88l1.24,1.66a14.08,14.08,0,1,0,10.11-4.26Z" transform="translate(-0.21)"/><rect id="Rectangle-path-17" data-name="Rectangle-path" class="cls-6" x="13.22" y="82.02" width="1.89" height="10.79" rx="0.55"/><rect id="Rectangle-path-18" data-name="Rectangle-path" class="cls-6" x="15.94" y="91.67" width="1.89" height="6.76" rx="0.55" transform="translate(-62.48 39.78) rotate(-45)"/><circle id="Oval-3" data-name="Oval" class="cls-8" cx="14.08" cy="92.37" r="1.99"/></g><g id="Group-9" data-name="Group"><path id="Shape-4" data-name="Shape" class="cls-9" d="M139.57,111.94H164" transform="translate(-0.21)"/><polygon id="Shape-5" data-name="Shape" class="cls-10" points="162.09 117.79 172.23 111.94 162.09 106.08 162.09 117.79"/></g><g id="Group-10" data-name="Group"><path id="Shape-6" data-name="Shape" class="cls-9" d="M642.11,111.94H665" transform="translate(-0.21)"/><polygon id="Shape-7" data-name="Shape" class="cls-10" points="663.07 117.79 673.21 111.94 663.07 106.08 663.07 117.79"/></g><g id="Group-11" data-name="Group"><rect id="Rectangle-path-19" data-name="Rectangle-path" class="cls-1" x="673.21" y="139.33" width="125.24" height="39.14"/><rect id="Rectangle-path-20" data-name="Rectangle-path" class="cls-2" x="673.21" y="139.33" width="125.24" height="39.14"/></g><g id="Group-12" data-name="Group"><path id="Shape-8" data-name="Shape" class="cls-9" d="M642.11,158.9H665" transform="translate(-0.21)"/><polygon id="Shape-9" data-name="Shape" class="cls-10" points="663.07 164.76 673.21 158.9 663.07 153.05 663.07 164.76"/></g><g id="Group-13" data-name="Group"><path id="Shape-10" data-name="Shape" class="cls-9" d="M422.93,212.92a106.31,106.31,0,0,1,27.51-72,91.11,91.11,0,0,1,58-29.4" transform="translate(-0.21)"/><polygon id="Shape-11" data-name="Shape" class="cls-10" points="506.87 117.57 516.65 111.16 506.2 105.88 506.87 117.57"/></g><g id="Group-14" data-name="Group"><path id="Shape-12" data-name="Shape" class="cls-9" d="M391.62,212.92a106.26,106.26,0,0,0-27.51-72,91.08,91.08,0,0,0-58-29.4" transform="translate(-0.21)"/><polygon id="Shape-13" data-name="Shape" class="cls-10" points="307.94 105.88 297.48 111.16 307.26 117.57 307.94 105.88"/></g><g id="Group-15" data-name="Group"><path id="Shape-14" data-name="Shape" class="cls-9" d="M234.28,92.37v-47a7.84,7.84,0,0,1,7.83-7.83h94.12" transform="translate(-0.21)"/><polygon id="Shape-15" data-name="Shape" class="cls-10" points="334.3 43.43 344.44 37.57 334.3 31.72 334.3 43.43"/></g><g id="Group-16" data-name="Group"><path id="Shape-16" data-name="Shape" class="cls-9" d="M469.9,37.57H571.66a7.84,7.84,0,0,1,7.83,7.83V84" transform="translate(-0.21)"/><polygon id="Shape-17" data-name="Shape" class="cls-10" points="573.42 82.22 579.28 92.37 585.13 82.22 573.42 82.22"/></g><g id="Group-17" data-name="Group"><path id="Shape-18" data-name="Shape" class="cls-9" d="M234.28,131.51v93.15a7.84,7.84,0,0,0,7.83,7.83h94.12" transform="translate(-0.21)"/><polygon id="Shape-19" data-name="Shape" class="cls-10" points="334.3 238.34 344.44 232.49 334.3 226.63 334.3 238.34"/></g><g id="Group-18" data-name="Group"><path id="Shape-20" data-name="Shape" class="cls-9" d="M469.9,232.49H571.66a7.84,7.84,0,0,0,7.83-7.83V185.33" transform="translate(-0.21)"/><polygon id="Shape-21" data-name="Shape" class="cls-10" points="585.13 187.05 579.28 176.91 573.42 187.05 585.13 187.05"/></g><g id="Group-19" data-name="Group"><path id="Shape-22" data-name="Shape" class="cls-9" d="M453.46,57.93v81.4a7.82,7.82,0,0,0,7.83,7.83h47.15" transform="translate(-0.21)"/><polygon id="Shape-23" data-name="Shape" class="cls-10" points="506.51 153.02 516.65 147.16 506.51 141.31 506.51 153.02"/></g><g id="Group-20" data-name="Group"><path id="Shape-24" data-name="Shape" class="cls-9" d="M281.25,131.51v31.31a7.83,7.83,0,0,0,7.83,7.83H508.44" transform="translate(-0.21)"/><polygon id="Shape-25" data-name="Shape" class="cls-10" points="506.51 176.5 516.65 170.65 506.51 164.79 506.51 176.5"/></g></g></g></g><path class="cls-11" d="M64.36,114.06a29.8,29.8,0,0,0,2.84,1.08c-.29,1.49-.53,2.62-.72,3.4a2.69,2.69,0,0,1-1.29,1.74,5.47,5.47,0,0,1-2.7.57H54.44q-4,0-4-4.16v-7.94h2.74v1.8h9v-3.91H50V104.1H65v9H53.21v3.34c0,1.25.59,1.88,1.77,1.88H61.9a3.07,3.07,0,0,0,1.39-.27,1.27,1.27,0,0,0,.67-1C64,116.62,64.18,115.61,64.36,114.06Z" transform="translate(-0.21)"/><path class="cls-11" d="M74.81,115.06c.1,1.15.21,2.07.32,2.75a27.37,27.37,0,0,0-4.53,3.37l-1.37-1.81a2.38,2.38,0,0,0,.46-1.56v-6H67.8v-2.41h4.36v7.33C72.66,116.47,73.55,115.9,74.81,115.06ZM71,103.2c1,1.3,1.78,2.45,2.45,3.46l-2.38,1.42c-.6-1.08-1.35-2.3-2.24-3.63Zm2.91,5.66h4.71v-5.64H81.4v5.64h4.75v2.49H81.4v10.21H78.61V111.35H73.9Z" transform="translate(-0.21)"/><path class="cls-11" d="M94.66,110.46l2.19,1.15A23.46,23.46,0,0,1,93,116.78a4.28,4.28,0,0,0,.9,1.39,1.43,1.43,0,0,0,.93.54.78.78,0,0,0,.26-.07c.1,0,.21-.41.35-1.09s.23-1.26.29-1.75c.26.15,1,.5,2.26,1a10,10,0,0,1-1.16,3.75,2,2,0,0,1-1.68.85A4.49,4.49,0,0,1,91,118.63a25.07,25.07,0,0,1-2.88,2,20.42,20.42,0,0,0-1.42-2.3,21.6,21.6,0,0,0,3.44-2.22,34.7,34.7,0,0,1-.8-5.48l-2.16.35-.41-2.34,2.45-.37L89,103.41h2.61c0,1.51.08,3,.14,4.5l4.89-.73.37,2.26-5.13.82c.1,1.24.26,2.5.48,3.75A15.89,15.89,0,0,0,94.66,110.46Zm-.92-7.22a32.15,32.15,0,0,1,2.74,2.3l-1.61,1.56a29.07,29.07,0,0,0-2.6-2.43Zm6.44,13.14H97.73V105.15h2.45Zm4.17-13v15.72a2.26,2.26,0,0,1-.5,1.57,2.5,2.5,0,0,1-1.73.61c-.83,0-1.56,0-2.2,0a17.16,17.16,0,0,0-.64-2.43c.57,0,1.08.06,1.55.06a1.22,1.22,0,0,0,.81-.18,1,1,0,0,0,.19-.71V103.39Z" transform="translate(-0.21)"/><path class="cls-11" d="M217.13,106.3h1.93v-3h2.48v3h1.54v2.38h-1.54v2.88l1.54-.34a16.23,16.23,0,0,0-.07,2.52l-1.47.37v5.2a2.21,2.21,0,0,1-.38,1.39,1.68,1.68,0,0,1-1.12.6,24.25,24.25,0,0,1-2.63.14c-.13-.9-.27-1.73-.43-2.48a12.93,12.93,0,0,0,1.45.09c.42,0,.63-.25.63-.74v-3.6l-1.89.44-.17-2.67,2.06-.4v-3.4h-1.93Zm5.57,12.21h5V116.3h-4.22v-2.2h4.22v-1.73h2.65v1.73h4.08v2.2h-4.08v2.21h5.07v2.21H222.7Zm.61-8.85h4.38v-2h-3.88v-2.2h3.88v-2.17h2.65v2.17h4.1v2.2h-4.1v2h4.84v2.21H223.31Z" transform="translate(-0.21)"/><path class="cls-11" d="M245.44,111.8h-2.32v2h2.08v2.29h-2.08v2.34a37.77,37.77,0,0,0,3.85.12q2.81,0,7.47-.11c-.32.81-.62,1.69-.89,2.64q-7.41,0-10.37-.18a4.94,4.94,0,0,1-4.24-2.3,12.62,12.62,0,0,1-1,2.92c-.46-.5-1.11-1.2-1.95-2.09a15.72,15.72,0,0,0,1.19-6.94h2.37c0,1.08,0,2.09-.12,3a4.74,4.74,0,0,0,1.29,1.87V111.8H236v-2.29h3.62v-1.7h-3v-2.29h3v-2.37h2.54v2.37h2.74v2.29h-2.74v1.7h3.26Zm6.2.27c1,.45,1.87.78,2.54,1a10.49,10.49,0,0,1-.59,2.87c-.36,1.08-1.31,1.62-2.84,1.62h-2.21c-1.68,0-2.52-.89-2.52-2.68v-5.77h4.71v-2.67h-5.08v-2.26h7.6v7.2h-4.71v3.06c0,.57.31.85.93.85h.85a1,1,0,0,0,1-.42A9.28,9.28,0,0,0,251.64,112.07Z" transform="translate(-0.21)"/><path class="cls-11" d="M389.5,231.8H397v-2.17h-6.47v-2.42H397v-2.65h2.6v2.65h6.66v2.42H399.6v2.17h7.61v2.41h-6.72a17.11,17.11,0,0,0,7.09,5c-.62.77-1.25,1.58-1.88,2.45a19.7,19.7,0,0,1-6.1-5.44v6.53H397v-6.36a23.69,23.69,0,0,1-6.07,5.42,25.48,25.48,0,0,0-1.8-2.3,21.63,21.63,0,0,0,7-5.29H389.5Z" transform="translate(-0.21)"/><path class="cls-11" d="M408.26,232.28h3.68c0-.17,0-1.18,0-3h-.75a17.91,17.91,0,0,1-1.54,2.82c-.55-.73-1.11-1.41-1.67-2.06a17,17,0,0,0,2.25-5.54l2.47.42c-.19.72-.39,1.4-.62,2h4.77v2.32h-2.43v3h2.92v2.32h-3.11a9.39,9.39,0,0,1-.19,1c1.26,1.23,2.49,2.52,3.69,3.85l-2,1.82c-.83-1.1-1.67-2.15-2.51-3.14a13.57,13.57,0,0,1-3.69,4.83,24.67,24.67,0,0,0-1.57-2.36,9.83,9.83,0,0,0,3.7-6h-3.41Zm9.56,10.22V226.08h8v16.31h-2.55v-1.56h-2.91v1.67Zm5.45-14h-2.91v9.89h2.91Z" transform="translate(-0.21)"/><path class="cls-11" d="M569.19,152.28h2.66c0,1.12,0,2.25,0,3.38h6.42V158h-6.51c-.05.95-.1,1.91-.17,2.87h7.74v2.34h-7a11.58,11.58,0,0,0,7,4.68c-.69.79-1.38,1.64-2.06,2.54a13.81,13.81,0,0,1-6.89-6q-1.74,3.62-7.12,6.14c-.7-.85-1.37-1.64-2-2.36q5.79-2.26,6.88-5h-6.84v-2.34h7.55c.11-1,.19-1.91.23-2.87h-3.79a25.44,25.44,0,0,1-1.15,2.34,20.52,20.52,0,0,0-2.3-1.23,20.36,20.36,0,0,0,2.52-6.33l2.52.49c-.21.83-.44,1.62-.7,2.39h3C569.17,154.56,569.19,153.43,569.19,152.28Z" transform="translate(-0.21)"/><path class="cls-11" d="M583.72,156.22h1.93v6.4a10.25,10.25,0,0,1-.12,1.59q1.89,1.65,3.58,3.33a12.82,12.82,0,0,0,2.71-2.06,15.14,15.14,0,0,1-1.68-4.83c-.22.36-.44.71-.67,1.06-.2-.35-.5-.79-.89-1.33v4.17H586.5v-9.41h-3.63v9.48h-2.08V153.1h7.79v5.34a34.76,34.76,0,0,0,2.56-6.27l2.45.61c-.21.69-.43,1.36-.68,2h5.52v2.47h-1a19.23,19.23,0,0,1-2.47,8.31,14.15,14.15,0,0,0,3.6,2.39c-.52.72-1.06,1.55-1.62,2.51a15.58,15.58,0,0,1-3.53-2.87,14.58,14.58,0,0,1-4.05,3,20.23,20.23,0,0,0-1.17-2.05c-.36.32-.61.56-.76.71-.78-.95-1.63-1.88-2.54-2.79a10.23,10.23,0,0,1-3.42,4c-.36-.55-.82-1.18-1.39-1.91q3.69-2.62,3.69-6Zm9.61,7.28a17.09,17.09,0,0,0,1.7-6.24h-3.12l-.06.14A16.33,16.33,0,0,0,593.33,163.5Z" transform="translate(-0.21)"/><path class="cls-11" d="M566,119a25.85,25.85,0,0,0-.45-2.71,7.24,7.24,0,0,0,1.39.17,1,1,0,0,0,1.13-1,19.2,19.2,0,0,0,.14-2.53h-2.71c0,3.85-.63,6.72-1.82,8.63a23,23,0,0,0-2.19-1.82,13.84,13.84,0,0,0,1.56-7.18V106.3h8.71l-.08-3.06h2.63l0,3.06h2.53c-.33-.43-.85-1.07-1.58-1.93l2-1.05c.44.47,1,1.2,1.86,2.2l-1.43.78h2v2.23h-5.33a49,49,0,0,0,.4,5,26.92,26.92,0,0,0,2.18-4.09l2.29,1.06a34.5,34.5,0,0,1-3.69,6.36c.47,1.21.88,1.81,1.26,1.81a.4.4,0,0,0,.35-.27,6,6,0,0,0,.3-1.34,12.58,12.58,0,0,0,.18-1.85,22.25,22.25,0,0,0,2.38,1.13,15.46,15.46,0,0,1-.47,2.64,3.55,3.55,0,0,1-1.07,2.08,2.36,2.36,0,0,1-1.35.46c-1.35,0-2.46-.84-3.35-2.53a22.11,22.11,0,0,1-2.82,2.6,14.32,14.32,0,0,0-1.93-2,22,22,0,0,0,3.73-3.42,43,43,0,0,1-.92-7.68h-6.35v2.19h5.29c0,.18,0,1.26-.12,3.23a10.36,10.36,0,0,1-.5,3.63,3.25,3.25,0,0,1-1,1.11A6.32,6.32,0,0,1,566,119Z" transform="translate(-0.21)"/><path class="cls-11" d="M581.09,118.92l-.63-2.76,2.54-.66v-8.08h-2.32v-2.55h7v2.55h-2.14v7.38l2.51-.72c0,.45,0,.88,0,1.3a12.8,12.8,0,0,0,.07,1.41C585.52,117.5,583.19,118.22,581.09,118.92Zm11.08,2.36c-.23-1.12-.45-2-.67-2.79.87,0,1.67.06,2.41.06a1.22,1.22,0,0,0,1.4-1.16c.07-.77.14-3.63.2-8.56h-2.92a20.68,20.68,0,0,1-1.51,8.26,12.17,12.17,0,0,1-3.63,4.58c-.65-.7-1.34-1.37-2.06-2q4.74-3,4.74-10.81h-2.08v-2.45h2.15c0-1,0-2,0-3.14h2.47l0,3.14h5.45l-.2,10.55a12.19,12.19,0,0,1-.24,2.5,2.4,2.4,0,0,1-.66,1,2.65,2.65,0,0,1-1.19.61A21.89,21.89,0,0,1,592.17,121.28Z" transform="translate(-0.21)"/><path class="cls-11" d="M724.58,109.94h3.89v-2h-4.09l.62.3q-2.29,3.51-4,5.71c.89-.11,1.84-.21,2.86-.31-.08.84-.12,1.61-.15,2.3a45.49,45.49,0,0,0-5.53.83l-.72-2.07a19.09,19.09,0,0,0,2.8-3.46c-.93.07-1.73.15-2.41.25l-.69-2.12a25.25,25.25,0,0,0,3.21-6l2.45.91Q721.4,107,720,109.15l1.7-.09,1.12-1.9,1.22.59v-2h4.45v-2.33h2.6v2.33h4.64v2.21h-4.64v2h4.08v2.21H724.58Zm-6.85,10.82-.41-2.6q3.21-.41,6.87-1c-.08,1-.11,1.9-.1,2.58Q720.79,120.25,717.73,120.76Zm7,1v-8h10.19v8h-2.49v-1.1h-5.21v1.1Zm7.7-5.72h-5.21v2.36h5.21Z" transform="translate(-0.21)"/><path class="cls-11" d="M736.71,114h7.61v-1.27h-5.94v-8.64h14.4v8.64h-5.94V114h7.55v2.3H748.5a16.65,16.65,0,0,0,6.36,2.37,20,20,0,0,0-1.08,2.49,16.12,16.12,0,0,1-6.94-3.93v4.47h-2.52V117.4a18.11,18.11,0,0,1-6.55,3.88c-.38-.74-.81-1.51-1.28-2.32a16.26,16.26,0,0,0,6.29-2.63h-6.07Zm4.16-6.59h3.45v-1.32h-3.45Zm0,3.32h3.45v-1.32h-3.45Zm9.42-4.64h-3.45v1.32h3.45Zm0,4.64v-1.32h-3.45v1.32Z" transform="translate(-0.21)"/><path class="cls-11" d="M725.1,156.72H729v-2h-4.1l.63.3c-1.54,2.33-2.86,4.24-4,5.71.89-.11,1.85-.22,2.86-.32-.07.85-.12,1.61-.15,2.31a43.51,43.51,0,0,0-5.53.83l-.72-2.08a18.2,18.2,0,0,0,2.8-3.45c-.93.07-1.73.15-2.41.24l-.69-2.11a25.25,25.25,0,0,0,3.21-6l2.45.91c-1,1.83-1.94,3.47-2.89,4.93l1.71-.08,1.11-1.9,1.22.58v-2H729v-2.34h2.59v2.34h4.64v2.21h-4.64v2h4.09v2.21H725.1Zm-6.85,10.82-.41-2.6q3.21-.41,6.87-1c-.07,1-.11,1.9-.09,2.57C722.42,166.86,720.29,167.19,718.25,167.54Zm7,1v-8h10.18v8H733v-1.09h-5.22v1.09Zm7.7-5.71h-5.22v2.35H733Z" transform="translate(-0.21)"/><path class="cls-11" d="M737.23,160.8h7.61v-1.26H738.9v-8.65h14.4v8.65h-5.93v1.26h7.55v2.3H749a16.57,16.57,0,0,0,6.35,2.38A20.59,20.59,0,0,0,754.3,168a16,16,0,0,1-6.93-3.92v4.46h-2.53v-4.32a18.11,18.11,0,0,1-6.55,3.88c-.38-.74-.81-1.52-1.28-2.32a16,16,0,0,0,6.29-2.64h-6.07Zm4.16-6.58h3.45V152.9h-3.45Zm0,3.32h3.45v-1.32h-3.45Zm9.43-4.64h-3.45v1.32h3.45Zm0,4.64v-1.32h-3.45v1.32Z" transform="translate(-0.21)"/><path class="cls-11" d="M370.26,45.41H373V36.22h2.75v9.19h3.21V34.2H371V31.66h16.83V34.2h-6.11v4.06h5.46v2.53h-5.46v4.62h6.72V48H370.26Z" transform="translate(-0.21)"/><path class="cls-11" d="M389.64,32.47h5.17a21.4,21.4,0,0,0,.71-2.09l2.8.2c-.17.64-.36,1.27-.58,1.89h9.6v2.47h-10.6a24.4,24.4,0,0,1-2.67,4.39v9.45h-2.49V42.15c-.45.44-.93.88-1.43,1.31-.35-1.13-.7-2.09-1-2.88a21.63,21.63,0,0,0,4.53-5.64h-4Zm5.1,13h5V41.31h-4V38.86h4V35.52h2.66v3.34h4.1v2.45h-4.1v4.15h4.93v2.45H394.74Z" transform="translate(-0.21)"/><path class="cls-11" d="M426.6,45.91l-.84,2.43q-10.59.07-12-.28a4.06,4.06,0,0,1-2.35-1.52c-.77.73-1.51,1.49-2.24,2.28l-1-2.89c.57-.53,1.19-1,1.83-1.55V39.25h-1.68V36.8h4.25v7.55a4.36,4.36,0,0,0,1.34,1.1,4.31,4.31,0,0,0,1.54.48c.54.07,1.68.09,3.43.09Q421.71,46,426.6,45.91Zm-15.77-15.5q1.38,1.71,2.69,3.57l-2.29,1.5a38.94,38.94,0,0,0-2.52-3.71Zm12,8.2a59.8,59.8,0,0,1,3.45,5.4L424,45.2c-.24-.44-.47-.88-.72-1.32q-5.89.34-8.61.71l-1-2.08a12.81,12.81,0,0,0,3-4.06h-3.05V36h12.61v2.41h-6.54A29.19,29.19,0,0,1,417.34,42c1.22,0,2.8-.12,4.72-.25-.42-.69-.84-1.35-1.27-2Zm2.4-4.8H414.81V31.4h10.38Z" transform="translate(-0.21)"/><path class="cls-11" d="M432.09,35.26l2.17,1.39c-.55.8-1.14,1.58-1.78,2.35v9.62H429.9V41.78c-.57.55-1.16,1.09-1.78,1.62q-.37-1-1-2.58A29.29,29.29,0,0,0,432.09,35.26Zm-.3-4.83c.79.55,1.54,1.08,2.23,1.6a39.07,39.07,0,0,1-5.18,4.84,26.17,26.17,0,0,0-1.65-2.19A26,26,0,0,0,431.79,30.43Zm2.73,6.63H445.6v2.41h-2.9v6a3.33,3.33,0,0,1-.69,2.27,2.75,2.75,0,0,1-2,.87c-.84.05-2.09.09-3.75.11a26.68,26.68,0,0,0-.69-2.6c1.29.09,2.31.13,3.05.13.9,0,1.35-.47,1.35-1.43V39.47h-5.49Zm.61-5.31h9.65v2.41h-9.65Z" transform="translate(-0.21)"/></svg>