<svg id="Layer_1" data-name="Layer 1" xmlns="http://www.w3.org/2000/svg" xmlns:xlink="http://www.w3.org/1999/xlink" viewBox="0 0 660 469"><defs><style>.cls-1{fill:#fff;}.cls-2{fill:#83b9f9;}.cls-2,.cls-6{opacity:0.15;}.cls-2,.cls-4,.cls-6{isolation:isolate;}.cls-3{fill:#0078d4;}.cls-4{fill:#37c2b1;opacity:0.2;}.cls-16,.cls-17,.cls-5{fill:none;}.cls-5{stroke:#258277;}.cls-16,.cls-5{stroke-width:0.5px;}.cls-18,.cls-6{fill:#3c3c41;}.cls-7{fill:url(#linear-gradient);}.cls-8{fill:#767676;}.cls-9{fill:#f2f2f2;}.cls-10{fill:url(#linear-gradient-2);}.cls-11{fill:#8e714e;}.cls-12{fill:#442d22;}.cls-13{fill:#a6a385;}.cls-14{fill:#499d4a;}.cls-15{fill:#58aa50;}.cls-16{stroke:#75757a;}.cls-17{stroke:#3c3c41;}.cls-19{fill:#1e1e1e;}</style><linearGradient id="linear-gradient" x1="24.05" y1="624.92" x2="24.05" y2="625.91" gradientTransform="matrix(53.42, 0, 0, -31.65, -1171.6, 20184.65)" gradientUnits="userSpaceOnUse"><stop offset="0" stop-color="#32bedd"/><stop offset="0.18" stop-color="#32caea"/><stop offset="0.41" stop-color="#32d2f2"/><stop offset="0.78" stop-color="#32d4f5"/></linearGradient><linearGradient id="linear-gradient-2" x1="24.05" y1="621.82" x2="24.05" y2="620.82" gradientTransform="matrix(53.42, 0, 0, -31.65, -964.62, 20184.65)" xlink:href="#linear-gradient"/></defs><title>OJ105265244</title><g id="Page-1"><g id="_4-service-with-selector" data-name="4-service-with-selector"><g id="Shapes"><rect id="Rectangle-path" class="cls-1" width="659.28" height="468.6"/><g id="Group"><rect id="Rectangle-path-2" data-name="Rectangle-path" class="cls-1" x="0.54" y="41.75" width="658.21" height="400.51"/><rect id="Rectangle-path-3" data-name="Rectangle-path" class="cls-2" x="0.54" y="41.75" width="658.21" height="400.51"/><path id="Shape" class="cls-1" d="M658.57,41.92V442.14H.72V41.92Zm.36-.36H.36V442.43H658.93Z"/><path id="Shape-2" data-name="Shape" class="cls-3" d="M658.93,41.56V442.43H.36V41.56Zm.35-.36H0V442.79H659.28V41.2Z"/></g><g id="Group-2" data-name="Group"><rect id="Rectangle-path-4" data-name="Rectangle-path" class="cls-1" x="12.89" y="212.09" width="200.43" height="221.55"/><rect id="Rectangle-path-5" data-name="Rectangle-path" class="cls-4" x="12.89" y="212.09" width="200.43" height="221.55"/><rect id="Rectangle-path-6" data-name="Rectangle-path" class="cls-5" x="12.89" y="212.09" width="200.43" height="221.55"/></g><g id="Group-3" data-name="Group"><rect id="Rectangle-path-7" data-name="Rectangle-path" class="cls-1" x="34.36" y="319.11" width="157.48" height="100.22"/><rect id="Rectangle-path-8" data-name="Rectangle-path" class="cls-6" x="34.36" y="319.11" width="157.48" height="100.22"/></g><g id="Group-4" data-name="Group"><path id="Shape-3" data-name="Shape" class="cls-7" d="M86.4,371.83h53.42v29.8a1.83,1.83,0,0,1-.51,1.31,1.82,1.82,0,0,1-1.3.55H88.19a1.79,1.79,0,0,1-1.79-1.79Z"/><path id="Shape-4" data-name="Shape" class="cls-8" d="M88.19,360.54H138a1.81,1.81,0,0,1,1.81,1.79v9.57H86.4v-9.6A1.79,1.79,0,0,1,88.19,360.54Z"/><circle id="Oval" class="cls-9" cx="125.1" cy="385.66" r="4.34"/><circle id="Oval-2" data-name="Oval" class="cls-9" cx="113.29" cy="385.66" r="4.34"/><circle id="Oval-3" data-name="Oval" class="cls-9" cx="101.1" cy="385.66" r="4.34"/><rect id="Rectangle-path-9" data-name="Rectangle-path" class="cls-9" x="93.59" y="363.86" width="39.06" height="4.58" rx="0.61"/></g><g id="Group-5" data-name="Group"><rect id="Rectangle-path-10" data-name="Rectangle-path" class="cls-1" x="219.88" y="212.09" width="200.43" height="221.55"/><rect id="Rectangle-path-11" data-name="Rectangle-path" class="cls-4" x="219.88" y="212.09" width="200.43" height="221.55"/><rect id="Rectangle-path-12" data-name="Rectangle-path" class="cls-5" x="219.88" y="212.09" width="200.43" height="221.55"/></g><g id="Group-6" data-name="Group"><rect id="Rectangle-path-13" data-name="Rectangle-path" class="cls-1" x="241.35" y="319.11" width="157.48" height="100.22"/><rect id="Rectangle-path-14" data-name="Rectangle-path" class="cls-6" x="241.35" y="319.11" width="157.48" height="100.22"/></g><g id="Group-7" data-name="Group"><path id="Shape-5" data-name="Shape" class="cls-10" d="M293.39,371.83h53.42v29.8a1.76,1.76,0,0,1-.5,1.3,1.8,1.8,0,0,1-1.28.56H295.18a1.79,1.79,0,0,1-1.79-1.79Z"/><path id="Shape-6" data-name="Shape" class="cls-8" d="M295.18,360.54H345a1.79,1.79,0,0,1,1.79,1.79v9.57H293.39v-9.6A1.79,1.79,0,0,1,295.18,360.54Z"/><circle id="Oval-4" data-name="Oval" class="cls-9" cx="332.1" cy="385.66" r="4.34"/><circle id="Oval-5" data-name="Oval" class="cls-9" cx="320.29" cy="385.66" r="4.34"/><circle id="Oval-6" data-name="Oval" class="cls-9" cx="308.1" cy="385.66" r="4.34"/><rect id="Rectangle-path-15" data-name="Rectangle-path" class="cls-9" x="300.59" y="363.86" width="39.06" height="4.58" rx="0.61"/></g><g id="Group-8" data-name="Group"><rect id="Rectangle-path-16" data-name="Rectangle-path" class="cls-1" x="448.94" y="212.09" width="200.43" height="221.55"/><rect id="Rectangle-path-17" data-name="Rectangle-path" class="cls-4" x="448.94" y="212.09" width="200.43" height="221.55"/><rect id="Rectangle-path-18" data-name="Rectangle-path" class="cls-5" x="448.94" y="212.09" width="200.43" height="221.55"/></g><g id="Group-9" data-name="Group"><rect id="Rectangle-path-19" data-name="Rectangle-path" class="cls-1" x="470.42" y="319.11" width="157.48" height="100.22"/><rect id="Rectangle-path-20" data-name="Rectangle-path" class="cls-6" x="470.42" y="319.11" width="157.48" height="100.22"/></g><g id="Group-10" data-name="Group"><path id="Shape-7" data-name="Shape" class="cls-11" d="M599.11,378.89c-.1,0-.21.26-.21.37v4.56a.17.17,0,0,0,.13.13h1.71a4.53,4.53,0,0,0,1.71-.25,2.22,2.22,0,0,0,1.1-2.09c0-2-1.43-2.86-3.52-2.86a4.31,4.31,0,0,0-.88,0Zm5.38,9.32c0-2.06-1.53-3.21-4.29-3.21q-.6,0-1.2,0s-.16.08-.16.13v4.76a1.64,1.64,0,0,0,.69,1.13,5,5,0,0,0,1.81.24,2.86,2.86,0,0,0,3.1-3.06Zm-9.63-10.49h6.64c1.82,0,4.3.66,4.3,3.36a3.32,3.32,0,0,1-2.18,2.87V384a3.76,3.76,0,0,1,3.41,3.71,4.42,4.42,0,0,1-3.08,4.07,10.19,10.19,0,0,1-3.87.64c-1.07,0-3.92-.13-5.51-.09-.17,0,.15-.81.29-.93a3.92,3.92,0,0,0,1.07-.17c.56-.14.62-.31.7-1.17s0-3.31,0-5.14v-5.07c0-.77-.24-.86-.7-1l-1.43-.2c-.11-.11.24-.81.37-.9Zm-12,13a4.23,4.23,0,0,0,2.36.56,4.61,4.61,0,0,0,3.34-1.19,6.35,6.35,0,0,0,1.87-5,6,6,0,0,0-2.73-5.41,7.48,7.48,0,0,0-3.93-.92,3,3,0,0,0-1.15.16.57.57,0,0,0-.22.33v10.47A1.3,1.3,0,0,0,582.82,390.69Zm-4.73-13h7.38a7.6,7.6,0,0,1,5.09,1.63,6.74,6.74,0,0,1,2.31,5.33,7,7,0,0,1-2.86,6,9.68,9.68,0,0,1-6,1.69h-5.87c-.1-.2.17-.93.33-.95a3.14,3.14,0,0,0,1-.18c.44-.17.53-.4.59-1.18.07-1.43,0-3.16,0-5.12v-5c0-.89-.39-.92-1-1a9.68,9.68,0,0,0-1.31-.22c-.09-.14.28-.79.4-.92Z"/><path id="Shape-8" data-name="Shape" class="cls-12" d="M552.85,391.53a4.76,4.76,0,0,1-1.43-.35.73.73,0,0,1-.16-.33v-4.23a4.78,4.78,0,0,0-.67-2.86,2.84,2.84,0,0,0-2.42-1.25A5.52,5.52,0,0,0,545,384s-.19.15-.17,0a6.91,6.91,0,0,1,.07-1,.54.54,0,0,0-.16-.43,13.39,13.39,0,0,1-3.22.83c-.5.1-.63.59-.12.76a5,5,0,0,1,1.24.53.68.68,0,0,1,.18.59v5.28c0,.52-.17.7-.54.79a7.25,7.25,0,0,0-.88.16,1.27,1.27,0,0,0,0,.94c.23,0,1.44-.07,2.44-.07,1.43,0,2.09.07,2.45.07a1.45,1.45,0,0,0,.1-.94,3.44,3.44,0,0,1-1-.15c-.37-.08-.49-.27-.5-.7v-5a1,1,0,0,1,.25-.78,3.13,3.13,0,0,1,1.94-.71,2.13,2.13,0,0,1,1.43.49,2,2,0,0,1,.66,1.3c.1.9.07,2.68.07,4.22,0,.83-.07,1-.39,1.15a3.88,3.88,0,0,1-1,.18,1.25,1.25,0,0,0,0,.93h4.83a1.47,1.47,0,0,0,0-.88Zm5.73-8c-1.12,0-1.8.86-1.8,2.19s.61,2.86,2.32,2.86a1.65,1.65,0,0,0,1.08-.41,2.86,2.86,0,0,0,.66-1.92c0-1.73-.84-2.78-2.26-2.78Zm-.16,9.22a1.81,1.81,0,0,0-.88.23c-.88.57-1.28,1.1-1.28,1.76a1.84,1.84,0,0,0,.73,1.43,3.65,3.65,0,0,0,2.51.77c2.12,0,3.06-1.14,3.06-2.26a1.61,1.61,0,0,0-1.22-1.62,8.62,8.62,0,0,0-2.86-.37Zm.16,5.42a4.63,4.63,0,0,1-3-.87,2.71,2.71,0,0,1-1.1-2.07,1.6,1.6,0,0,1,.41-1,11,11,0,0,1,1.92-1.54v-.09a.15.15,0,0,0-.09-.1,2,2,0,0,1-1.36-1.31.46.46,0,0,1,.13-.38l.59-.37a9.9,9.9,0,0,0,1-.63.18.18,0,0,0-.09-.23,3,3,0,0,1-2.19-3.19,3.13,3.13,0,0,1,1.33-2.62,6,6,0,0,1,3-1,6.45,6.45,0,0,1,2.29.5,4,4,0,0,0,1.36.21,1.82,1.82,0,0,0,1.43-.54,1.43,1.43,0,0,1,.09.42,1.67,1.67,0,0,1-.27.95,1.25,1.25,0,0,1-.92.41H563a5.07,5.07,0,0,1-.54-.09h-.09v.14a6.76,6.76,0,0,1,.11.89,3.41,3.41,0,0,1-1.43,3,4.87,4.87,0,0,1-2.43.93h-.26c-.16,0-.59.25-.59.6s.2.68,1.09.76h.59a17.94,17.94,0,0,1,3.35.41,2.34,2.34,0,0,1,1.57,2.23,4.58,4.58,0,0,1-2.94,3.88,6.78,6.78,0,0,1-2.77.61Zm11.88-14.53a2,2,0,0,0-1.13.3,3.24,3.24,0,0,0-1.23,3c0,2.73,1.43,4.65,3.34,4.65a2.19,2.19,0,0,0,1.43-.5,3.69,3.69,0,0,0,.91-2.86c0-2.72-1.36-4.53-3.33-4.53Zm.38,8.92a4.64,4.64,0,0,1-3.57-1.41,4.58,4.58,0,0,1-1.24-3.63,4.48,4.48,0,0,1,2.06-4,6.32,6.32,0,0,1,3.19-.95,4.49,4.49,0,0,1,4.61,4.74,4.87,4.87,0,0,1-2.19,4.3,5.74,5.74,0,0,1-2.86.9Zm-37.23-8.92a2,2,0,0,0-1.11.3,3.25,3.25,0,0,0-1.24,3c0,2.73,1.44,4.65,3.34,4.65a2.09,2.09,0,0,0,1.43-.5,3.66,3.66,0,0,0,.92-2.86c0-2.72-1.33-4.53-3.34-4.53Zm.39,8.92a4.6,4.6,0,0,1-4.83-5,4.51,4.51,0,0,1,2.07-4,6.32,6.32,0,0,1,3.19-.95,4.47,4.47,0,0,1,4.61,4.74,4.84,4.84,0,0,1-2.19,4.3,5.74,5.74,0,0,1-2.87.9Zm-23.84-.21a.85.85,0,0,1-.07-.47.6.6,0,0,1,.07-.32,7.15,7.15,0,0,0,.92-.19c.41-.1.58-.32.6-.85v-5.27a.65.65,0,0,0-.23-.59,4.78,4.78,0,0,0-1.25-.54.29.29,0,0,1-.3-.29c0-.13.13-.27.4-.32a14.58,14.58,0,0,0,3.2-.81.54.54,0,0,1,.1.33v.23a5,5,0,0,0,0,.77.16.16,0,0,0,.15.16h.13a5.8,5.8,0,0,1,3.17-1.43,2.67,2.67,0,0,1,2.42,1.43.18.18,0,0,0,.15.08.14.14,0,0,0,.12-.07A6.32,6.32,0,0,1,523,382.8c1.93,0,3.09,1.43,3.09,3.88V391a.64.64,0,0,0,.37.5,4.18,4.18,0,0,0,1.21.28,1.73,1.73,0,0,1-.13.81h-2.11a24.9,24.9,0,0,0-2.6.07,2.15,2.15,0,0,1,0-.8,5.22,5.22,0,0,0,.78-.19c.42-.12.53-.3.55-.85s.08-3.78,0-4.59a2.06,2.06,0,0,0-2.12-1.82,3.67,3.67,0,0,0-2.13.82.29.29,0,0,0-.09.21,9.92,9.92,0,0,1,.09,1.72V391a.61.61,0,0,0,.5.64h.31l.66.14a1.18,1.18,0,0,1,0,.59.31.31,0,0,1-.09.22h-4.75a1.48,1.48,0,0,1,0-.42.68.68,0,0,1,.09-.39h.28l.68-.13c.34-.1.47-.3.48-.75a34.52,34.52,0,0,0,0-4.77,2,2,0,0,0-2-1.82,3.71,3.71,0,0,0-2.12.82.59.59,0,0,0-.19.47V391a.64.64,0,0,0,.59.65,3.55,3.55,0,0,0,.47.09h.39a2,2,0,0,1-.08.8h-4a5.08,5.08,0,0,0-.78,0Z"/><g id="Shape-9" data-name="Shape"><path class="cls-1" d="M499.31,397.39l-.86-.29s.1-4.36-1.43-4.68c-1-1.2.17-51.3,3.92-.16a3.07,3.07,0,0,0-1.53,1.75,15.91,15.91,0,0,0-.07,3.38Z"/><path class="cls-13" d="M499.31,397.39l-.86-.29s.1-4.36-1.43-4.68c-1-1.2.17-51.3,3.92-.16a3.07,3.07,0,0,0-1.53,1.75,15.91,15.91,0,0,0-.07,3.38Z"/><path class="cls-1" d="M499.77,393.18A15.13,15.13,0,0,0,505.49,378c-1.69-7.45-5.72-9.89-6.11-10.83a10.49,10.49,0,0,1-.93-1.83l.32,20.7s-.65,6.35,1,7.16"/><path class="cls-14" d="M499.77,393.18A15.13,15.13,0,0,0,505.49,378c-1.69-7.45-5.72-9.89-6.11-10.83a10.49,10.49,0,0,1-.93-1.83l.32,20.7s-.65,6.35,1,7.16"/><path class="cls-1" d="M498,393.47s-7-4.8-6.62-13.25a17.78,17.78,0,0,1,6.33-13.34,2,2,0,0,0,.69-1.59c.43.93.36,14,.41,15.58C499,386.81,498.49,392.32,498,393.47Z"/><path class="cls-15" d="M498,393.47s-7-4.8-6.62-13.25a17.78,17.78,0,0,1,6.33-13.34,2,2,0,0,0,.69-1.59c.43.93.36,14,.41,15.58C499,386.81,498.49,392.32,498,393.47Z"/></g></g><g id="Group-11" data-name="Group"><rect id="Rectangle-path-21" data-name="Rectangle-path" class="cls-1" x="84.25" y="55.88" width="264.86" height="100.22"/><rect id="Rectangle-path-22" data-name="Rectangle-path" class="cls-16" x="84.25" y="55.88" width="264.86" height="100.22"/></g><g id="Group-12" data-name="Group"><path id="Shape-10" data-name="Shape" class="cls-17" d="M112.89,204.23V191.89a7.15,7.15,0,0,1,7.16-7.16H313.32a7.16,7.16,0,0,1,7.16,7.16v12.34"/><polygon id="Shape-11" data-name="Shape" class="cls-18" points="118.24 202.65 112.89 211.93 107.53 202.65 118.24 202.65"/><polygon id="Shape-12" data-name="Shape" class="cls-18" points="315.13 202.65 320.48 211.93 325.83 202.65 315.13 202.65"/></g><path id="Shape-13" data-name="Shape" class="cls-17" d="M216.68,184.73V156.1"/></g><g id="Text"><g id="Group-13" data-name="Group"><path id="Shape-14" data-name="Shape" class="cls-19" d="M174.82,64.4V76.69h-2.63v-9.3a6,6,0,0,1-.52.36c-.21.11-.42.22-.64.31a4.65,4.65,0,0,1-.69.23,3.4,3.4,0,0,1-.72.14V66.2a10.28,10.28,0,0,0,1.95-.77,11.68,11.68,0,0,0,1.65-1Z"/><path id="Shape-15" data-name="Shape" class="cls-19" d="M182.6,76.91q-4.31,0-4.3-6a8.32,8.32,0,0,1,1.16-4.77,3.91,3.91,0,0,1,3.38-1.63c2.86,0,4.19,2,4.19,6.13a8.17,8.17,0,0,1-1.14,4.68A3.81,3.81,0,0,1,182.6,76.91Zm.12-10.42c-1.16,0-1.73,1.43-1.73,4.29s.57,4.07,1.69,4.07,1.65-1.43,1.65-4.2S183.8,66.49,182.72,66.49Z"/><path id="Shape-16" data-name="Shape" class="cls-19" d="M189.91,76.91a1.54,1.54,0,0,1-1.09-.42,1.22,1.22,0,0,1-.44-1,1.29,1.29,0,0,1,.44-1,1.68,1.68,0,0,1,1.13-.39,1.55,1.55,0,0,1,1.11.4,1.35,1.35,0,0,1,0,2A1.62,1.62,0,0,1,189.91,76.91Z"/><path id="Shape-17" data-name="Shape" class="cls-19" d="M201.38,70.09A11.56,11.56,0,0,1,201,73a6.7,6.7,0,0,1-1,2.13,4.7,4.7,0,0,1-1.64,1.33,5,5,0,0,1-2.21.48,6.22,6.22,0,0,1-2.55-.48V74.2a4.09,4.09,0,0,0,2.28.63A2.64,2.64,0,0,0,198,73.9a4.16,4.16,0,0,0,.77-2.69,2.73,2.73,0,0,1-2.42,1.18,3.35,3.35,0,0,1-1.43-.28,3.15,3.15,0,0,1-1.07-.77,3.46,3.46,0,0,1-.72-1.17,4.17,4.17,0,0,1-.26-1.44,4.43,4.43,0,0,1,.38-1.68,3.92,3.92,0,0,1,.85-1.34,4.12,4.12,0,0,1,1.35-.87,4.64,4.64,0,0,1,1.73-.3,4.09,4.09,0,0,1,1.76.37,3.8,3.8,0,0,1,1.32,1.1,5.13,5.13,0,0,1,.85,1.78A8.91,8.91,0,0,1,201.38,70.09Zm-2.68-1.43a2.85,2.85,0,0,0-.11-.87,2.25,2.25,0,0,0-.33-.7,1.4,1.4,0,0,0-1.18-.63,1.29,1.29,0,0,0-.63.14,1.83,1.83,0,0,0-.5.42,2.43,2.43,0,0,0-.33.64,3,3,0,0,0-.11.79,3.4,3.4,0,0,0,.11.84,2.3,2.3,0,0,0,.33.62,1.38,1.38,0,0,0,.52.37,1.7,1.7,0,0,0,.67.13,1.64,1.64,0,0,0,.65-.13,1.58,1.58,0,0,0,.48-.37,1.49,1.49,0,0,0,.32-.56,1.83,1.83,0,0,0,.11-.66Z"/><path id="Shape-18" data-name="Shape" class="cls-19" d="M211.46,72.69a4.13,4.13,0,0,1-.32,1.66,3.8,3.8,0,0,1-.86,1.34,4.06,4.06,0,0,1-1.31.89,4.38,4.38,0,0,1-1.68.33,4.09,4.09,0,0,1-1.82-.39,3.55,3.55,0,0,1-1.34-1.09,5,5,0,0,1-.85-1.76,8.54,8.54,0,0,1-.3-2.36,9.87,9.87,0,0,1,.39-2.86,6.29,6.29,0,0,1,1.09-2.16,4.85,4.85,0,0,1,1.71-1.44,5.09,5.09,0,0,1,2.27-.48,5.32,5.32,0,0,1,2.16.33v2.35a3.87,3.87,0,0,0-2-.52,2.85,2.85,0,0,0-1.22.26,2.52,2.52,0,0,0-.94.74,3.33,3.33,0,0,0-.6,1.15,4.94,4.94,0,0,0-.25,1.43,2.87,2.87,0,0,1,2.52-1.18,3.68,3.68,0,0,1,1.35.26,3.13,3.13,0,0,1,1,.78,3.34,3.34,0,0,1,.67,1.17A4.78,4.78,0,0,1,211.46,72.69Zm-2.59.17c0-1.29-.53-1.94-1.59-1.94a1.85,1.85,0,0,0-.66.13,1.38,1.38,0,0,0-.5.39,1.78,1.78,0,0,0-.32.57,2,2,0,0,0-.11.73,3.32,3.32,0,0,0,.11.83,2.45,2.45,0,0,0,.36.63,1.53,1.53,0,0,0,.52.46,1.1,1.1,0,0,0,.64.17,1.66,1.66,0,0,0,.66-.14,1.6,1.6,0,0,0,.49-.41,1.7,1.7,0,0,0,.31-.65A3.31,3.31,0,0,0,208.87,72.86Z"/><path id="Shape-19" data-name="Shape" class="cls-19" d="M214.32,76.91a1.54,1.54,0,0,1-1.09-.42,1.28,1.28,0,0,1-.43-1,1.22,1.22,0,0,1,.45-1,1.67,1.67,0,0,1,1.11-.39,1.58,1.58,0,0,1,1.12.4,1.26,1.26,0,0,1,.43,1,1.25,1.25,0,0,1-.44,1A1.62,1.62,0,0,1,214.32,76.91Z"/><path id="Shape-20" data-name="Shape" class="cls-19" d="M221.55,76.91q-4.29,0-4.29-6a8.16,8.16,0,0,1,1.17-4.77,3.86,3.86,0,0,1,3.36-1.63c2.87,0,4.2,2,4.2,6.13a8.1,8.1,0,0,1-1.15,4.68A3.76,3.76,0,0,1,221.55,76.91Zm.13-10.42q-1.73,0-1.72,4.29c0,2.87.56,4.07,1.68,4.07s1.64-1.43,1.64-4.2S222.75,66.49,221.68,66.49Z"/><path id="Shape-21" data-name="Shape" class="cls-19" d="M228.87,76.91a1.51,1.51,0,0,1-1.09-.42,1.23,1.23,0,0,1-.45-1,1.3,1.3,0,0,1,.45-1,1.68,1.68,0,0,1,1.13-.39,1.53,1.53,0,0,1,1.1.4,1.28,1.28,0,0,1,.45,1,1.32,1.32,0,0,1-.45,1A1.58,1.58,0,0,1,228.87,76.91Z"/><path id="Shape-22" data-name="Shape" class="cls-19" d="M238.2,64.4V76.69h-2.65v-9.3a3,3,0,0,1-.51.36c-.21.11-.42.22-.63.31a6.35,6.35,0,0,1-.7.23,3.43,3.43,0,0,1-.71.14V66.2a10.28,10.28,0,0,0,1.95-.77,11.68,11.68,0,0,0,1.65-1Z"/><path id="Shape-23" data-name="Shape" class="cls-19" d="M243.38,70.77a1.59,1.59,0,0,1-1.08-.4,1.31,1.31,0,0,1-.43-1,1.21,1.21,0,0,1,.44-1,1.68,1.68,0,0,1,1.12-.39,1.62,1.62,0,0,1,1.11.39,1.36,1.36,0,0,1,0,2A1.66,1.66,0,0,1,243.38,70.77Zm0,6.14a1.5,1.5,0,0,1-1.08-.42,1.24,1.24,0,0,1-.43-1,1.21,1.21,0,0,1,.44-1,1.65,1.65,0,0,1,1.07-.32,1.58,1.58,0,0,1,1.12.4,1.28,1.28,0,0,1,.43,1,1.25,1.25,0,0,1-.44,1A1.64,1.64,0,0,1,243.38,76.91Z"/><path id="Shape-24" data-name="Shape" class="cls-19" d="M246.43,73.46a3.17,3.17,0,0,1,.15-1,2.42,2.42,0,0,1,.44-.86,3.12,3.12,0,0,1,.73-.72,3.67,3.67,0,0,1,1-.51,4,4,0,0,1-1.43-1.16,2.7,2.7,0,0,1-.5-1.58,2.77,2.77,0,0,1,.28-1.27,3.65,3.65,0,0,1,.81-1,4,4,0,0,1,1.23-.67,5.28,5.28,0,0,1,3.1,0,3.93,3.93,0,0,1,1.24.67,2.85,2.85,0,0,1,1.08,2.26,2.43,2.43,0,0,1-.53,1.55,4,4,0,0,1-1.43,1.16,3.81,3.81,0,0,1,1,.51,3.21,3.21,0,0,1,.75.72,3.16,3.16,0,0,1,.46.87,3.7,3.7,0,0,1,.14,1,3.23,3.23,0,0,1-.3,1.43,3,3,0,0,1-.89,1.09,3.87,3.87,0,0,1-1.34.72,6.36,6.36,0,0,1-3.46,0,4.12,4.12,0,0,1-1.34-.71,3.27,3.27,0,0,1-1.25-2.5Zm2.51-.23a2.06,2.06,0,0,0,.13.74,1.35,1.35,0,0,0,.36.55,1.8,1.8,0,0,0,.55.36,2.64,2.64,0,0,0,.73.11,1.94,1.94,0,0,0,.71-.13,1.74,1.74,0,0,0,.55-.34,1.79,1.79,0,0,0,.38-.56,2,2,0,0,0,0-1.42,1.6,1.6,0,0,0-.92-.94,1.79,1.79,0,0,0-.72-.15,2.17,2.17,0,0,0-.71.13,1.43,1.43,0,0,0-.56.38,1.84,1.84,0,0,0-.37.55A2,2,0,0,0,248.94,73.23Zm.37-5.33a1.42,1.42,0,0,0,.12.61,1.43,1.43,0,0,0,.75.8,1.29,1.29,0,0,0,1.12,0,1.39,1.39,0,0,0,.46-.33,1.6,1.6,0,0,0,.31-.47,1.61,1.61,0,0,0,0-1.22,1.31,1.31,0,0,0-.77-.8,1.18,1.18,0,0,0-.56-.12,1.43,1.43,0,0,0-.58.12,1.22,1.22,0,0,0-.45.33,1.5,1.5,0,0,0-.3.48A1.8,1.8,0,0,0,249.31,67.9Z"/><path id="Shape-25" data-name="Shape" class="cls-19" d="M260.56,76.91q-4.29,0-4.29-6a8.24,8.24,0,0,1,1.16-4.77,3.85,3.85,0,0,1,3.36-1.63c2.87,0,4.2,2,4.2,6.13a8.1,8.1,0,0,1-1.15,4.68A3.76,3.76,0,0,1,260.56,76.91Zm.12-10.42q-1.73,0-1.72,4.29c0,2.87.56,4.07,1.68,4.07s1.64-1.43,1.64-4.2-.57-4.16-1.64-4.16Z"/></g></g></g></g><path class="cls-19" d="M101.61,232.33v4.34H98.77v-12.6h4.45q4.75,0,4.76,4a3.85,3.85,0,0,1-1.37,3.08,5.41,5.41,0,0,1-3.65,1.17Zm0-6.08v3.93h1.12c1.51,0,2.26-.67,2.26-2s-.75-1.94-2.26-1.94Z"/><path class="cls-19" d="M113.31,236.89a4.85,4.85,0,0,1-3.54-1.26,5.21,5.21,0,0,1,0-6.92,5,5,0,0,1,3.61-1.26,4.8,4.8,0,0,1,3.52,1.26,4.49,4.49,0,0,1,1.27,3.34,4.79,4.79,0,0,1-1.31,3.54A4.89,4.89,0,0,1,113.31,236.89Zm.07-7.31a1.82,1.82,0,0,0-1.53.68,2.94,2.94,0,0,0-.55,1.91c0,1.73.7,2.59,2.1,2.59s2-.88,2-2.66S114.72,229.58,113.38,229.58Z"/><path class="cls-19" d="M128.83,236.67h-2.78v-1.24h0a3.14,3.14,0,0,1-2.79,1.46,3.43,3.43,0,0,1-2.72-1.19,5,5,0,0,1-1-3.33,5.33,5.33,0,0,1,1.13-3.57,3.7,3.7,0,0,1,3-1.35A2.54,2.54,0,0,1,126,228.7h0v-5.35h2.78Zm-2.73-4.38v-.67a2.13,2.13,0,0,0-.51-1.46,1.8,1.8,0,0,0-2.76.14,3.36,3.36,0,0,0-.52,2,2.87,2.87,0,0,0,.5,1.83,1.78,1.78,0,0,0,2.76,0A2.8,2.8,0,0,0,126.1,232.29Z"/><path class="cls-19" d="M65.77,242.48v12.89H63v-9.76a2.86,2.86,0,0,1-.54.38,6.77,6.77,0,0,1-.66.33,6.28,6.28,0,0,1-.73.25,6.58,6.58,0,0,1-.75.14v-2.34a11.41,11.41,0,0,0,2-.81,10.16,10.16,0,0,0,1.73-1.08Z"/><path class="cls-19" d="M73.92,255.59q-4.5,0-4.5-6.32a8.55,8.55,0,0,1,1.22-5,4.05,4.05,0,0,1,3.52-1.72q4.4,0,4.4,6.43a8.44,8.44,0,0,1-1.2,4.9A4,4,0,0,1,73.92,255.59ZM74,244.67q-1.8,0-1.8,4.53,0,4.26,1.77,4.26c1.14,0,1.72-1.46,1.72-4.39S75.17,244.67,74,244.67Z"/><path class="cls-19" d="M81.57,255.59a1.64,1.64,0,0,1-1.14-.42,1.4,1.4,0,0,1-.46-1,1.33,1.33,0,0,1,.47-1,1.76,1.76,0,0,1,1.18-.4,1.63,1.63,0,0,1,1.16.41,1.42,1.42,0,0,1,0,2.08A1.73,1.73,0,0,1,81.57,255.59Z"/><path class="cls-19" d="M85.07,255v-2.41a4.93,4.93,0,0,0,3,.92,2.62,2.62,0,0,0,1.66-.46,1.5,1.5,0,0,0,.59-1.27,1.44,1.44,0,0,0-.73-1.3,3.75,3.75,0,0,0-2-.46H86.35v-2.13h1.09c1.64,0,2.46-.54,2.46-1.63s-.63-1.54-1.89-1.54a4.24,4.24,0,0,0-2.46.82v-2.27a6.83,6.83,0,0,1,3.09-.67,4.67,4.67,0,0,1,3,.87,2.78,2.78,0,0,1,1.08,2.26,3,3,0,0,1-2.51,3.1v0a3.37,3.37,0,0,1,2.11,1,2.72,2.72,0,0,1,.77,2,3.4,3.4,0,0,1-1.29,2.8,5.62,5.62,0,0,1-3.57,1A6.79,6.79,0,0,1,85.07,255Z"/><path class="cls-19" d="M98.17,253.06h5.34v2.31H95.13v-1a4.39,4.39,0,0,1,.32-1.74,5.92,5.92,0,0,1,.82-1.38,7.87,7.87,0,0,1,1.08-1.08c.39-.31.76-.59,1.11-.85s.69-.51,1-.75a5.21,5.21,0,0,0,.7-.72,3,3,0,0,0,.43-.72,2.21,2.21,0,0,0,.14-.78,1.55,1.55,0,0,0-.46-1.22,2.05,2.05,0,0,0-1.4-.41,4.7,4.7,0,0,0-3.11,1.29v-2.44a6.68,6.68,0,0,1,3.71-1.07,5.71,5.71,0,0,1,1.72.25,3.67,3.67,0,0,1,1.29.72,3,3,0,0,1,.8,1.13,3.69,3.69,0,0,1,.28,1.48,4.16,4.16,0,0,1-.27,1.55,5,5,0,0,1-.71,1.23,6.16,6.16,0,0,1-1,1c-.38.31-.78.61-1.2.89l-.81.6a7,7,0,0,0-.69.58,3,3,0,0,0-.48.56A1,1,0,0,0,98.17,253.06Z"/><path class="cls-19" d="M107.16,255.59a1.61,1.61,0,0,1-1.14-.42,1.36,1.36,0,0,1-.46-1,1.33,1.33,0,0,1,.47-1,1.71,1.71,0,0,1,1.17-.4,1.64,1.64,0,0,1,1.17.41,1.42,1.42,0,0,1,0,2.08A1.76,1.76,0,0,1,107.16,255.59Z"/><path class="cls-19" d="M114.73,255.59q-4.5,0-4.5-6.32a8.62,8.62,0,0,1,1.22-5,4.07,4.07,0,0,1,3.53-1.72q4.39,0,4.4,6.43a8.44,8.44,0,0,1-1.2,4.9A4,4,0,0,1,114.73,255.59Zm.13-10.92q-1.8,0-1.8,4.53,0,4.26,1.76,4.26t1.73-4.39C116.55,246.14,116,244.67,114.86,244.67Z"/><path class="cls-19" d="M122.39,255.59a1.61,1.61,0,0,1-1.14-.42,1.36,1.36,0,0,1-.46-1,1.33,1.33,0,0,1,.47-1,1.73,1.73,0,0,1,1.17-.4,1.64,1.64,0,0,1,1.17.41,1.42,1.42,0,0,1,0,2.08A1.76,1.76,0,0,1,122.39,255.59Z"/><path class="cls-19" d="M134.41,248.46a11,11,0,0,1-.37,3A6.39,6.39,0,0,1,133,253.7a4.79,4.79,0,0,1-1.73,1.4,5.36,5.36,0,0,1-2.31.49,6.51,6.51,0,0,1-2.66-.5v-2.28a4.29,4.29,0,0,0,2.39.65,2.76,2.76,0,0,0,2.24-1,4.37,4.37,0,0,0,.82-2.82h-.06a2.85,2.85,0,0,1-2.54,1.23,3.42,3.42,0,0,1-1.43-.29,3.47,3.47,0,0,1-1.13-.8,3.63,3.63,0,0,1-.75-1.23,4.33,4.33,0,0,1-.26-1.56,4.78,4.78,0,0,1,.32-1.81,4.23,4.23,0,0,1,.91-1.41,4.18,4.18,0,0,1,1.4-.91,5,5,0,0,1,1.81-.32,4.26,4.26,0,0,1,1.85.4,3.86,3.86,0,0,1,1.39,1.16,5.21,5.21,0,0,1,.88,1.85A9.57,9.57,0,0,1,134.41,248.46Zm-2.8-1.48a3.39,3.39,0,0,0-.12-.91,2.48,2.48,0,0,0-.35-.73,1.55,1.55,0,0,0-.53-.49,1.38,1.38,0,0,0-.7-.18,1.34,1.34,0,0,0-.66.16,1.54,1.54,0,0,0-.52.43,2.24,2.24,0,0,0-.35.67,2.78,2.78,0,0,0-.12.83,3,3,0,0,0,.12.88,2,2,0,0,0,.35.64,1.41,1.41,0,0,0,.54.4,1.8,1.8,0,0,0,.71.14,1.45,1.45,0,0,0,.66-.15,1.52,1.52,0,0,0,.52-.39,1.72,1.72,0,0,0,.33-.58A2.09,2.09,0,0,0,131.61,247Z"/><path class="cls-19" d="M143.58,242.76v8h1.51v2.07h-1.51v2.59h-2.53v-2.59h-5.49v-2.17c.48-.54,1-1.14,1.51-1.79s1-1.31,1.51-2,.94-1.37,1.36-2.07a20.74,20.74,0,0,0,1.07-2Zm-5.54,8h3v-4.4c-.21.38-.43.76-.67,1.15s-.49.78-.75,1.15-.53.75-.8,1.1S138.3,250.4,138,250.71Z"/><path class="cls-19" d="M148,249.15a1.69,1.69,0,0,1-1.15-.41,1.37,1.37,0,0,1-.45-1,1.28,1.28,0,0,1,.47-1,1.72,1.72,0,0,1,1.17-.41,1.68,1.68,0,0,1,1.16.41,1.31,1.31,0,0,1,.46,1,1.33,1.33,0,0,1-.47,1.05A1.71,1.71,0,0,1,148,249.15Zm0,6.44a1.65,1.65,0,0,1-1.15-.42,1.39,1.39,0,0,1-.45-1,1.29,1.29,0,0,1,.47-1,1.71,1.71,0,0,1,1.17-.4,1.63,1.63,0,0,1,1.16.41,1.3,1.3,0,0,1,.46,1,1.33,1.33,0,0,1-.47,1.05A1.72,1.72,0,0,1,148,255.59Z"/><path class="cls-19" d="M151.15,252a3.43,3.43,0,0,1,.15-1,3.12,3.12,0,0,1,.46-.91,3.63,3.63,0,0,1,.77-.74,4.11,4.11,0,0,1,1.09-.54,4,4,0,0,1-1.49-1.22,2.82,2.82,0,0,1-.53-1.65,3,3,0,0,1,.31-1.33,3.22,3.22,0,0,1,.84-1.07,3.84,3.84,0,0,1,1.28-.7,5.19,5.19,0,0,1,1.62-.25,5.32,5.32,0,0,1,1.64.25,4,4,0,0,1,1.29.7,3.05,3.05,0,0,1,.84,1.05,2.91,2.91,0,0,1,.3,1.32,2.61,2.61,0,0,1-.57,1.63,4.17,4.17,0,0,1-1.55,1.21,4.2,4.2,0,0,1,1.08.54,3.49,3.49,0,0,1,.78.75,3.11,3.11,0,0,1,.48.92,3.52,3.52,0,0,1,.16,1,3.24,3.24,0,0,1-.33,1.47,3.36,3.36,0,0,1-.92,1.14,4.41,4.41,0,0,1-1.41.75,6.16,6.16,0,0,1-1.82.26,6.07,6.07,0,0,1-1.8-.26,4.38,4.38,0,0,1-1.41-.73,3.39,3.39,0,0,1-.93-1.14A3.24,3.24,0,0,1,151.15,252Zm2.63-.23a2.11,2.11,0,0,0,.13.77,1.54,1.54,0,0,0,.38.58,1.65,1.65,0,0,0,.58.37,2.29,2.29,0,0,0,.76.12,2,2,0,0,0,.74-.13,1.79,1.79,0,0,0,.59-.37,1.67,1.67,0,0,0,.38-.58,1.87,1.87,0,0,0,.14-.76,2,2,0,0,0-.13-.72,1.68,1.68,0,0,0-.37-.6,2,2,0,0,0-.59-.4,1.84,1.84,0,0,0-.76-.15,2,2,0,0,0-.74.14,1.69,1.69,0,0,0-.59.39,1.71,1.71,0,0,0-.38.59A1.86,1.86,0,0,0,153.78,251.74Zm.38-5.58a1.68,1.68,0,0,0,.12.63,1.71,1.71,0,0,0,.32.5,1.45,1.45,0,0,0,.48.34,1.49,1.49,0,0,0,.59.13,1.41,1.41,0,0,0,.58-.13,1.27,1.27,0,0,0,.48-.34,1.72,1.72,0,0,0,.33-.51,1.59,1.59,0,0,0,.12-.62,1.69,1.69,0,0,0-.12-.64,1.34,1.34,0,0,0-.32-.51,1.61,1.61,0,0,0-.48-.34,1.48,1.48,0,0,0-.59-.12,1.41,1.41,0,0,0-.62.13,1.45,1.45,0,0,0-.47.34,1.62,1.62,0,0,0-.31.51A1.81,1.81,0,0,0,154.16,246.16Z"/><path class="cls-19" d="M165.9,255.59q-4.5,0-4.5-6.32a8.62,8.62,0,0,1,1.22-5,4.07,4.07,0,0,1,3.53-1.72q4.4,0,4.4,6.43a8.44,8.44,0,0,1-1.2,4.9A4,4,0,0,1,165.9,255.59Zm.13-10.92q-1.8,0-1.8,4.53c0,2.84.58,4.26,1.76,4.26s1.73-1.46,1.73-4.39S167.15,244.67,166,244.67Z"/><path class="cls-19" d="M272.8,242.65v12.88H270v-9.75a3.4,3.4,0,0,1-.54.38,4.48,4.48,0,0,1-.66.32,5.7,5.7,0,0,1-.73.25,5,5,0,0,1-.75.15v-2.34a11.41,11.41,0,0,0,2-.81,11.59,11.59,0,0,0,1.73-1.08Z"/><path class="cls-19" d="M281,255.75c-3,0-4.5-2.1-4.5-6.32a8.59,8.59,0,0,1,1.22-5,4,4,0,0,1,3.53-1.72q4.4,0,4.39,6.42a8.48,8.48,0,0,1-1.2,4.91A4,4,0,0,1,281,255.75Zm.12-10.91q-1.8,0-1.8,4.52,0,4.27,1.77,4.27t1.72-4.4Q282.76,244.84,281.07,244.84Z"/><path class="cls-19" d="M288.61,255.75a1.65,1.65,0,0,1-1.15-.42,1.37,1.37,0,0,1-.45-1,1.28,1.28,0,0,1,.47-1,1.72,1.72,0,0,1,1.17-.41,1.68,1.68,0,0,1,1.16.41,1.31,1.31,0,0,1,.46,1,1.36,1.36,0,0,1-.46,1.05A1.72,1.72,0,0,1,288.61,255.75Z"/><path class="cls-19" d="M292.1,255.12V252.7a4.88,4.88,0,0,0,3,.93,2.65,2.65,0,0,0,1.65-.46,1.52,1.52,0,0,0,.6-1.28,1.46,1.46,0,0,0-.74-1.3,3.84,3.84,0,0,0-2-.45h-1.17V248h1.08c1.64,0,2.46-.55,2.46-1.63s-.63-1.54-1.89-1.54a4.35,4.35,0,0,0-2.46.81v-2.26a6.7,6.7,0,0,1,3.09-.67,4.67,4.67,0,0,1,3,.87,2.76,2.76,0,0,1,1.08,2.26,2.94,2.94,0,0,1-2.51,3.09V249a3.34,3.34,0,0,1,2.11,1,2.71,2.71,0,0,1,.78,2,3.36,3.36,0,0,1-1.29,2.79,5.6,5.6,0,0,1-3.57,1A7,7,0,0,1,292.1,255.12Z"/><path class="cls-19" d="M305.2,253.23h5.34v2.3h-8.38v-.95a4.52,4.52,0,0,1,.32-1.73,5.72,5.72,0,0,1,.82-1.38,6.89,6.89,0,0,1,1.08-1.08c.39-.32.76-.6,1.11-.85s.69-.52,1-.76a5.8,5.8,0,0,0,.7-.71,2.74,2.74,0,0,0,.43-.72,2.29,2.29,0,0,0,.14-.78,1.53,1.53,0,0,0-.46-1.22,2,2,0,0,0-1.39-.42,4.65,4.65,0,0,0-3.11,1.3v-2.45a6.64,6.64,0,0,1,3.7-1.06,5.37,5.37,0,0,1,1.72.25,3.67,3.67,0,0,1,1.29.72,3,3,0,0,1,.8,1.12,3.77,3.77,0,0,1,.28,1.49,4.11,4.11,0,0,1-.27,1.54,4.7,4.7,0,0,1-.71,1.23,6.56,6.56,0,0,1-1,1c-.39.31-.79.6-1.21.89l-.81.59a8.74,8.74,0,0,0-.69.58,2.85,2.85,0,0,0-.47.56A1,1,0,0,0,305.2,253.23Z"/><path class="cls-19" d="M314.19,255.75a1.61,1.61,0,0,1-1.14-.42,1.35,1.35,0,0,1-.46-1,1.31,1.31,0,0,1,.47-1,1.76,1.76,0,0,1,1.17-.41,1.69,1.69,0,0,1,1.17.41,1.42,1.42,0,0,1,0,2.08A1.72,1.72,0,0,1,314.19,255.75Z"/><path class="cls-19" d="M321.77,255.75c-3,0-4.5-2.1-4.5-6.32a8.59,8.59,0,0,1,1.21-5,4.06,4.06,0,0,1,3.53-1.72q4.39,0,4.4,6.42a8.48,8.48,0,0,1-1.2,4.91A4,4,0,0,1,321.77,255.75Zm.12-10.91q-1.8,0-1.8,4.52,0,4.27,1.76,4.27t1.73-4.4Q323.58,244.84,321.89,244.84Z"/><path class="cls-19" d="M329.42,255.75a1.62,1.62,0,0,1-1.14-.42,1.38,1.38,0,0,1-.46-1,1.31,1.31,0,0,1,.47-1,1.76,1.76,0,0,1,1.18-.41,1.68,1.68,0,0,1,1.16.41,1.42,1.42,0,0,1,0,2.08A1.72,1.72,0,0,1,329.42,255.75Z"/><path class="cls-19" d="M341.45,248.63a11.51,11.51,0,0,1-.37,3,6.53,6.53,0,0,1-1.08,2.23,4.68,4.68,0,0,1-1.73,1.4,5.22,5.22,0,0,1-2.31.49,6.51,6.51,0,0,1-2.66-.49V253a4.29,4.29,0,0,0,2.39.65,2.76,2.76,0,0,0,2.24-1,4.37,4.37,0,0,0,.82-2.82l-.05,0a2.86,2.86,0,0,1-2.54,1.24,3.51,3.51,0,0,1-1.43-.29,3.41,3.41,0,0,1-1.14-.8,3.55,3.55,0,0,1-.74-1.23,4.37,4.37,0,0,1-.27-1.56,4.94,4.94,0,0,1,.32-1.81,4.13,4.13,0,0,1,.91-1.41,4,4,0,0,1,1.4-.91,5,5,0,0,1,1.82-.32,4.08,4.08,0,0,1,1.84.4,3.75,3.75,0,0,1,1.39,1.15,5.35,5.35,0,0,1,.88,1.86A9.44,9.44,0,0,1,341.45,248.63Zm-2.81-1.48a3.34,3.34,0,0,0-.12-.91,2.53,2.53,0,0,0-.34-.74,1.76,1.76,0,0,0-.54-.48,1.37,1.37,0,0,0-.69-.18,1.38,1.38,0,0,0-.67.16,1.64,1.64,0,0,0-.52.43,2,2,0,0,0-.34.66,2.88,2.88,0,0,0,0,1.71,1.83,1.83,0,0,0,.34.65,1.41,1.41,0,0,0,.54.4,1.83,1.83,0,0,0,.71.14,1.5,1.5,0,0,0,.67-.15,1.65,1.65,0,0,0,.51-.39,1.83,1.83,0,0,0,.33-.58A2.09,2.09,0,0,0,338.64,247.15Z"/><path class="cls-19" d="M351.86,244.53c-.56,1-1.07,2-1.51,2.85s-.84,1.76-1.18,2.63a24,24,0,0,0-.87,2.64,27.05,27.05,0,0,0-.59,2.88h-2.9a24.55,24.55,0,0,1,1.59-5.47c.35-.85.75-1.68,1.18-2.49s.88-1.6,1.36-2.37h-5.85v-2.27h8.77Z"/><path class="cls-19" d="M355,249.32a1.61,1.61,0,0,1-1.14-.42,1.33,1.33,0,0,1-.46-1,1.29,1.29,0,0,1,.47-1,1.71,1.71,0,0,1,1.17-.4,1.66,1.66,0,0,1,1.17.41,1.32,1.32,0,0,1,.45,1,1.36,1.36,0,0,1-.46,1A1.81,1.81,0,0,1,355,249.32Zm0,6.43a1.61,1.61,0,0,1-1.14-.42,1.35,1.35,0,0,1-.46-1,1.28,1.28,0,0,1,.47-1,1.72,1.72,0,0,1,1.17-.41,1.7,1.7,0,0,1,1.17.41,1.33,1.33,0,0,1,.45,1,1.36,1.36,0,0,1-.46,1.05A1.72,1.72,0,0,1,355,255.75Z"/><path class="cls-19" d="M358.18,252.14a3.38,3.38,0,0,1,.15-1,3.15,3.15,0,0,1,.47-.91,3.38,3.38,0,0,1,.76-.75,4.11,4.11,0,0,1,1.09-.54,3.76,3.76,0,0,1-1.48-1.22,2.7,2.7,0,0,1-.53-1.64,3,3,0,0,1,.3-1.34,3.18,3.18,0,0,1,.84-1.06,3.94,3.94,0,0,1,1.28-.7,4.92,4.92,0,0,1,1.62-.25,5,5,0,0,1,1.64.25,4.18,4.18,0,0,1,1.29.69,3.25,3.25,0,0,1,.84,1.05,3,3,0,0,1,.3,1.32,2.64,2.64,0,0,1-.56,1.63,4.3,4.3,0,0,1-1.56,1.21,4.2,4.2,0,0,1,1.08.54,3.77,3.77,0,0,1,.79.75,3.2,3.2,0,0,1,.47.92,3.26,3.26,0,0,1,.16,1,3.31,3.31,0,0,1-.33,1.48,3.25,3.25,0,0,1-.92,1.14,4.11,4.11,0,0,1-1.41.74,5.8,5.8,0,0,1-1.82.27,6,6,0,0,1-1.79-.26,4.45,4.45,0,0,1-1.42-.74,3.44,3.44,0,0,1-.93-1.14A3.23,3.23,0,0,1,358.18,252.14Zm2.63-.24a2.13,2.13,0,0,0,.13.78,1.54,1.54,0,0,0,.38.58,1.58,1.58,0,0,0,.58.36,2.26,2.26,0,0,0,1.51,0,1.75,1.75,0,0,0,.58-.37,1.85,1.85,0,0,0,.39-.58,2.11,2.11,0,0,0,.14-.77,2.18,2.18,0,0,0-.13-.72,1.81,1.81,0,0,0-.38-.59,1.87,1.87,0,0,0-.59-.4,2,2,0,0,0-1.5,0,1.77,1.77,0,0,0-.58.38,1.73,1.73,0,0,0-.39.6A2,2,0,0,0,360.81,251.9Zm.39-5.58a1.67,1.67,0,0,0,.11.63,1.64,1.64,0,0,0,.32.51,1.61,1.61,0,0,0,.48.34,1.48,1.48,0,0,0,.59.12,1.45,1.45,0,0,0,.59-.12,1.61,1.61,0,0,0,.48-.34,1.91,1.91,0,0,0,.32-.51,1.68,1.68,0,0,0,.12-.63,1.91,1.91,0,0,0-.11-.64,1.72,1.72,0,0,0-.33-.51,1.37,1.37,0,0,0-.48-.33,1.31,1.31,0,0,0-.59-.13,1.51,1.51,0,0,0-.61.13,1.54,1.54,0,0,0-.48.34,1.6,1.6,0,0,0-.41,1.14Z"/><path class="cls-19" d="M372.94,255.75c-3,0-4.5-2.1-4.5-6.32a8.59,8.59,0,0,1,1.21-5,4.06,4.06,0,0,1,3.53-1.72q4.4,0,4.4,6.42a8.48,8.48,0,0,1-1.2,4.91A4,4,0,0,1,372.94,255.75Zm.12-10.91q-1.8,0-1.8,4.52,0,4.27,1.77,4.27c1.14,0,1.72-1.47,1.72-4.4S374.19,244.84,373.06,244.84Z"/><path class="cls-19" d="M487.3,242.44v12.88h-2.77v-9.75a3.4,3.4,0,0,1-.54.38,6.77,6.77,0,0,1-.66.33c-.24.09-.48.17-.73.24a5.24,5.24,0,0,1-.75.15v-2.34a11.41,11.41,0,0,0,2-.81,12.13,12.13,0,0,0,1.73-1.08Z"/><path class="cls-19" d="M495.45,255.54c-3,0-4.5-2.1-4.5-6.32a8.59,8.59,0,0,1,1.21-5,4,4,0,0,1,3.53-1.72q4.4,0,4.4,6.42a8.48,8.48,0,0,1-1.2,4.91A3.94,3.94,0,0,1,495.45,255.54Zm.12-10.91q-1.8,0-1.8,4.52,0,4.28,1.76,4.27t1.73-4.4C497.26,246.09,496.69,244.63,495.57,244.63Z"/><path class="cls-19" d="M503.1,255.54a1.61,1.61,0,0,1-1.14-.42,1.33,1.33,0,0,1-.46-1,1.31,1.31,0,0,1,.47-1,1.76,1.76,0,0,1,1.18-.41,1.68,1.68,0,0,1,1.16.41,1.42,1.42,0,0,1,0,2.08A1.72,1.72,0,0,1,503.1,255.54Z"/><path class="cls-19" d="M506.6,254.91v-2.42a4.85,4.85,0,0,0,2.95.93,2.71,2.71,0,0,0,1.66-.46,1.52,1.52,0,0,0,.59-1.27,1.46,1.46,0,0,0-.73-1.31,3.85,3.85,0,0,0-2-.45h-1.17V247.8H509c1.64,0,2.46-.54,2.46-1.63s-.63-1.54-1.88-1.54a4.29,4.29,0,0,0-2.47.82v-2.27a6.77,6.77,0,0,1,3.1-.67,4.67,4.67,0,0,1,3,.87,2.75,2.75,0,0,1,1.07,2.26,2.92,2.92,0,0,1-2.5,3.09v.05a3.39,3.39,0,0,1,2.11,1,2.7,2.7,0,0,1,.77,2,3.4,3.4,0,0,1-1.29,2.8,5.62,5.62,0,0,1-3.57,1A6.9,6.9,0,0,1,506.6,254.91Z"/><path class="cls-19" d="M519.7,253H525v2.3h-8.39v-.94a4.35,4.35,0,0,1,.33-1.74,5.92,5.92,0,0,1,.82-1.38,6.84,6.84,0,0,1,1.07-1.08c.39-.32.76-.6,1.12-.85s.69-.52,1-.76a6.63,6.63,0,0,0,.7-.71,3,3,0,0,0,.43-.72,2.29,2.29,0,0,0,.14-.78,1.57,1.57,0,0,0-.46-1.22,2,2,0,0,0-1.4-.42,4.72,4.72,0,0,0-3.11,1.3v-2.45a6.67,6.67,0,0,1,3.71-1.06,5.41,5.41,0,0,1,1.72.25,3.85,3.85,0,0,1,1.29.72,3.06,3.06,0,0,1,.8,1.13,3.86,3.86,0,0,1,.28,1.48,4.11,4.11,0,0,1-.27,1.54,4.82,4.82,0,0,1-.71,1.23,6.63,6.63,0,0,1-1,1c-.38.31-.79.6-1.2.89l-.81.59a6.17,6.17,0,0,0-.69.58,3.34,3.34,0,0,0-.48.56A.94.94,0,0,0,519.7,253Z"/><path class="cls-19" d="M528.69,255.54a1.65,1.65,0,0,1-1.15-.42,1.36,1.36,0,0,1-.45-1,1.28,1.28,0,0,1,.47-1,1.72,1.72,0,0,1,1.17-.41,1.66,1.66,0,0,1,1.16.41,1.31,1.31,0,0,1,.46,1,1.36,1.36,0,0,1-.46,1A1.72,1.72,0,0,1,528.69,255.54Z"/><path class="cls-19" d="M536.26,255.54c-3,0-4.5-2.1-4.5-6.32a8.59,8.59,0,0,1,1.22-5,4,4,0,0,1,3.53-1.72q4.4,0,4.39,6.42a8.48,8.48,0,0,1-1.2,4.91A3.93,3.93,0,0,1,536.26,255.54Zm.13-10.91q-1.82,0-1.81,4.52,0,4.28,1.77,4.27t1.72-4.4Q538.07,244.63,536.39,244.63Z"/><path class="cls-19" d="M543.92,255.54a1.61,1.61,0,0,1-1.14-.42,1.33,1.33,0,0,1-.46-1,1.28,1.28,0,0,1,.47-1,1.72,1.72,0,0,1,1.17-.41,1.7,1.7,0,0,1,1.17.41,1.33,1.33,0,0,1,.45,1,1.36,1.36,0,0,1-.46,1A1.72,1.72,0,0,1,543.92,255.54Z"/><path class="cls-19" d="M555.94,248.42a11,11,0,0,1-.37,3,6.34,6.34,0,0,1-1.07,2.23,4.9,4.9,0,0,1-1.73,1.41,5.36,5.36,0,0,1-2.31.48,6.6,6.6,0,0,1-2.67-.49v-2.28a4.32,4.32,0,0,0,2.39.65,2.77,2.77,0,0,0,2.25-1,4.37,4.37,0,0,0,.81-2.82l0,0a2.85,2.85,0,0,1-2.54,1.24,3.39,3.39,0,0,1-1.43-.29,3.47,3.47,0,0,1-1.13-.8,3.73,3.73,0,0,1-.75-1.23,4.33,4.33,0,0,1-.27-1.56,4.75,4.75,0,0,1,.33-1.81,4.13,4.13,0,0,1,.91-1.41,4,4,0,0,1,1.4-.91,5,5,0,0,1,1.81-.32,4.12,4.12,0,0,1,1.85.4,3.86,3.86,0,0,1,1.39,1.16,5.39,5.39,0,0,1,.88,1.85A9.47,9.47,0,0,1,555.94,248.42Zm-2.8-1.48A3,3,0,0,0,553,246a2.24,2.24,0,0,0-.34-.73,1.55,1.55,0,0,0-.53-.49,1.43,1.43,0,0,0-.7-.18,1.34,1.34,0,0,0-.66.16,1.68,1.68,0,0,0-.53.43,2.29,2.29,0,0,0-.34.66,3.11,3.11,0,0,0,0,1.71,1.84,1.84,0,0,0,.35.65,1.41,1.41,0,0,0,.54.4,1.78,1.78,0,0,0,.7.14,1.47,1.47,0,0,0,.67-.15,1.65,1.65,0,0,0,.51-.39,1.68,1.68,0,0,0,.34-.58A2.09,2.09,0,0,0,553.14,246.94Z"/><path class="cls-19" d="M558,255v-2.37a5.25,5.25,0,0,0,2.75.79,2.6,2.6,0,0,0,1.72-.53,1.77,1.77,0,0,0,.62-1.42c0-1.24-.88-1.87-2.65-1.87a19.53,19.53,0,0,0-2.25.15l.48-7h6.67V245h-4.55l-.18,2.52c.45,0,.84,0,1.17,0a4.3,4.3,0,0,1,3,1,3.56,3.56,0,0,1,1.1,2.74,4,4,0,0,1-1.31,3.11,5,5,0,0,1-3.55,1.21A7.66,7.66,0,0,1,558,255Z"/><path class="cls-19" d="M569.5,249.11a1.64,1.64,0,0,1-1.14-.42,1.36,1.36,0,0,1-.46-1,1.33,1.33,0,0,1,.47-1,1.76,1.76,0,0,1,1.18-.4,1.63,1.63,0,0,1,1.16.41,1.42,1.42,0,0,1,0,2.08A1.74,1.74,0,0,1,569.5,249.11Zm0,6.43a1.64,1.64,0,0,1-1.14-.42,1.36,1.36,0,0,1-.46-1,1.31,1.31,0,0,1,.47-1,1.76,1.76,0,0,1,1.18-.41,1.68,1.68,0,0,1,1.16.41,1.42,1.42,0,0,1,0,2.08A1.7,1.7,0,0,1,569.5,255.54Z"/><path class="cls-19" d="M575.74,253h5.35v2.3H572.7v-.94a4.35,4.35,0,0,1,.33-1.74,5.89,5.89,0,0,1,.81-1.38,6.89,6.89,0,0,1,1.08-1.08c.39-.32.76-.6,1.11-.85a11,11,0,0,0,1-.76,5.93,5.93,0,0,0,.71-.71,2.69,2.69,0,0,0,.42-.72,2.07,2.07,0,0,0,.14-.78,1.56,1.56,0,0,0-.45-1.22,2,2,0,0,0-1.4-.42,4.72,4.72,0,0,0-3.11,1.3v-2.45a6.65,6.65,0,0,1,3.71-1.06,5.41,5.41,0,0,1,1.72.25,3.71,3.71,0,0,1,1.28.72,3,3,0,0,1,.81,1.13,3.86,3.86,0,0,1,.27,1.48,4.32,4.32,0,0,1-.26,1.54,4.57,4.57,0,0,1-.72,1.23,6.15,6.15,0,0,1-1,1c-.39.31-.79.6-1.2.89l-.82.59a8.74,8.74,0,0,0-.69.58,3.25,3.25,0,0,0-.47.56A1,1,0,0,0,575.74,253Z"/><path class="cls-19" d="M591.94,244.32c-.56,1-1.06,2-1.51,2.85s-.84,1.77-1.18,2.63a24,24,0,0,0-.87,2.64,27.05,27.05,0,0,0-.59,2.88h-2.9a25.36,25.36,0,0,1,.65-2.83,26.67,26.67,0,0,1,.94-2.64c.35-.85.75-1.68,1.18-2.49s.88-1.6,1.36-2.37h-5.85v-2.27h8.77Z"/><path class="cls-19" d="M597.79,255.54c-3,0-4.5-2.1-4.5-6.32a8.59,8.59,0,0,1,1.21-5,4,4,0,0,1,3.53-1.72q4.4,0,4.4,6.42a8.48,8.48,0,0,1-1.2,4.91A3.94,3.94,0,0,1,597.79,255.54Zm.12-10.91q-1.8,0-1.8,4.52,0,4.28,1.76,4.27t1.73-4.4C599.6,246.09,599,244.63,597.91,244.63Z"/><path class="cls-19" d="M610.35,242.44v12.88h-2.77v-9.75a4.66,4.66,0,0,1-.54.38,6,6,0,0,1-.67.33,6.94,6.94,0,0,1-.73.24,5.11,5.11,0,0,1-.74.15v-2.34a11.41,11.41,0,0,0,2-.81,12.72,12.72,0,0,0,1.73-1.08Z"/><path class="cls-19" d="M623,244.32c-.56,1-1.06,2-1.51,2.85s-.84,1.77-1.18,2.63a24,24,0,0,0-.87,2.64,27.05,27.05,0,0,0-.59,2.88H616a25.36,25.36,0,0,1,.65-2.83,26.67,26.67,0,0,1,.94-2.64c.35-.85.75-1.68,1.18-2.49s.88-1.6,1.36-2.37h-5.85v-2.27H623Z"/><path class="cls-19" d="M308.6,232.33v4.34h-2.84v-12.6h4.45q4.76,0,4.76,4a3.85,3.85,0,0,1-1.37,3.08,5.41,5.41,0,0,1-3.65,1.17Zm0-6.08v3.93h1.12c1.51,0,2.26-.67,2.26-2s-.75-1.94-2.26-1.94Z"/><path class="cls-19" d="M320.3,236.89a4.85,4.85,0,0,1-3.54-1.26,5.21,5.21,0,0,1,.05-6.92,5,5,0,0,1,3.61-1.26,4.78,4.78,0,0,1,3.52,1.26,4.49,4.49,0,0,1,1.27,3.34,4.79,4.79,0,0,1-1.31,3.54A4.89,4.89,0,0,1,320.3,236.89Zm.07-7.31a1.82,1.82,0,0,0-1.53.68,3,3,0,0,0-.55,1.91c0,1.73.7,2.59,2.1,2.59s2-.88,2-2.66S321.71,229.58,320.37,229.58Z"/><path class="cls-19" d="M335.82,236.67H333v-1.24h0a3.13,3.13,0,0,1-2.79,1.46,3.45,3.45,0,0,1-2.72-1.19,5,5,0,0,1-1-3.33,5.33,5.33,0,0,1,1.13-3.57,3.7,3.7,0,0,1,3-1.35A2.54,2.54,0,0,1,333,228.7h0v-5.35h2.78Zm-2.73-4.38v-.67a2.13,2.13,0,0,0-.51-1.46,1.8,1.8,0,0,0-2.76.14,3.36,3.36,0,0,0-.52,2,2.87,2.87,0,0,0,.5,1.83,1.78,1.78,0,0,0,2.76,0A2.8,2.8,0,0,0,333.09,232.29Z"/><path class="cls-19" d="M537.67,232.33v4.34h-2.84v-12.6h4.45q4.76,0,4.76,4a3.88,3.88,0,0,1-1.37,3.08,5.42,5.42,0,0,1-3.65,1.17Zm0-6.08v3.93h1.11c1.51,0,2.27-.67,2.27-2s-.76-1.94-2.27-1.94Z"/><path class="cls-19" d="M549.37,236.89a4.85,4.85,0,0,1-3.54-1.26,5.21,5.21,0,0,1,0-6.92,5,5,0,0,1,3.61-1.26,4.78,4.78,0,0,1,3.51,1.26,4.5,4.5,0,0,1,1.28,3.34,4.75,4.75,0,0,1-1.32,3.54A4.85,4.85,0,0,1,549.37,236.89Zm.07-7.31a1.82,1.82,0,0,0-1.53.68,2.94,2.94,0,0,0-.55,1.91c0,1.73.7,2.59,2.09,2.59s2-.88,2-2.66S550.78,229.58,549.44,229.58Z"/><path class="cls-19" d="M564.89,236.67h-2.78v-1.24h0a3.11,3.11,0,0,1-2.78,1.46,3.43,3.43,0,0,1-2.72-1.19,5,5,0,0,1-1-3.33,5.33,5.33,0,0,1,1.14-3.57,3.68,3.68,0,0,1,3-1.35,2.52,2.52,0,0,1,2.42,1.25h0v-5.35h2.78Zm-2.73-4.38v-.67a2.13,2.13,0,0,0-.51-1.46,1.67,1.67,0,0,0-1.32-.58,1.69,1.69,0,0,0-1.45.72,3.43,3.43,0,0,0-.51,2,2.87,2.87,0,0,0,.5,1.83,1.64,1.64,0,0,0,1.38.64,1.66,1.66,0,0,0,1.38-.67A2.85,2.85,0,0,0,562.16,232.29Z"/><path class="cls-19" d="M5.45,32.93a12.8,12.8,0,0,0,2.14-4.71H6V27.1H7.8C7.89,26.47,8,25.78,8,25H5.6V23.9H8.07c0-.63,0-1.3,0-2H6.06V20.77h7.31V23.9h1V25h-1v3.87H12.14v-.67H8.89a17.88,17.88,0,0,1-.56,2H13.6v6.34H12.37v-1H8.89v1.11H7.66V31.87a21,21,0,0,1-1.42,2.56C6,34,5.75,33.46,5.45,32.93Zm6.92-1.6H8.89v3.11h3.48ZM9.08,27.1h3.06V25H9.3C9.25,25.77,9.18,26.46,9.08,27.1Zm3.06-5.21H9.4c0,.71,0,1.37,0,2h2.78Zm2,9.06h3.76V27.87H14.64v-1.2h3.27V24H14.57v-1.2h8.28V24H19.24v2.72h3.4v1.2h-3.4V31h3.87v1.19H19.24V36.9H17.91V32.14H14.15Zm.95-10.73,1-.7A30.21,30.21,0,0,1,18,21.86l-1.08.77A24.19,24.19,0,0,0,15.1,20.22Zm4,1.83A22.79,22.79,0,0,0,21,19.54l1.1.68a28.83,28.83,0,0,1-2,2.5Z"/><path class="cls-19" d="M24.17,31.38h7.57V30.19H33v1.19h7.56v1.13H34.34a17.94,17.94,0,0,0,6.84,2.94c-.31.49-.59.92-.82,1.3A19.38,19.38,0,0,1,33,32.82v4.12H31.74V32.8a21.24,21.24,0,0,1-7.38,4c-.25-.36-.52-.73-.83-1.11a18.64,18.64,0,0,0,6.79-3.16H24.17ZM32,20.15l1-.63a11.83,11.83,0,0,1,1.35,1.79l-.8.51h6.73v1.09H33.61v1.25h5.88v1H33.61v1.25h5.88v1H33.61v1.28h6.71v1.09H27.51v.67H26.28V24.23a20.94,20.94,0,0,1-1.85,1.9A7.31,7.31,0,0,0,23.59,25a18.78,18.78,0,0,0,4.3-5.24l1.22.55c-.33.53-.67,1-1,1.54h5A19,19,0,0,0,32,20.15Zm-4.44,4h4.87V22.91H27.51Zm0,2.27h4.87V25.18H27.51Zm0,2.3h4.87V27.45H27.51Z"/><path class="cls-19" d="M41.71,22h4.87V19.68H48V22H52.7V19.68h1.4V22H59v1.28H54.1v2H52.7v-2H48v1.95h-1.4V23.28H41.71Zm.88,4.36H57.11c-.12,2.45-.24,4.33-.35,5.64q-.19,2.58-3,2.58c-1.11,0-2,0-2.74-.1A12,12,0,0,0,50.71,33a18.54,18.54,0,0,0,2.85.25,1.6,1.6,0,0,0,1.81-1.66c.1-.88.19-2.18.26-3.9H48.58v9.3H47.12v-9.3H42.59Z"/><path class="cls-19" d="M63.21,33a35.92,35.92,0,0,1-2.36,3.78L59.64,36A33.86,33.86,0,0,0,62,32.33Zm-1.32-7.95h5.52V19.57h1.48v2.11h7.85V23H68.89v2.14h6.22v6.72H73.67v-.74H63.33v.74H61.89Zm11.78,1.27H63.33V29.8H73.67Zm-7.53,5.9A30.9,30.9,0,0,1,67.55,36l-1.42.49c-.37-1.28-.78-2.54-1.25-3.78Zm4.2-.12a33.94,33.94,0,0,1,1.53,3.64l-1.39.54a34.36,34.36,0,0,0-1.42-3.69Zm4.28.07A40,40,0,0,1,76.87,36l-1.34.72Q74.65,35,73.4,32.84Z"/><path class="cls-19" d="M89.23,29.86H84.06V28.54h5.17Z"/><path class="cls-19" d="M100.81,34.59V23a5.74,5.74,0,0,1-1.37.9,8,8,0,0,1-1.78.71V22.87a11.38,11.38,0,0,0,2.31-1,9.66,9.66,0,0,0,1.89-1.23h.65V34.59Z"/><path class="cls-19" d="M108,32.75a4.8,4.8,0,0,0,2.42.65A3.27,3.27,0,0,0,113.24,32a7.11,7.11,0,0,0,1-4.1h0a3.13,3.13,0,0,1-3,1.71,3.77,3.77,0,0,1-2.84-1.18,4.27,4.27,0,0,1-1.13-3.06A4.56,4.56,0,0,1,108.46,22a4.22,4.22,0,0,1,3.19-1.29,3.7,3.7,0,0,1,3.18,1.59A8,8,0,0,1,116,27a9.71,9.71,0,0,1-1.48,5.8,4.77,4.77,0,0,1-4.09,2,5.68,5.68,0,0,1-2.42-.46Zm1-7.64a3.17,3.17,0,0,0,.71,2.17,2.41,2.41,0,0,0,1.94.81,2.45,2.45,0,0,0,1.8-.74,2.39,2.39,0,0,0,.73-1.77,3.93,3.93,0,0,0-.73-2.44,2.28,2.28,0,0,0-1.91-1,2.3,2.3,0,0,0-1.82.84A3.07,3.07,0,0,0,109,25.11Z"/><path class="cls-19" d="M124.41,24.55a2.22,2.22,0,0,0-.7-1.73,2.7,2.7,0,0,0-1.89-.63,3.73,3.73,0,0,0-1.7.43,5.76,5.76,0,0,0-1.61,1.23V22.18A4.76,4.76,0,0,1,120,21.12a4.92,4.92,0,0,1,2-.37,4.33,4.33,0,0,1,3,1,3.38,3.38,0,0,1,1.12,2.68,4.81,4.81,0,0,1-.69,2.6,8.42,8.42,0,0,1-2.36,2.25A26.22,26.22,0,0,0,120.78,31a3.35,3.35,0,0,0-.8,1,2.45,2.45,0,0,0-.23,1.13h6.77v1.53H118v-.67a5.33,5.33,0,0,1,.33-2,4.81,4.81,0,0,1,1-1.6,15.82,15.82,0,0,1,2.31-1.87,9.16,9.16,0,0,0,2.18-2A3.34,3.34,0,0,0,124.41,24.55Z"/><path class="cls-19" d="M128.51,33.69a1.13,1.13,0,0,1,1.13-1.13,1.11,1.11,0,0,1,.82.33,1.09,1.09,0,0,1,.33.8,1.07,1.07,0,0,1-.33.78,1.11,1.11,0,0,1-.82.33,1.07,1.07,0,0,1-.81-.33A1.1,1.1,0,0,1,128.51,33.69Z"/><path class="cls-19" d="M136.81,34.59V23a5.74,5.74,0,0,1-1.37.9,8,8,0,0,1-1.78.71V22.87a11.38,11.38,0,0,0,2.31-1,9.66,9.66,0,0,0,1.89-1.23h.65V34.59Z"/><path class="cls-19" d="M151.3,22.73a4.74,4.74,0,0,0-2.22-.55,3.31,3.31,0,0,0-2.84,1.54,7.29,7.29,0,0,0-1.09,4.2h0a3.24,3.24,0,0,1,3.09-1.87,3.63,3.63,0,0,1,2.82,1.15,4.37,4.37,0,0,1,1.05,3.06,4.58,4.58,0,0,1-1.21,3.28,4.13,4.13,0,0,1-3.11,1.28,3.82,3.82,0,0,1-3.26-1.62,7.71,7.71,0,0,1-1.18-4.6,9.56,9.56,0,0,1,1.55-5.73A4.85,4.85,0,0,1,149,20.75a5.27,5.27,0,0,1,2.28.4Zm-6.05,7.41a3.73,3.73,0,0,0,.72,2.3,2.26,2.26,0,0,0,1.9,1,2.3,2.3,0,0,0,1.83-.83,3.16,3.16,0,0,0,.7-2.13,3.28,3.28,0,0,0-.66-2.18,2.31,2.31,0,0,0-1.89-.79,2.45,2.45,0,0,0-1.88.79A2.71,2.71,0,0,0,145.25,30.14Z"/><path class="cls-19" d="M153.77,30.8a3.65,3.65,0,0,1,.7-2.17,3.86,3.86,0,0,1,1.81-1.42,3.94,3.94,0,0,1-1.4-1.28,3,3,0,0,1-.52-1.7,3.25,3.25,0,0,1,.5-1.77,3.41,3.41,0,0,1,1.38-1.25,4.06,4.06,0,0,1,1.94-.46,4.25,4.25,0,0,1,2,.45,3.37,3.37,0,0,1,1.38,1.26,3.28,3.28,0,0,1,.49,1.77,3,3,0,0,1-.5,1.68,4,4,0,0,1-1.4,1.3,3.86,3.86,0,0,1,1.8,1.42,3.75,3.75,0,0,1,.69,2.17,3.91,3.91,0,0,1-.55,2.07,3.69,3.69,0,0,1-1.57,1.43,5.08,5.08,0,0,1-2.3.51,5,5,0,0,1-2.27-.51,3.78,3.78,0,0,1-1.58-1.43A4,4,0,0,1,153.77,30.8Zm1.69-.08a2.62,2.62,0,0,0,.74,1.94,2.71,2.71,0,0,0,2,.73,2.74,2.74,0,0,0,2-.74,2.75,2.75,0,0,0,0-3.83,2.68,2.68,0,0,0-2-.77,2.71,2.71,0,0,0-2,.75A2.59,2.59,0,0,0,155.46,30.72Zm.49-6.35a2.17,2.17,0,0,0,.65,1.57,2.13,2.13,0,0,0,1.59.65,2.2,2.2,0,0,0,1.6-.65,2.17,2.17,0,0,0,.67-1.57,2.11,2.11,0,0,0-.65-1.56,2.19,2.19,0,0,0-1.62-.64,2.17,2.17,0,0,0-1.6.62A2.12,2.12,0,0,0,156,24.37Z"/><path class="cls-19" d="M164.51,33.69a1.13,1.13,0,0,1,1.13-1.13,1.11,1.11,0,0,1,.82.33,1.09,1.09,0,0,1,.33.8,1.07,1.07,0,0,1-.33.78,1.11,1.11,0,0,1-.82.33,1.07,1.07,0,0,1-.81-.33A1.1,1.1,0,0,1,164.51,33.69Z"/><path class="cls-19" d="M172.81,34.59V23a5.74,5.74,0,0,1-1.37.9,8,8,0,0,1-1.78.71V22.87a11.38,11.38,0,0,0,2.31-1,9.66,9.66,0,0,0,1.89-1.23h.65V34.59Z"/><path class="cls-19" d="M179.4,33.69a1.11,1.11,0,0,1,1.13-1.13,1.11,1.11,0,0,1,.82.33,1.09,1.09,0,0,1,.33.8,1.07,1.07,0,0,1-.33.78,1.12,1.12,0,0,1-.83.33,1.06,1.06,0,0,1-.8-.33A1.1,1.1,0,0,1,179.4,33.69Z"/><path class="cls-19" d="M187.7,34.59V23a5.74,5.74,0,0,1-1.37.9,8.22,8.22,0,0,1-1.78.71V22.87a11.38,11.38,0,0,0,2.31-1,9.66,9.66,0,0,0,1.89-1.23h.65V34.59Z"/><path class="cls-19" d="M194,28.05a10.08,10.08,0,0,1,1.2-5.45,3.87,3.87,0,0,1,3.46-1.85c2.88,0,4.33,2.33,4.33,7A9.51,9.51,0,0,1,201.8,33a3.89,3.89,0,0,1-3.42,1.82,3.64,3.64,0,0,1-3.21-1.73A9.17,9.17,0,0,1,194,28.05Zm1.76-.08q0,5.43,2.75,5.43t2.71-5.51q0-5.72-2.66-5.71C196.73,22.18,195.79,24.11,195.79,28Z"/><path class="cls-19" d="M96.61,335.94l1-.54c.69,1.1,1.39,2.23,2.08,3.39a35.85,35.85,0,0,0,1.47-3.66l1.19.44a47.32,47.32,0,0,1-1.91,4.49c.67,1.15,1.34,2.33,2,3.53l-1.2.63q-.72-1.39-1.5-2.79a39,39,0,0,1-2.33,3.83l-1-.61v3.67H95.08V332.25h15v14.1c0,1.25-.68,1.88-2,1.88-.75,0-1.64,0-2.69,0,0-.37-.14-.83-.24-1.37,1,.08,1.82.13,2.51.13s1.13-.33,1.13-1V333.52H96.4v11.05a43.4,43.4,0,0,0,2.66-4.44Q97.89,338.06,96.61,335.94Zm5.85.85,1-.6c.59.95,1.19,1.95,1.82,3a35.07,35.07,0,0,0,1.71-4l1.2.46c-.66,1.67-1.39,3.26-2.17,4.78q1.11,1.89,2.29,4l-1.17.67c-.59-1.11-1.2-2.24-1.83-3.38A42.42,42.42,0,0,1,103,345.5l-1.08-.68q1.51-2.19,2.68-4.31C103.92,339.28,103.21,338,102.46,336.79Z"/><path class="cls-19" d="M111.85,345.38c1.23-.2,2.49-.43,3.77-.68a69.43,69.43,0,0,0,1.75-7.56l1.42.33c-.54,2.27-1.14,4.6-1.79,7,.69-.13,1.39-.28,2.11-.43a9.64,9.64,0,0,0,.12,1.28q-3.77.76-7,1.48Zm.24-10.42h7.25v1.23h-7.25Zm.6,2.72,1.22-.31q.77,2.7,1.44,5.67l-1.3.35Q113.47,340.5,112.69,337.68Zm1.36-6.08,1.24-.55c.47.86,1,1.83,1.46,2.91l-1.32.59A29.43,29.43,0,0,0,114.05,331.6Zm5.66,8.47h3.34v-8.84h1.4v3.62h4.89v1.34h-4.89v3.88h3.9v8.42H127v-1h-6v1h-1.33ZM127,341.3h-6v4.92h6Z"/><path class="cls-19" d="M30.75,281a18.42,18.42,0,0,0,2.6-6.12H30.87v-1.16h2.6v-3.35h1.2v3.35H37v1.16H34.67v3l.73-.77c.73.63,1.37,1.23,1.93,1.81l-.9.94c-.55-.62-1.14-1.25-1.76-1.88v9h-1.2V277.8a16.94,16.94,0,0,1-2.15,4.72Q31.08,281.78,30.75,281Zm7.81-1.79,1.28.51q-1.4,3.12-2.78,5.55a12.31,12.31,0,0,0-1.25-.6A40.53,40.53,0,0,0,38.56,279.23ZM37,276.41H47.64v1.19H42.92v7.15c0,1.42-.66,2.13-2,2.13-.61,0-1.37,0-2.27,0-.06-.41-.14-.89-.24-1.42a19.14,19.14,0,0,0,2.16.13q1,0,1-1.26V277.6H37Zm.79-5h9.09v1.19H37.76Zm6.29,8.41,1.21-.58q1.62,3.11,2.7,5.45l-1.37.6Q45.48,282.63,44.05,279.81Z"/><path class="cls-19" d="M57.75,274.39l-.31.38a15.76,15.76,0,0,0,7.62,4.3c-.35.48-.66.94-.92,1.37a19.47,19.47,0,0,1-3.61-1.66v.91h-8v-1a37.37,37.37,0,0,1-3.74,2,11.35,11.35,0,0,0-.85-1.18,23.74,23.74,0,0,0,8.11-5.09Zm-6.43-4.07h1.47c-.28.57-.57,1.11-.87,1.63h5v1.14H51.22A16.9,16.9,0,0,1,48.86,276a11,11,0,0,0-.87-1A15.57,15.57,0,0,0,51.32,270.32Zm-2.61,14.87H58.77a41.91,41.91,0,0,0,2.45-4.7l1.3.68q-1.19,2.07-2.36,4H64.4v1.21H48.71Zm1.71-3.85,1.09-.56a38.21,38.21,0,0,1,1.86,3.45l-1.16.65A34.49,34.49,0,0,0,50.42,281.34ZM53.05,276c-.48-.62-1-1.22-1.45-1.79l.88-.67c.52.49,1,1,1.58,1.66Zm3.54-.36a24.7,24.7,0,0,1-3.78,2.88h7.3A17.45,17.45,0,0,1,56.59,275.65Zm-1.3,4.89,1.18-.32c.44,1.24.83,2.5,1.16,3.77l-1.27.38A35.17,35.17,0,0,0,55.29,280.54Zm3.48-10.22h1.42c-.25.57-.51,1.11-.78,1.63h5.46v1.14H58.74c-.31.48-.59.9-.86,1.25a11.82,11.82,0,0,0-1.23-.62A12.27,12.27,0,0,0,58.77,270.32Zm2.77,5.93a22.89,22.89,0,0,0-1.91-1.89l.82-.79c.76.64,1.43,1.24,2,1.81Z"/><path class="cls-19" d="M66,276.3a1.06,1.06,0,0,1,.32-.77,1.12,1.12,0,0,1,.78-.3,1.09,1.09,0,0,1,.79.31,1.09,1.09,0,0,1,0,1.53,1.1,1.1,0,0,1-.81.32,1.08,1.08,0,0,1-.78-.32A1,1,0,0,1,66,276.3ZM66,284a1,1,0,0,1,.31-.77,1.15,1.15,0,0,1,1.59,0,1,1,0,0,1,.31.77,1.06,1.06,0,0,1-.31.77,1.1,1.1,0,0,1-.81.32A1.08,1.08,0,0,1,66,284Z"/><path class="cls-19" d="M38.66,289.64l1.25-.67a20.87,20.87,0,0,1,1.4,2l-.83.47h6.93v1.3H34.1V297c0,4-.83,7-2.49,9a13.78,13.78,0,0,0-1-1.18c1.36-1.53,2.05-4.13,2.05-7.83v-5.52H39.9C39.52,290.86,39.11,290.24,38.66,289.64ZM34,303.7h7.9a81.62,81.62,0,0,0,2.83-9.33l1.49.41c-1.07,3.76-2,6.74-2.84,8.92H47.6V305H34Zm.92-8.39,1.3-.44c.71,2.07,1.39,4.4,2.05,7l-1.45.45C36.29,300,35.66,297.71,34.92,295.31Zm4.12-.85,1.32-.38A70.53,70.53,0,0,1,41.93,301l-1.51.39A69.58,69.58,0,0,0,39,294.46Z"/><path class="cls-19" d="M56.23,305.69v-5.44h-5a11,11,0,0,1-2.06,5.9c-.3-.38-.64-.77-1-1.18a9.14,9.14,0,0,0,1.5-3.49,27.76,27.76,0,0,0,.38-5.23v-6.1H64v13.59c0,1.35-.65,2-1.94,2-.78,0-1.67,0-2.64,0-.06-.38-.15-.85-.26-1.42,1,.07,1.79.1,2.41.1s1.06-.33,1.06-1v-3.15h-5v5.44ZM51.35,299h4.88v-3.19H51.42A27.89,27.89,0,0,1,51.35,299Zm.07-7.6v3.17h4.81v-3.17Zm11.2,0h-5v3.17h5Zm-5,7.6h5v-3.19h-5Z"/><path class="cls-19" d="M66,295.11a1,1,0,0,1,.32-.77,1.15,1.15,0,0,1,1.57,0,1.1,1.1,0,0,1,0,1.54,1.09,1.09,0,0,1-.81.31,1.07,1.07,0,0,1-.78-.31A1,1,0,0,1,66,295.11Zm0,7.69a1.06,1.06,0,0,1,.31-.78,1.15,1.15,0,0,1,1.59,0,1.09,1.09,0,0,1,.31.78,1,1,0,0,1-.31.76,1.06,1.06,0,0,1-.81.32,1,1,0,0,1-.78-.32A1,1,0,0,1,66,302.8Z"/><path class="cls-19" d="M80.23,291.12a2.11,2.11,0,0,0-1-.25c-1,0-1.57.65-1.57,1.95v1.41h2.21v1.38H77.64v8.07H76v-8.07H74.37v-1.38H76v-1.49a3.2,3.2,0,0,1,.88-2.39,3,3,0,0,1,2.22-.87,3.28,3.28,0,0,1,1.15.17Z"/><path class="cls-19" d="M86.25,295.88a2,2,0,0,0-1.15-.29,1.87,1.87,0,0,0-1.6.91,4,4,0,0,0-.64,2.39v4.79H81.19v-9.45h1.67v1.92h0a2.59,2.59,0,0,1,2.48-2.09,2.41,2.41,0,0,1,.87.13Z"/><path class="cls-19" d="M86.73,299.05a5.08,5.08,0,0,1,1.3-3.69A4.74,4.74,0,0,1,91.58,294a4.34,4.34,0,0,1,3.34,1.31,5.12,5.12,0,0,1,1.21,3.6,5.05,5.05,0,0,1-1.29,3.61,4.52,4.52,0,0,1-3.46,1.38A4.44,4.44,0,0,1,88,302.57,4.91,4.91,0,0,1,86.73,299.05Zm1.71-.05a3.79,3.79,0,0,0,.82,2.58,2.83,2.83,0,0,0,2.22.94,2.68,2.68,0,0,0,2.19-.92,5,5,0,0,0,0-5.29,2.68,2.68,0,0,0-2.19-.92,2.78,2.78,0,0,0-2.23,1A4,4,0,0,0,88.44,299Z"/><path class="cls-19" d="M106.21,303.68h-1.66V298.3q0-2.91-2.13-2.91a2.26,2.26,0,0,0-1.81.82,3,3,0,0,0-.71,2.08v5.39H98.22v-9.45H99.9v1.56h0A3.42,3.42,0,0,1,103,294a2.89,2.89,0,0,1,2.37,1,4.49,4.49,0,0,1,.81,2.9Z"/><path class="cls-19" d="M113.28,303.58a3.08,3.08,0,0,1-1.48.3c-1.69,0-2.54-.93-2.54-2.81v-5.46h-1.62v-1.38h1.62V292l1.67-.53v2.81h2.35v1.38h-2.35v5.16a2.22,2.22,0,0,0,.32,1.34,1.28,1.28,0,0,0,1,.4,1.6,1.6,0,0,0,1-.32Z"/><path class="cls-19" d="M118.83,299.08h-5v-1.29h5Z"/><path class="cls-19" d="M129,299.38h-6.62a3.43,3.43,0,0,0,.83,2.34,2.9,2.9,0,0,0,2.2.82,4.65,4.65,0,0,0,2.91-1V303a5.59,5.59,0,0,1-3.31.88,4.05,4.05,0,0,1-3.2-1.3,5.27,5.27,0,0,1-1.15-3.6,5.11,5.11,0,0,1,1.27-3.58A4,4,0,0,1,125,294a3.62,3.62,0,0,1,2.89,1.2,4.85,4.85,0,0,1,1,3.33ZM127.29,298a2.93,2.93,0,0,0-.61-2,2.08,2.08,0,0,0-1.68-.71,2.33,2.33,0,0,0-1.73.75,3.43,3.43,0,0,0-.92,1.94Z"/><path class="cls-19" d="M138.92,303.68h-1.66V298.3q0-2.91-2.13-2.91a2.26,2.26,0,0,0-1.81.82,3,3,0,0,0-.71,2.08v5.39h-1.68v-9.45h1.68v1.56h0a3.42,3.42,0,0,1,3.1-1.79,2.89,2.89,0,0,1,2.37,1,4.49,4.49,0,0,1,.81,2.9Z"/><path class="cls-19" d="M149.66,303.68H148v-1.57h0a3.46,3.46,0,0,1-3.21,1.79,3.53,3.53,0,0,1-2.86-1.28,5.27,5.27,0,0,1-1.06-3.45,5.59,5.59,0,0,1,1.2-3.75,3.92,3.92,0,0,1,3.13-1.42,3,3,0,0,1,2.8,1.51h0v-5.82h1.68ZM148,298.05a2.62,2.62,0,0,0-.75-1.9,2.45,2.45,0,0,0-1.84-.76,2.51,2.51,0,0,0-2.1,1,4.37,4.37,0,0,0-.77,2.72,3.92,3.92,0,0,0,.74,2.5,2.41,2.41,0,0,0,2,.92,2.49,2.49,0,0,0,2-.91,3.33,3.33,0,0,0,.77-2.24Z"/><path class="cls-19" d="M157.26,299.08h-5v-1.29h5Z"/><path class="cls-19" d="M167.68,303.68H166V298.3q0-2.91-2.13-2.91a2.26,2.26,0,0,0-1.81.82,3,3,0,0,0-.71,2.08v5.39h-1.68v-9.45h1.68v1.56h0a3.43,3.43,0,0,1,3.1-1.79,2.89,2.89,0,0,1,2.37,1,4.49,4.49,0,0,1,.81,2.9Z"/><path class="cls-19" d="M178.42,302.88q0,5.25-5.09,5.25a6.64,6.64,0,0,1-3.06-.66v-1.61a6.29,6.29,0,0,0,3,.88c2.3,0,3.44-1.21,3.44-3.63v-1h0a3.8,3.8,0,0,1-6.06.52,5.11,5.11,0,0,1-1.07-3.38,5.82,5.82,0,0,1,1.18-3.83,3.92,3.92,0,0,1,3.15-1.42,3.06,3.06,0,0,1,2.8,1.51h0v-1.28h1.68Zm-1.68-4.83a2.64,2.64,0,0,0-.73-1.88,2.44,2.44,0,0,0-1.83-.78,2.52,2.52,0,0,0-2.13,1,4.46,4.46,0,0,0-.76,2.76,3.81,3.81,0,0,0,.74,2.43,2.34,2.34,0,0,0,1.94.94,2.53,2.53,0,0,0,2-.89,3.27,3.27,0,0,0,.77-2.26Z"/><path class="cls-19" d="M180.94,290.89a1.06,1.06,0,0,1,1.05-1.05,1.08,1.08,0,0,1,.77.3,1,1,0,0,1,.31.75,1,1,0,0,1-.31.74,1.08,1.08,0,0,1-.77.3,1,1,0,0,1-.75-.3A1,1,0,0,1,180.94,290.89Zm.2,12.79v-9.45h1.67v9.45Z"/><path class="cls-19" d="M193.53,303.68h-1.67V298.3c0-1.94-.7-2.91-2.12-2.91a2.26,2.26,0,0,0-1.81.82,3,3,0,0,0-.71,2.08v5.39h-1.68v-9.45h1.68v1.56h0a3.42,3.42,0,0,1,3.1-1.79,2.89,2.89,0,0,1,2.37,1,4.49,4.49,0,0,1,.81,2.9Z"/><path class="cls-19" d="M203.21,294.23,200.05,299l3.12,4.69h-1.95l-1.8-3c-.1-.16-.23-.4-.41-.74h0s-.15.28-.43.74l-1.84,3h-1.92L198,299l-3.07-4.81h1.95l1.77,3.16q.16.28.39.75h0l2.3-3.91Z"/><path class="cls-19" d="M101.94,127.91l1.28-.69a20.4,20.4,0,0,1,1.44,2.1l-.85.49h7.13v1.33H97.24v4.31q0,6.23-2.56,9.3a11.52,11.52,0,0,0-1-1.21c1.4-1.57,2.11-4.26,2.11-8v-5.68h7.43A20.83,20.83,0,0,0,101.94,127.91Zm-4.8,14.47h8.13a86,86,0,0,0,2.91-9.6l1.53.42q-1.65,5.81-2.92,9.18h4.34v1.33h-14Zm1-8.63,1.33-.46q1.1,3.19,2.11,7.17l-1.49.46Q99.23,137.44,98.09,133.75Zm4.23-.88,1.36-.39a70.79,70.79,0,0,1,1.62,7.08l-1.55.41A70.84,70.84,0,0,0,102.32,132.87Z"/><path class="cls-19" d="M120.27,144.42v-5.59h-5.11a11.32,11.32,0,0,1-2.13,6.06c-.3-.39-.65-.79-1-1.21a9.52,9.52,0,0,0,1.55-3.59,28.33,28.33,0,0,0,.39-5.38v-6.27h14.32v14c0,1.4-.66,2.09-2,2.09-.81,0-1.72,0-2.73-.05-.06-.39-.14-.87-.26-1.46,1,.07,1.84.11,2.48.11s1.09-.35,1.09-1v-3.23h-5.17v5.59Zm-5-6.86h5v-3.29h-4.94A27.33,27.33,0,0,1,115.25,137.56Zm.08-7.82V133h4.94v-3.27Zm11.52,0h-5.17V133h5.17Zm-5.17,7.82h5.17v-3.29h-5.17Z"/><path class="cls-19" d="M130.63,133.54a1.09,1.09,0,0,1,.34-.8,1.19,1.19,0,0,1,1.61,0,1,1,0,0,1,.33.79,1.1,1.1,0,0,1-.32.79,1.16,1.16,0,0,1-.83.32,1.11,1.11,0,0,1-.8-.32A1.07,1.07,0,0,1,130.63,133.54Zm0,7.91a1.06,1.06,0,0,1,.33-.8,1.14,1.14,0,1,1,1.63,1.58,1.13,1.13,0,0,1-.83.33,1.13,1.13,0,0,1-1.13-1.11Z"/><path class="cls-19" d="M145.77,129.43a2.2,2.2,0,0,0-1.05-.25c-1.07,0-1.61.66-1.61,2v1.45h2.27v1.42h-2.27v8.3H141.4v-8.3h-1.66v-1.42h1.66V131.1a3.32,3.32,0,0,1,.9-2.46,3.14,3.14,0,0,1,2.29-.89,3.43,3.43,0,0,1,1.18.17Z"/><path class="cls-19" d="M152.24,134.33a2.05,2.05,0,0,0-1.19-.3,1.94,1.94,0,0,0-1.65.93,4.29,4.29,0,0,0-.65,2.47v4.92H147v-9.72h1.72v2h0c.5-1.43,1.35-2.15,2.55-2.15a2.62,2.62,0,0,1,.91.13Z"/><path class="cls-19" d="M153,137.6a5.25,5.25,0,0,1,1.35-3.81A4.85,4.85,0,0,1,158,132.4a4.47,4.47,0,0,1,3.43,1.34,5.25,5.25,0,0,1,1.24,3.71,5.18,5.18,0,0,1-1.33,3.71,5.14,5.14,0,0,1-7,.05A5.07,5.07,0,0,1,153,137.6Zm1.76-.06a3.87,3.87,0,0,0,.85,2.65,2.91,2.91,0,0,0,2.28,1,2.75,2.75,0,0,0,2.25-.95,4.15,4.15,0,0,0,.77-2.71,4.23,4.23,0,0,0-.77-2.73,2.75,2.75,0,0,0-2.25-.94,2.84,2.84,0,0,0-2.29,1A4.08,4.08,0,0,0,154.75,137.54Z"/><path class="cls-19" d="M173.31,142.35h-1.72v-5.53c0-2-.73-3-2.19-3a2.36,2.36,0,0,0-1.86.84,3.11,3.11,0,0,0-.73,2.13v5.55h-1.72v-9.72h1.72v1.61h0A3.49,3.49,0,0,1,170,132.4a2.94,2.94,0,0,1,2.43,1,4.58,4.58,0,0,1,.84,3Z"/><path class="cls-19" d="M180.85,142.25a3.16,3.16,0,0,1-1.52.31c-1.74,0-2.61-1-2.61-2.89v-5.62h-1.67v-1.42h1.67v-2.34l1.71-.54v2.88h2.42v1.42h-2.42v5.31a2.28,2.28,0,0,0,.32,1.37,1.3,1.3,0,0,0,1.09.42,1.63,1.63,0,0,0,1-.33Z"/><path class="cls-19" d="M186.82,137.62h-5.17v-1.33h5.17Z"/><path class="cls-19" d="M197.52,137.93h-6.8a3.47,3.47,0,0,0,.85,2.4,3,3,0,0,0,2.26.85,4.81,4.81,0,0,0,3-1v1.53a5.71,5.71,0,0,1-3.4.91,4.18,4.18,0,0,1-3.29-1.34,5.38,5.38,0,0,1-1.18-3.71,5.31,5.31,0,0,1,1.3-3.68,4.12,4.12,0,0,1,3.22-1.45,3.75,3.75,0,0,1,3,1.23,5.05,5.05,0,0,1,1.07,3.43Zm-1.72-1.38a3.11,3.11,0,0,0-.63-2,2.14,2.14,0,0,0-1.73-.72,2.41,2.41,0,0,0-1.78.76,3.57,3.57,0,0,0-.94,2Z"/><path class="cls-19" d="M208,142.35h-1.71v-5.53c0-2-.73-3-2.19-3a2.34,2.34,0,0,0-1.86.84,3.11,3.11,0,0,0-.73,2.13v5.55h-1.73v-9.72h1.73v1.61h0a3.5,3.5,0,0,1,3.19-1.84,3,3,0,0,1,2.44,1,4.64,4.64,0,0,1,.83,3Z"/><path class="cls-19" d="M219.34,142.35h-1.72v-1.62h0a3.54,3.54,0,0,1-3.3,1.85,3.64,3.64,0,0,1-2.94-1.31,5.43,5.43,0,0,1-1.09-3.55,5.77,5.77,0,0,1,1.23-3.86,4,4,0,0,1,3.22-1.46,3.07,3.07,0,0,1,2.88,1.55h0v-6h1.72Zm-1.71-5.78a2.72,2.72,0,0,0-.77-2,2.54,2.54,0,0,0-1.89-.78,2.6,2.6,0,0,0-2.17,1,4.49,4.49,0,0,0-.79,2.79,4,4,0,0,0,.76,2.57,2.48,2.48,0,0,0,2,.95,2.56,2.56,0,0,0,2-.93,3.48,3.48,0,0,0,.79-2.31Z"/><path class="cls-19" d="M227.43,137.62h-5.18v-1.33h5.18Z"/><path class="cls-19" d="M238.42,142.35h-1.71v-5.53c0-2-.73-3-2.19-3a2.35,2.35,0,0,0-1.86.84,3.11,3.11,0,0,0-.73,2.13v5.55h-1.72v-9.72h1.72v1.61h0a3.51,3.51,0,0,1,3.19-1.84,3,3,0,0,1,2.44,1,4.58,4.58,0,0,1,.83,3Z"/><path class="cls-19" d="M249.73,141.53q0,5.4-5.23,5.4a6.9,6.9,0,0,1-3.15-.68v-1.66a6.34,6.34,0,0,0,3.12.91c2.36,0,3.54-1.25,3.54-3.73v-1h0a3.9,3.9,0,0,1-6.23.53,5.18,5.18,0,0,1-1.1-3.47,6,6,0,0,1,1.21-3.94,4,4,0,0,1,3.23-1.46A3.16,3.16,0,0,1,248,134h0v-1.32h1.72Zm-1.72-5a2.68,2.68,0,0,0-.75-1.94,2.48,2.48,0,0,0-1.88-.8,2.58,2.58,0,0,0-2.19,1,4.6,4.6,0,0,0-.79,2.83,4,4,0,0,0,.76,2.51,2.41,2.41,0,0,0,2,1,2.61,2.61,0,0,0,2.06-.92,3.35,3.35,0,0,0,.79-2.32Z"/><path class="cls-19" d="M252.6,129.2a1,1,0,0,1,.31-.77,1.14,1.14,0,0,1,1.56,0,1,1,0,0,1,.32.77,1,1,0,0,1-.32.76,1.14,1.14,0,0,1-.79.31,1.06,1.06,0,0,1-.77-.31A1,1,0,0,1,252.6,129.2Zm.2,13.15v-9.72h1.72v9.72Z"/><path class="cls-19" d="M265.82,142.35H264.1v-5.53c0-2-.72-3-2.18-3a2.37,2.37,0,0,0-1.87.84,3.16,3.16,0,0,0-.73,2.13v5.55H257.6v-9.72h1.72v1.61h0a3.49,3.49,0,0,1,3.19-1.84,2.92,2.92,0,0,1,2.43,1,4.58,4.58,0,0,1,.84,3Z"/><path class="cls-19" d="M276.05,132.63l-3.25,4.9,3.21,4.82h-2l-1.85-3.09c-.1-.17-.24-.42-.42-.76h0a7.74,7.74,0,0,1-.44.76l-1.89,3.09h-2l3.31-4.77-3.16-5h2l1.82,3.25c.11.2.24.46.4.78h0l2.36-4Z"/><path class="cls-19" d="M134.21,98.67h-1.44V97.14h0a3.64,3.64,0,0,1-5.81.53,4.92,4.92,0,0,1-1-3.29A5.4,5.4,0,0,1,127,90.8a3.73,3.73,0,0,1,3-1.34,2.91,2.91,0,0,1,2.7,1.46h0V85.35h1.44Zm-1.44-4.07V93.27a2.57,2.57,0,0,0-.72-1.84,2.4,2.4,0,0,0-1.83-.76,2.49,2.49,0,0,0-2.07,1,4.18,4.18,0,0,0-.76,2.67,3.78,3.78,0,0,0,.73,2.46,2.36,2.36,0,0,0,1.94.9,2.46,2.46,0,0,0,2-.87A3.24,3.24,0,0,0,132.77,94.6Z"/><path class="cls-19" d="M141.82,91.13a1.77,1.77,0,0,0-1.09-.29,1.84,1.84,0,0,0-1.54.87,4,4,0,0,0-.62,2.37v4.59h-1.44v-9h1.44v1.86h0a3.14,3.14,0,0,1,.94-1.49,2.15,2.15,0,0,1,1.41-.53,2.12,2.12,0,0,1,.86.13Z"/><path class="cls-19" d="M147.15,98.88A4.19,4.19,0,0,1,144,97.62a4.67,4.67,0,0,1-1.19-3.34A4.9,4.9,0,0,1,144,90.73a4.47,4.47,0,0,1,3.35-1.27,4,4,0,0,1,3.14,1.24,5.66,5.66,0,0,1-.08,6.89A4.29,4.29,0,0,1,147.15,98.88Zm.11-8.21a2.75,2.75,0,0,0-2.2,1,3.87,3.87,0,0,0-.81,2.6,3.67,3.67,0,0,0,.82,2.53,2.78,2.78,0,0,0,2.19.92,2.6,2.6,0,0,0,2.14-.91,3.86,3.86,0,0,0,.76-2.57,3.93,3.93,0,0,0-.76-2.6A2.61,2.61,0,0,0,147.26,90.67Z"/><path class="cls-19" d="M161.41,98.67H160V93.54c0-1.91-.69-2.87-2.09-2.87a2.27,2.27,0,0,0-1.79.82,3,3,0,0,0-.7,2.05v5.13h-1.44v-9h1.44v1.5h0a3.26,3.26,0,0,1,3-1.71,2.75,2.75,0,0,1,2.25,1,4.22,4.22,0,0,1,.79,2.76Z"/><path class="cls-19" d="M171.36,94.53H165a3.32,3.32,0,0,0,.81,2.32,2.77,2.77,0,0,0,2.13.82,4.46,4.46,0,0,0,2.79-1V98a5.26,5.26,0,0,1-3.14.86,3.8,3.8,0,0,1-3-1.22,5,5,0,0,1-1.09-3.45,4.91,4.91,0,0,1,1.19-3.43,3.82,3.82,0,0,1,3-1.32,3.4,3.4,0,0,1,2.73,1.14,4.79,4.79,0,0,1,1,3.18Zm-1.48-1.22a3,3,0,0,0-.6-1.94,2,2,0,0,0-1.65-.7,2.34,2.34,0,0,0-1.73.73,3.27,3.27,0,0,0-.88,1.91Z"/><path class="cls-19" d="M178.14,94.22h-4.8V93.09h4.8Z"/><path class="cls-19" d="M185.18,86.61a1.9,1.9,0,0,0-1-.23c-1,0-1.51.63-1.51,1.9v1.39h2.11V90.9h-2.11v7.77h-1.43V90.9h-1.54V89.67h1.54V88.21A3,3,0,0,1,182.1,86a2.74,2.74,0,0,1,2-.83,3,3,0,0,1,1.05.16Z"/><path class="cls-19" d="M191.06,91.13a1.77,1.77,0,0,0-1.09-.29,1.84,1.84,0,0,0-1.54.87,4,4,0,0,0-.62,2.37v4.59h-1.44v-9h1.44v1.86h0a3.22,3.22,0,0,1,.94-1.49,2.38,2.38,0,0,1,2.28-.4Z"/><path class="cls-19" d="M196.39,98.88a4.18,4.18,0,0,1-3.19-1.26A4.67,4.67,0,0,1,192,94.28a4.86,4.86,0,0,1,1.24-3.55,4.45,4.45,0,0,1,3.35-1.27,4,4,0,0,1,3.14,1.24,4.93,4.93,0,0,1,1.13,3.44,4.86,4.86,0,0,1-1.22,3.45A4.27,4.27,0,0,1,196.39,98.88Zm.1-8.21a2.76,2.76,0,0,0-2.2,1,3.92,3.92,0,0,0-.8,2.6,3.71,3.71,0,0,0,.81,2.53,2.81,2.81,0,0,0,2.19.92,2.62,2.62,0,0,0,2.15-.91,3.92,3.92,0,0,0,.75-2.57,4,4,0,0,0-.75-2.6A2.63,2.63,0,0,0,196.49,90.67Z"/><path class="cls-19" d="M210.64,98.67H209.2V93.54c0-1.91-.7-2.87-2.09-2.87a2.25,2.25,0,0,0-1.79.82,3,3,0,0,0-.71,2.05v5.13h-1.44v-9h1.44v1.5h0a3.24,3.24,0,0,1,2.95-1.71,2.76,2.76,0,0,1,2.26,1,4.28,4.28,0,0,1,.78,2.76Z"/><path class="cls-19" d="M217.53,98.58a2.72,2.72,0,0,1-1.34.28c-1.58,0-2.37-.87-2.37-2.63V90.9h-1.54V89.67h1.54v-2.2l1.45-.46v2.66h2.26V90.9h-2.26V96a2.11,2.11,0,0,0,.3,1.29,1.24,1.24,0,0,0,1,.39,1.49,1.49,0,0,0,.94-.3Z"/><path class="cls-19" d="M224.06,94.22h-4.8V93.09h4.8Z"/><path class="cls-19" d="M233.89,94.53h-6.35a3.37,3.37,0,0,0,.8,2.32,2.79,2.79,0,0,0,2.13.82,4.49,4.49,0,0,0,2.8-1V98a5.28,5.28,0,0,1-3.14.86,3.84,3.84,0,0,1-3-1.22A5,5,0,0,1,226,94.21a5,5,0,0,1,1.19-3.43,3.83,3.83,0,0,1,3-1.32,3.37,3.37,0,0,1,2.73,1.14,4.74,4.74,0,0,1,1,3.18Zm-1.48-1.22a2.87,2.87,0,0,0-.6-1.94,2,2,0,0,0-1.65-.7,2.36,2.36,0,0,0-1.73.73,3.34,3.34,0,0,0-.88,1.91Z"/><path class="cls-19" d="M243.54,98.67H242.1V93.54c0-1.91-.7-2.87-2.09-2.87a2.25,2.25,0,0,0-1.79.82,3,3,0,0,0-.71,2.05v5.13h-1.44v-9h1.44v1.5h0a3.24,3.24,0,0,1,2.95-1.71,2.77,2.77,0,0,1,2.26,1,4.28,4.28,0,0,1,.78,2.76Z"/><path class="cls-19" d="M253.94,98.67H252.5V97.14h0a3.63,3.63,0,0,1-5.8.53,4.92,4.92,0,0,1-1-3.29,5.41,5.41,0,0,1,1.13-3.58,3.71,3.71,0,0,1,3-1.34,2.89,2.89,0,0,1,2.7,1.46h0V85.35h1.44ZM252.5,94.6V93.27a2.57,2.57,0,0,0-.72-1.84,2.41,2.41,0,0,0-1.83-.76,2.52,2.52,0,0,0-2.08,1,4.24,4.24,0,0,0-.75,2.67,3.83,3.83,0,0,0,.72,2.46,2.38,2.38,0,0,0,1.95.9,2.45,2.45,0,0,0,2-.87A3.2,3.2,0,0,0,252.5,94.6Z"/><path class="cls-19" d="M261.46,94.22h-4.8V93.09h4.8Z"/><path class="cls-19" d="M263.51,98.35V96.8a4.25,4.25,0,0,0,2.59.87c1.27,0,1.9-.42,1.9-1.27a1.09,1.09,0,0,0-.16-.61,1.84,1.84,0,0,0-.44-.44,3.32,3.32,0,0,0-.65-.35l-.81-.32a10.66,10.66,0,0,1-1.05-.48,3.14,3.14,0,0,1-.75-.54,2.19,2.19,0,0,1-.46-.69,2.52,2.52,0,0,1-.15-.91,2.1,2.1,0,0,1,.29-1.12,2.61,2.61,0,0,1,.77-.82,3.55,3.55,0,0,1,1.1-.49,5,5,0,0,1,1.28-.17,5.13,5.13,0,0,1,2.09.4v1.46a4.09,4.09,0,0,0-2.28-.65,2.39,2.39,0,0,0-.73.1,1.8,1.8,0,0,0-.56.25,1.5,1.5,0,0,0-.36.4,1.14,1.14,0,0,0-.13.52,1.32,1.32,0,0,0,.13.59,1.34,1.34,0,0,0,.37.42,3.37,3.37,0,0,0,.6.33l.8.33a10,10,0,0,1,1.07.47,3.57,3.57,0,0,1,.81.54,2.32,2.32,0,0,1,.52.7,2.28,2.28,0,0,1,.18.94,2.18,2.18,0,0,1-.3,1.16,2.54,2.54,0,0,1-.78.82,3.44,3.44,0,0,1-1.14.48,5.35,5.35,0,0,1-1.34.16A5.19,5.19,0,0,1,263.51,98.35Z"/><path class="cls-19" d="M278.92,94.53h-6.35a3.32,3.32,0,0,0,.81,2.32,2.76,2.76,0,0,0,2.13.82,4.46,4.46,0,0,0,2.79-1V98a5.26,5.26,0,0,1-3.14.86,3.8,3.8,0,0,1-3-1.22,5,5,0,0,1-1.09-3.45,4.91,4.91,0,0,1,1.19-3.43,3.81,3.81,0,0,1,3-1.32A3.41,3.41,0,0,1,278,90.6a4.79,4.79,0,0,1,1,3.18Zm-1.47-1.22a3,3,0,0,0-.6-1.94,2,2,0,0,0-1.65-.7,2.34,2.34,0,0,0-1.73.73,3.27,3.27,0,0,0-.88,1.91Z"/><path class="cls-19" d="M285.8,91.13a1.79,1.79,0,0,0-1.09-.29,1.83,1.83,0,0,0-1.54.87,4,4,0,0,0-.62,2.37v4.59H281.1v-9h1.45v1.86h0a3.22,3.22,0,0,1,.94-1.49,2.38,2.38,0,0,1,2.28-.4Z"/><path class="cls-19" d="M294.44,89.67l-3.59,9h-1.41l-3.41-9h1.58l2.28,6.54a5.82,5.82,0,0,1,.32,1.26h0a5.33,5.33,0,0,1,.28-1.22l2.39-6.58Z"/><path class="cls-19" d="M296.72,87.39a.91.91,0,0,1-.66-.27.89.89,0,0,1-.27-.67.9.9,0,0,1,.27-.67.91.91,0,0,1,.66-.27.94.94,0,0,1,.68.27,1,1,0,0,1,0,1.33A1,1,0,0,1,296.72,87.39Zm.71,11.28H296v-9h1.45Z"/><path class="cls-19" d="M306.48,98.26a4.73,4.73,0,0,1-2.46.62,4.09,4.09,0,0,1-3.11-1.25,4.54,4.54,0,0,1-1.18-3.25A5,5,0,0,1,301,90.81a4.47,4.47,0,0,1,3.4-1.35,4.81,4.81,0,0,1,2.1.44v1.48a3.69,3.69,0,0,0-2.15-.71,2.89,2.89,0,0,0-2.26,1,3.76,3.76,0,0,0-.88,2.6,3.52,3.52,0,0,0,.83,2.49,2.84,2.84,0,0,0,2.22.92,3.62,3.62,0,0,0,2.22-.78Z"/><path class="cls-19" d="M315.89,94.53h-6.35a3.32,3.32,0,0,0,.81,2.32,2.75,2.75,0,0,0,2.12.82,4.47,4.47,0,0,0,2.8-1V98a5.26,5.26,0,0,1-3.14.86,3.84,3.84,0,0,1-3-1.22A5.06,5.06,0,0,1,308,94.21a5,5,0,0,1,1.19-3.43,3.83,3.83,0,0,1,3-1.32,3.37,3.37,0,0,1,2.73,1.14,4.74,4.74,0,0,1,1,3.18Zm-1.47-1.22a2.92,2.92,0,0,0-.61-1.94,2,2,0,0,0-1.64-.7,2.38,2.38,0,0,0-1.74.73,3.4,3.4,0,0,0-.88,1.91Z"/><path class="cls-19" d="M102,124l3.67,0,6.47-.12c-.13.39-.29.85-.49,1.39l-6.13.07-3.68,0q-3.16-.1-4.38-2.13a27.35,27.35,0,0,0-2.11,2.36l-.72-1.46c1-1,1.79-1.72,2.25-2.16v-5.91H94.82v-1.3h3.45v7.51A4.12,4.12,0,0,0,102,124Zm-5.17-15.19c.6.73,1.42,1.84,2.46,3.32l-1.25.88c-.95-1.49-1.73-2.63-2.34-3.44Zm2.53,6.89h5.82v-2.93h-3a22.49,22.49,0,0,1-1.1,2.39,9.66,9.66,0,0,0-1.23-.64,19.61,19.61,0,0,0,2-5.34l1.37.3c-.21.73-.42,1.42-.64,2.07h2.52v-3.06h1.37v3.06h4.59v1.22h-4.59v2.93H112V117h-4.15v3.77q0,.93.78.93h.84a.86.86,0,0,0,.93-.85c.07-.45.14-1.14.19-2.07.37.16.81.33,1.34.51q-.14,1.22-.3,2a1.78,1.78,0,0,1-2,1.56h-1.3q-1.83,0-1.83-2V117h-2.36c0,.54,0,1-.05,1.43q-.1,3.28-3.69,4.87c-.23-.34-.53-.73-.88-1.18,2.06-.86,3.14-2.09,3.22-3.69,0-.35,0-.83.06-1.43H99.39Z"/><path class="cls-19" d="M112.7,118l2.48-.58v-4.18h-2.33V112h2.33v-3.43h1.31V112h2.25v1.23h-2.25v3.85l1.85-.49a10.53,10.53,0,0,0,.12,1.3l-2,.53v5.25q0,2-1.77,2l-1.65,0a13.32,13.32,0,0,0-.23-1.43,11,11,0,0,0,1.56.14q.78,0,.78-.93v-4.59l-2.31.65Zm5.39,3.45h5.47v-2h-4.39v-1.27h4.39v-2h1.34v2h4.5v1.27h-4.5v2h5.32v1.26H124.9v3h-1.34v-3h-5.47Zm.9-10.83V109.4h10v1.17a10.47,10.47,0,0,1-3.43,3.61,18.47,18.47,0,0,0,4.62,1.14c-.29.53-.54,1-.74,1.39a18.8,18.8,0,0,1-5.22-1.74,24.22,24.22,0,0,1-5.27,2,7.76,7.76,0,0,0-.6-1.3,26.07,26.07,0,0,0,4.56-1.46,8.54,8.54,0,0,1-2.94-3.55Zm8.47,0h-6.12a7.4,7.4,0,0,0,2.91,2.91A8.43,8.43,0,0,0,127.46,110.61Z"/><path class="cls-19" d="M131.29,115.92h7.11a5.55,5.55,0,0,0,.35-1.53l1.26.17a8.29,8.29,0,0,1-.3,1.36h3.83c-.47-.34-1-.68-1.49-1l.72-.8a23.69,23.69,0,0,1,2.09,1.38l-.39.42h3.28v1.16H141q2,2,7.21,1.88-.42.72-.72,1.35l-.9-.08v5.37h-1.23v-1h-3.76v1h-1.23v-5.44h5.6q-5-.68-6.43-3.07h-.31c-.66,1.39-2.79,2.42-6.38,3.07h5.62v5.44H137.2v-1h-3.71v1h-1.23v-5.34l-1,.18c-.17-.36-.4-.77-.68-1.25q5.87-.76,7-2.11h-6.37Zm1-6.4h6.17v5.11h-1.23v-.54h-3.71v.72h-1.23Zm4.94,1.09h-3.71V113h3.71Zm0,10.63h-3.71v2.31h3.71Zm3.11-11.72h6.22v5.18H145.3v-.61h-3.76v.54h-1.23Zm5,1.09h-3.76V113h3.76Zm0,10.63h-3.76v2.31h3.76Z"/><path class="cls-19" d="M149.5,114.67a1,1,0,0,1,.33-.79,1.17,1.17,0,0,1,1.61,0,1.07,1.07,0,0,1,.33.79,1.1,1.1,0,0,1-.32.79,1.12,1.12,0,0,1-.83.33,1.09,1.09,0,0,1-.8-.33A1.06,1.06,0,0,1,149.5,114.67Zm0,7.91a1.07,1.07,0,0,1,.32-.8,1.17,1.17,0,0,1,1.63,0,1.15,1.15,0,0,1,0,1.59,1.12,1.12,0,0,1-.83.33,1.06,1.06,0,0,1-.8-.33A1.08,1.08,0,0,1,149.5,122.58Z"/><path class="cls-19" d="M238.12,280.93a18.63,18.63,0,0,0,2.6-6.12h-2.48v-1.16h2.6V270.3H242v3.35h2.33v1.16H242v3l.74-.77c.73.63,1.37,1.23,1.93,1.82l-.91.93c-.54-.62-1.13-1.24-1.76-1.88v9h-1.19V277.7a17.3,17.3,0,0,1-2.16,4.73C238.52,281.94,238.33,281.44,238.12,280.93Zm7.81-1.8,1.28.51a61.08,61.08,0,0,1-2.79,5.56,8.46,8.46,0,0,0-1.24-.6A40.12,40.12,0,0,0,245.93,279.13Zm-1.59-2.82H255v1.2h-4.71v7.14c0,1.43-.66,2.14-2,2.14-.61,0-1.37,0-2.27,0-.06-.41-.14-.88-.24-1.42a19,19,0,0,0,2.15.14c.69,0,1-.42,1-1.27v-6.71h-4.65Zm.79-5h9.09v1.2h-9.09Zm6.28,8.41,1.22-.58c1.08,2.08,2,3.89,2.7,5.45l-1.37.6C253.22,283.42,252.37,281.59,251.41,279.71Z"/><path class="cls-19" d="M265.11,274.29l-.3.38a15.69,15.69,0,0,0,7.62,4.31,16.37,16.37,0,0,0-.92,1.36,19.44,19.44,0,0,1-3.61-1.65v.9h-8v-1a37.39,37.39,0,0,1-3.74,2,9.27,9.27,0,0,0-.86-1.18,23.86,23.86,0,0,0,8.12-5.1Zm-6.42-4.06h1.47q-.44.86-.87,1.62h4.95V273h-5.65a17.81,17.81,0,0,1-2.36,2.87,11,11,0,0,0-.87-1A15.7,15.7,0,0,0,258.69,270.23Zm-2.62,14.87h10.07a41.75,41.75,0,0,0,2.44-4.7l1.3.68q-1.17,2.07-2.36,4h4.24v1.21H256.07Zm1.71-3.85,1.1-.56a35.69,35.69,0,0,1,1.86,3.45l-1.16.65A34.55,34.55,0,0,0,257.78,281.25Zm2.63-5.33c-.47-.63-1-1.23-1.45-1.8l.89-.66c.51.49,1,1,1.57,1.66Zm3.54-.36a24.32,24.32,0,0,1-3.78,2.87h7.3A17.68,17.68,0,0,1,264,275.56Zm-1.3,4.89,1.18-.33c.45,1.24.83,2.5,1.16,3.78l-1.26.38A34.46,34.46,0,0,0,262.65,280.45Zm3.49-10.22h1.42c-.25.57-.52,1.11-.79,1.62h5.47V273H266.1c-.3.47-.59.89-.85,1.24a11.68,11.68,0,0,0-1.23-.61A12.66,12.66,0,0,0,266.14,270.23Zm2.77,5.93a23.13,23.13,0,0,0-1.92-1.9l.82-.79c.77.64,1.43,1.25,2,1.82Z"/><path class="cls-19" d="M273.4,276.21a1,1,0,0,1,.33-.77,1.09,1.09,0,0,1,.78-.31,1.11,1.11,0,0,1,.78.31,1,1,0,0,1,.33.77,1.06,1.06,0,0,1-.32.77,1.09,1.09,0,0,1-.8.31,1.08,1.08,0,0,1-1.1-1.08Zm0,7.69a1.08,1.08,0,0,1,1.11-1.09,1,1,0,0,1,.79.32,1.06,1.06,0,0,1,.32.77,1,1,0,0,1-.32.76,1.06,1.06,0,0,1-.8.32,1,1,0,0,1-.78-.32A1,1,0,0,1,273.4,283.9Z"/><path class="cls-19" d="M246,289.54l1.25-.66a19.58,19.58,0,0,1,1.4,2l-.83.48h6.93v1.3H241.47v4.19q0,6-2.5,9a10.87,10.87,0,0,0-1-1.18q2.06-2.3,2.05-7.83v-5.52h7.23A21.19,21.19,0,0,0,246,289.54Zm-4.66,14.07h7.9a81.62,81.62,0,0,0,2.83-9.33l1.48.41c-1.06,3.76-2,6.73-2.83,8.92H255v1.3h-13.6Zm.92-8.39,1.3-.45c.7,2.08,1.39,4.4,2,7l-1.45.44Q243.4,298.8,242.29,295.22Zm4.12-.86,1.31-.37a67.51,67.51,0,0,1,1.57,6.88l-1.5.4A69.76,69.76,0,0,0,246.41,294.36Z"/><path class="cls-19" d="M263.59,305.59v-5.43h-5a10.92,10.92,0,0,1-2.07,5.89c-.29-.37-.63-.77-1-1.18a9.12,9.12,0,0,0,1.51-3.48,28,28,0,0,0,.37-5.23v-6.1h13.93v13.58c0,1.36-.64,2-1.93,2-.79,0-1.67,0-2.65-.05-.06-.38-.14-.85-.25-1.42,1,.07,1.79.1,2.4.1s1.06-.34,1.06-1v-3.14h-5v5.43Zm-4.88-6.66h4.88v-3.2h-4.8A28.08,28.08,0,0,1,258.71,298.93Zm.08-7.61v3.18h4.8v-3.18Zm11.19,0h-5v3.18h5Zm-5,7.61h5v-3.2h-5Z"/><path class="cls-19" d="M273.4,295a1,1,0,0,1,.33-.77,1.12,1.12,0,0,1,.78-.3,1.07,1.07,0,0,1,.78.31,1,1,0,0,1,.33.76,1.06,1.06,0,0,1-.32.77,1.09,1.09,0,0,1-.8.32,1.09,1.09,0,0,1-1.1-1.09Zm0,7.69a1.1,1.1,0,0,1,.32-.78,1.12,1.12,0,0,1,1.9.78,1.07,1.07,0,0,1-.32.77,1.09,1.09,0,0,1-.8.32,1,1,0,0,1-.78-.32A1.07,1.07,0,0,1,273.4,302.7Z"/><path class="cls-19" d="M287.59,291a2.19,2.19,0,0,0-1-.25c-1.05,0-1.58.65-1.58,2v1.41h2.22v1.39H285v8.06h-1.65v-8.06h-1.62v-1.39h1.62v-1.48a3.2,3.2,0,0,1,.87-2.39,3,3,0,0,1,2.23-.87,3.21,3.21,0,0,1,1.14.16Z"/><path class="cls-19" d="M293.62,295.79a1.94,1.94,0,0,0-1.15-.3,1.89,1.89,0,0,0-1.61.91,4.15,4.15,0,0,0-.63,2.4v4.78h-1.68v-9.45h1.68v1.92h0a2.6,2.6,0,0,1,2.48-2.08,2.27,2.27,0,0,1,.88.13Z"/><path class="cls-19" d="M294.09,299a5.13,5.13,0,0,1,1.31-3.7,4.7,4.7,0,0,1,3.55-1.35,4.31,4.31,0,0,1,3.33,1.3,5.84,5.84,0,0,1-.08,7.22,4.5,4.5,0,0,1-3.46,1.37,4.43,4.43,0,0,1-3.38-1.33A4.87,4.87,0,0,1,294.09,299Zm1.71,0a3.76,3.76,0,0,0,.83,2.57,2.79,2.79,0,0,0,2.21.94,2.67,2.67,0,0,0,2.19-.92,4.06,4.06,0,0,0,.75-2.63,4.1,4.1,0,0,0-.75-2.65,2.65,2.65,0,0,0-2.19-.93,2.76,2.76,0,0,0-2.22,1A4,4,0,0,0,295.8,298.91Z"/><path class="cls-19" d="M313.58,303.58h-1.67v-5.37c0-1.94-.71-2.92-2.13-2.92a2.32,2.32,0,0,0-1.81.82,3.09,3.09,0,0,0-.71,2.08v5.39h-1.67v-9.45h1.67v1.57h0a3.39,3.39,0,0,1,3.1-1.79,2.86,2.86,0,0,1,2.37,1,4.49,4.49,0,0,1,.81,2.9Z"/><path class="cls-19" d="M320.65,303.49a3.11,3.11,0,0,1-1.48.3c-1.69,0-2.54-.94-2.54-2.81v-5.46H315v-1.39h1.62v-2.27l1.67-.53v2.8h2.35v1.39H318.3v5.16a2.19,2.19,0,0,0,.31,1.33,1.25,1.25,0,0,0,1.05.4,1.6,1.6,0,0,0,1-.31Z"/><path class="cls-19" d="M326.2,299h-5V297.7h5Z"/><path class="cls-19" d="M336.33,299.29h-6.61a3.38,3.38,0,0,0,.83,2.33,2.87,2.87,0,0,0,2.19.83,4.7,4.7,0,0,0,2.92-1v1.49a5.61,5.61,0,0,1-3.31.88,4.07,4.07,0,0,1-3.2-1.29A5.25,5.25,0,0,1,328,298.9a5.17,5.17,0,0,1,1.26-3.58,4,4,0,0,1,3.13-1.41,3.67,3.67,0,0,1,2.9,1.19,5,5,0,0,1,1,3.34Zm-1.67-1.35a3,3,0,0,0-.61-2,2.08,2.08,0,0,0-1.68-.7,2.35,2.35,0,0,0-1.73.74,3.43,3.43,0,0,0-.92,1.94Z"/><path class="cls-19" d="M346.29,303.58h-1.67v-5.37c0-1.94-.71-2.92-2.12-2.92a2.33,2.33,0,0,0-1.82.82,3.09,3.09,0,0,0-.71,2.08v5.39H338.3v-9.45H340v1.57h0a3.39,3.39,0,0,1,3.1-1.79,2.86,2.86,0,0,1,2.37,1,4.49,4.49,0,0,1,.81,2.9Z"/><path class="cls-19" d="M357,303.58h-1.67V302h0a3.43,3.43,0,0,1-3.21,1.79,3.51,3.51,0,0,1-2.85-1.27,5.21,5.21,0,0,1-1.06-3.45,5.69,5.69,0,0,1,1.19-3.76,3.91,3.91,0,0,1,3.13-1.41,3,3,0,0,1,2.8,1.5h0v-5.82H357ZM355.36,298a2.6,2.6,0,0,0-.75-1.9,2.48,2.48,0,0,0-1.84-.77,2.52,2.52,0,0,0-2.1,1,4.28,4.28,0,0,0-.77,2.71,3.82,3.82,0,0,0,.74,2.5,2.41,2.41,0,0,0,2,.92,2.48,2.48,0,0,0,2-.9,3.35,3.35,0,0,0,.77-2.24Z"/><path class="cls-19" d="M364.62,299h-5V297.7h5Z"/><path class="cls-19" d="M375.05,303.58h-1.67v-5.37c0-1.94-.71-2.92-2.12-2.92a2.33,2.33,0,0,0-1.82.82,3.08,3.08,0,0,0-.7,2.08v5.39h-1.68v-9.45h1.68v1.57h0a3.4,3.4,0,0,1,3.1-1.79,2.86,2.86,0,0,1,2.37,1,4.49,4.49,0,0,1,.81,2.9Z"/><path class="cls-19" d="M385.78,302.79c0,3.5-1.69,5.25-5.09,5.25a6.7,6.7,0,0,1-3.06-.66v-1.62a6.24,6.24,0,0,0,3,.88q3.43,0,3.44-3.62v-1h0a3.81,3.81,0,0,1-6.06.51,5,5,0,0,1-1.07-3.37,5.8,5.8,0,0,1,1.18-3.84,3.87,3.87,0,0,1,3.14-1.41,3.07,3.07,0,0,1,2.81,1.5h0v-1.28h1.67ZM384.11,298a2.6,2.6,0,0,0-.73-1.88,2.45,2.45,0,0,0-1.83-.79,2.52,2.52,0,0,0-2.13,1,4.45,4.45,0,0,0-.76,2.75,3.81,3.81,0,0,0,.73,2.44,2.36,2.36,0,0,0,1.95.93,2.51,2.51,0,0,0,2-.89,3.22,3.22,0,0,0,.77-2.25Z"/><path class="cls-19" d="M388.31,290.8a1,1,0,0,1,1.05-1.05,1,1,0,0,1,.76.3,1,1,0,0,1,.32.75,1,1,0,0,1-.32.74,1,1,0,0,1-.76.29,1,1,0,0,1-.75-.29A1,1,0,0,1,388.31,290.8Zm.19,12.78v-9.45h1.68v9.45Z"/><path class="cls-19" d="M400.9,303.58h-1.67v-5.37c0-1.94-.71-2.92-2.13-2.92a2.31,2.31,0,0,0-1.81.82,3.09,3.09,0,0,0-.71,2.08v5.39h-1.67v-9.45h1.67v1.57h0a3.39,3.39,0,0,1,3.1-1.79,2.85,2.85,0,0,1,2.36,1,4.44,4.44,0,0,1,.82,2.9Z"/><path class="cls-19" d="M410.58,294.13l-3.16,4.76,3.12,4.69h-2l-1.8-3c-.1-.16-.24-.41-.41-.74h0s-.15.28-.42.74l-1.84,3h-1.92l3.21-4.64-3.07-4.81h1.95l1.77,3.16c.11.2.24.45.39.76h0l2.29-3.92Z"/><path class="cls-19" d="M470.62,281.35a18.28,18.28,0,0,0,2.6-6.11h-2.48v-1.17h2.6v-3.35h1.2v3.35h2.32v1.17h-2.32v3l.73-.77c.73.63,1.37,1.23,1.93,1.81l-.9.94c-.55-.62-1.14-1.24-1.76-1.88v9h-1.2v-9.26a17,17,0,0,1-2.15,4.73C471,282.37,470.84,281.87,470.62,281.35Zm7.81-1.79,1.28.51q-1.4,3.14-2.78,5.56a8.61,8.61,0,0,0-1.25-.6A40.12,40.12,0,0,0,478.43,279.56Zm-1.59-2.82h10.67v1.2h-4.72v7.14c0,1.42-.65,2.13-2,2.13-.62,0-1.38,0-2.28,0-.05-.41-.13-.88-.24-1.42a19.3,19.3,0,0,0,2.16.14c.68,0,1-.42,1-1.27v-6.71h-4.65Zm.79-5h9.09v1.2h-9.09Zm6.29,8.41,1.21-.58c1.08,2.07,2,3.89,2.7,5.45l-1.36.6C485.72,283.84,484.88,282,483.92,280.14Z"/><path class="cls-19" d="M497.62,274.72l-.31.38a15.78,15.78,0,0,0,7.62,4.31c-.35.47-.66.93-.92,1.36a18.85,18.85,0,0,1-3.61-1.66V280h-8v-1a36.31,36.31,0,0,1-3.74,2,9.87,9.87,0,0,0-.85-1.17,23.82,23.82,0,0,0,8.11-5.1Zm-6.43-4.06h1.47c-.28.56-.57,1.11-.87,1.62h5v1.14h-5.66a16.51,16.51,0,0,1-2.36,2.87,10.88,10.88,0,0,0-.87-1A15.83,15.83,0,0,0,491.19,270.66Zm-2.61,14.86h10.06a41.07,41.07,0,0,0,2.45-4.7l1.3.69c-.79,1.38-1.58,2.71-2.36,4h4.24v1.22H488.58Zm1.71-3.84,1.09-.57a34.87,34.87,0,0,1,1.86,3.46l-1.16.65A32.58,32.58,0,0,0,490.29,281.68Zm2.63-5.33c-.48-.63-1-1.23-1.45-1.8l.89-.67c.51.5,1,1.05,1.57,1.66Zm3.54-.36a25.31,25.31,0,0,1-3.78,2.87H500A17.75,17.75,0,0,1,496.46,276Zm-1.3,4.89,1.18-.33c.44,1.24.83,2.5,1.16,3.78l-1.27.37A32.3,32.3,0,0,0,495.16,280.88Zm3.48-10.22h1.42c-.25.56-.51,1.11-.78,1.62h5.47v1.14h-6.14c-.31.48-.59.9-.85,1.25-.43-.24-.84-.44-1.23-.61A12.64,12.64,0,0,0,498.64,270.66Zm2.77,5.92a24.55,24.55,0,0,0-1.91-1.89l.82-.79c.76.64,1.43,1.24,2,1.81Z"/><path class="cls-19" d="M505.91,276.64a1,1,0,0,1,.33-.77,1,1,0,0,1,.77-.31,1.09,1.09,0,0,1,.79.31,1.1,1.1,0,0,1,0,1.54,1.09,1.09,0,0,1-.81.31,1.08,1.08,0,0,1-1.09-1.08Zm0,7.69a1.09,1.09,0,0,1,1.1-1.1,1.08,1.08,0,0,1,1.11,1.1,1,1,0,0,1-.31.76,1.06,1.06,0,0,1-.81.32,1,1,0,0,1-.78-.32A1,1,0,0,1,505.91,284.33Z"/><path class="cls-19" d="M478.54,290l1.24-.67a20.87,20.87,0,0,1,1.4,2l-.82.48h6.93v1.3H474v4.18q0,6.06-2.49,9c-.28-.37-.61-.77-1-1.18,1.36-1.52,2.05-4.13,2.05-7.82v-5.52h7.23A21.19,21.19,0,0,0,478.54,290ZM473.87,304h7.9a80.86,80.86,0,0,0,2.83-9.33l1.49.41c-1.07,3.76-2,6.73-2.84,8.92h4.22v1.29h-13.6Zm.92-8.39,1.3-.45c.71,2.07,1.39,4.4,2.05,7l-1.45.45C476.17,300.36,475.53,298,474.79,295.65Zm4.12-.86,1.32-.37a70.29,70.29,0,0,1,1.57,6.88l-1.5.4A69.86,69.86,0,0,0,478.91,294.79Z"/><path class="cls-19" d="M496.1,306v-5.44h-5a11.12,11.12,0,0,1-2.07,5.9c-.3-.38-.64-.77-1-1.18a9.14,9.14,0,0,0,1.5-3.49,27.76,27.76,0,0,0,.38-5.23v-6.1h13.93v13.59c0,1.36-.65,2-1.93,2-.79,0-1.67,0-2.65-.05-.06-.37-.15-.85-.26-1.42,1,.07,1.79.11,2.41.11s1.06-.34,1.06-1v-3.15h-5V306Zm-4.88-6.67h4.88v-3.19h-4.8A30.32,30.32,0,0,1,491.22,299.35Zm.08-7.6v3.18h4.8v-3.18Zm11.19,0h-5v3.18h5Zm-5,7.6h5v-3.19h-5Z"/><path class="cls-19" d="M505.91,295.44a1,1,0,0,1,.33-.77,1.09,1.09,0,0,1,.77-.31,1.1,1.1,0,0,1,.79.32,1,1,0,0,1,.32.76,1,1,0,0,1-.31.77,1.1,1.1,0,0,1-.81.32,1.09,1.09,0,0,1-1.09-1.09Zm0,7.69a1.12,1.12,0,0,1,1.9-.77,1,1,0,0,1,.31.77,1.06,1.06,0,0,1-.31.77,1.1,1.1,0,0,1-.81.32,1.08,1.08,0,0,1-1.09-1.09Z"/><path class="cls-19" d="M516.93,302.68V304h-1.68V290h1.68v6.17h0a3.58,3.58,0,0,1,3.25-1.85,3.48,3.48,0,0,1,2.82,1.25,5.16,5.16,0,0,1,1.05,3.42,5.78,5.78,0,0,1-1.17,3.81,3.89,3.89,0,0,1-3.14,1.41,3.13,3.13,0,0,1-2.81-1.55Zm0-2.56a2.75,2.75,0,0,0,.74,1.94,2.46,2.46,0,0,0,1.87.79,2.42,2.42,0,0,0,2.08-1,4.71,4.71,0,0,0,.75-2.83,3.71,3.71,0,0,0-.7-2.38,2.3,2.3,0,0,0-1.91-.89,2.64,2.64,0,0,0-2,.88,3.23,3.23,0,0,0-.8,2.24Z"/><path class="cls-19" d="M526.14,295.22a6,6,0,0,1,3.26-.88c2.28,0,3.42,1.19,3.42,3.59V304h-1.66v-1.46h0a3.17,3.17,0,0,1-2.9,1.68,3.09,3.09,0,0,1-2.19-.74,2.59,2.59,0,0,1-.81-2q0-2.64,3.14-3.08l2.8-.4c0-1.54-.64-2.31-1.91-2.31a4.82,4.82,0,0,0-3.11,1.14Zm2.81,4.35a2.84,2.84,0,0,0-1.61.58,1.58,1.58,0,0,0-.44,1.19,1.43,1.43,0,0,0,.48,1.11,1.85,1.85,0,0,0,1.27.42,2.34,2.34,0,0,0,1.8-.76,2.78,2.78,0,0,0,.71-1.94v-.9Z"/><path class="cls-19" d="M541.86,303.58a4.93,4.93,0,0,1-2.61.65,4.35,4.35,0,0,1-3.3-1.31,4.73,4.73,0,0,1-1.25-3.41,5.27,5.27,0,0,1,1.34-3.75,4.73,4.73,0,0,1,3.61-1.42,4.91,4.91,0,0,1,2.22.46v1.66a3.68,3.68,0,0,0-2.22-.74,3,3,0,0,0-2.34,1,3.8,3.8,0,0,0-.9,2.65,3.63,3.63,0,0,0,.85,2.56,3,3,0,0,0,2.29.92,3.83,3.83,0,0,0,2.31-.8Z"/><path class="cls-19" d="M551.88,304h-2.29l-4-4.55h0V304h-1.68V290h1.68v8.87h0l3.84-4.33h2.15l-4.27,4.55Z"/><path class="cls-19" d="M556.7,299.41h-5v-1.29h5Z"/><path class="cls-19" d="M566.83,299.71h-6.61a3.43,3.43,0,0,0,.83,2.34,2.89,2.89,0,0,0,2.2.82,4.64,4.64,0,0,0,2.91-1v1.49a5.59,5.59,0,0,1-3.31.88,4.05,4.05,0,0,1-3.2-1.3,5.26,5.26,0,0,1-1.15-3.6,5.17,5.17,0,0,1,1.26-3.58,4,4,0,0,1,3.14-1.41,3.65,3.65,0,0,1,2.89,1.19,4.9,4.9,0,0,1,1,3.34Zm-1.67-1.34a3,3,0,0,0-.61-2,2.07,2.07,0,0,0-1.68-.7,2.36,2.36,0,0,0-1.73.74,3.47,3.47,0,0,0-.92,1.94Z"/><path class="cls-19" d="M576.79,304h-1.66v-5.37c0-1.95-.71-2.92-2.13-2.92a2.29,2.29,0,0,0-1.81.82,3,3,0,0,0-.71,2.08V304H568.8v-9.45h1.68v1.56h0a3.41,3.41,0,0,1,3.1-1.78,2.88,2.88,0,0,1,2.37,1,4.51,4.51,0,0,1,.81,2.9Z"/><path class="cls-19" d="M587.53,304h-1.68v-1.57h0a3.46,3.46,0,0,1-3.22,1.79,3.52,3.52,0,0,1-2.85-1.27,5.23,5.23,0,0,1-1.06-3.45,5.64,5.64,0,0,1,1.2-3.76,3.9,3.9,0,0,1,3.12-1.41,3,3,0,0,1,2.81,1.5h0V290h1.68Zm-1.67-5.62a2.6,2.6,0,0,0-.75-1.9,2.65,2.65,0,0,0-3.94.23,4.34,4.34,0,0,0-.77,2.71,3.88,3.88,0,0,0,.74,2.5,2.41,2.41,0,0,0,2,.92,2.48,2.48,0,0,0,2-.9,3.36,3.36,0,0,0,.77-2.25Z"/><path class="cls-19" d="M595.13,299.41h-5v-1.29h5Z"/><path class="cls-19" d="M605.77,304h-1.68v-1.57h0a3.46,3.46,0,0,1-3.22,1.79A3.52,3.52,0,0,1,598,303a5.23,5.23,0,0,1-1.06-3.45,5.64,5.64,0,0,1,1.2-3.76,3.89,3.89,0,0,1,3.12-1.41,3,3,0,0,1,2.81,1.5h0V290h1.68Zm-1.67-5.62a2.6,2.6,0,0,0-.75-1.9,2.65,2.65,0,0,0-3.94.23,4.34,4.34,0,0,0-.77,2.71,3.88,3.88,0,0,0,.74,2.5,2.41,2.41,0,0,0,2,.92,2.48,2.48,0,0,0,2-.9,3.36,3.36,0,0,0,.77-2.25Z"/><path class="cls-19" d="M610.17,302.68V304H608.5V290h1.67v6.17h0a3.58,3.58,0,0,1,3.25-1.85,3.51,3.51,0,0,1,2.83,1.25,5.21,5.21,0,0,1,1,3.42,5.78,5.78,0,0,1-1.17,3.81,3.88,3.88,0,0,1-3.13,1.41,3.14,3.14,0,0,1-2.82-1.55Zm0-2.56a2.71,2.71,0,0,0,.75,1.94,2.6,2.6,0,0,0,3.94-.24,4.71,4.71,0,0,0,.75-2.83,3.71,3.71,0,0,0-.7-2.38,2.3,2.3,0,0,0-1.91-.89,2.64,2.64,0,0,0-2,.88,3.23,3.23,0,0,0-.8,2.24Z"/><path class="cls-19" d="M303.32,336.59l1-.54c.69,1.11,1.39,2.24,2.08,3.39a35.69,35.69,0,0,0,1.47-3.65l1.19.44q-.87,2.36-1.91,4.49c.67,1.15,1.34,2.32,2,3.52l-1.19.63c-.49-.92-1-1.85-1.51-2.79a37.15,37.15,0,0,1-2.33,3.83l-1.05-.61V349h-1.32V332.9h15V347c0,1.25-.68,1.88-2,1.88l-2.69,0c-.06-.38-.14-.84-.25-1.37,1,.08,1.82.12,2.51.12s1.13-.32,1.13-1V334.17H303.11v11.06a45.67,45.67,0,0,0,2.66-4.44C305,339.4,304.18,338,303.32,336.59Zm5.85.85,1-.6c.59,1,1.2,2,1.82,3a36.12,36.12,0,0,0,1.72-4l1.19.46a51,51,0,0,1-2.17,4.78q1.11,1.9,2.29,4l-1.17.66c-.59-1.11-1.2-2.24-1.83-3.37q-1.1,1.95-2.32,3.71l-1.07-.69q1.5-2.19,2.67-4.3C310.63,339.93,309.92,338.69,309.17,337.44Z"/><path class="cls-19" d="M318.56,346c1.23-.2,2.49-.43,3.77-.67a67.79,67.79,0,0,0,1.75-7.57l1.42.33q-.81,3.42-1.79,7c.69-.13,1.4-.27,2.11-.43a9.81,9.81,0,0,0,.12,1.29q-3.75.75-7.05,1.47Zm.25-10.42h7.24v1.23h-7.24Zm.59,2.72,1.22-.31c.51,1.8,1,3.7,1.44,5.68l-1.3.35C320.37,342.11,319.92,340.21,319.4,338.33Zm1.36-6.08,1.25-.54c.46.85.95,1.82,1.45,2.9l-1.31.6A29.66,29.66,0,0,0,320.76,332.25Zm5.66,8.48h3.34v-8.85h1.4v3.62h4.89v1.34h-4.89v3.89h3.91v8.42h-1.34v-1h-6v1h-1.33Zm7.31,1.23h-6v4.92h6Z"/><path class="cls-19" d="M532.63,336.6l1-.55c.69,1.11,1.39,2.24,2.08,3.39a35.69,35.69,0,0,0,1.47-3.65l1.19.44q-.87,2.36-1.91,4.49c.67,1.15,1.34,2.32,2,3.52l-1.19.64c-.49-.93-1-1.86-1.51-2.8a37.15,37.15,0,0,1-2.33,3.83l-1.05-.6V349H531.1V332.9h15V347c0,1.26-.68,1.88-2,1.88l-2.69,0c-.06-.38-.14-.83-.25-1.37,1,.08,1.82.12,2.51.12s1.13-.32,1.13-1V334.17H532.42v11.06a45.67,45.67,0,0,0,2.66-4.44C534.3,339.4,533.49,338,532.63,336.6Zm5.85.84,1-.6c.59,1,1.2,2,1.82,3a36.12,36.12,0,0,0,1.72-4l1.19.46a51,51,0,0,1-2.17,4.78q1.11,1.9,2.29,4l-1.17.66c-.59-1.11-1.2-2.23-1.83-3.37q-1.1,1.95-2.32,3.71l-1.07-.69q1.5-2.19,2.67-4.3C539.94,339.94,539.23,338.69,538.48,337.44Z"/><path class="cls-19" d="M547.87,346c1.23-.21,2.49-.44,3.77-.68a67.29,67.29,0,0,0,1.75-7.57l1.42.34q-.81,3.4-1.79,7c.69-.13,1.4-.27,2.11-.43a9.81,9.81,0,0,0,.12,1.29q-3.75.75-7,1.47Zm.25-10.43h7.24v1.23h-7.24Zm.59,2.73,1.22-.32c.51,1.8,1,3.7,1.44,5.68l-1.3.35C549.68,342.12,549.23,340.21,548.71,338.34Zm1.36-6.09,1.25-.54c.46.85.95,1.82,1.45,2.9l-1.31.6A29.66,29.66,0,0,0,550.07,332.25Zm5.66,8.48h3.34v-8.85h1.4v3.63h4.89v1.33h-4.89v3.89h3.91v8.42H563v-1h-6v1h-1.33ZM563,342h-6v4.92h6Z"/></svg>